<svg xmlns="http://www.w3.org/2000/svg" viewBox="0 0 1920.33 1080"><defs><style>.cls-1{fill:#d9d8ff;}.cls-2{fill:#282840;}.cls-3{fill:#504f80;}.cls-4{fill:#7877bf;}.cls-5{fill:#6e7498;}.cls-6{fill:#daddef;}.cls-7{fill:#f2f2f2;}.cls-8{fill:#e9e9f0;}.cls-9{fill:#3c426a;}.cls-10{fill:#cfd1dd;}.cls-11{fill:#0b123f;}.cls-12{fill:#070c2a;}.cls-13{fill:#d1a8bc;}.cls-14{fill:#b26f90;}.cls-15{fill:#c28ba6;}.cls-16{fill:#e0c5d3;}.cls-17{fill:#ececff;}</style></defs><g id="Layer_2" data-name="Layer 2"><g id="Layer_1-2" data-name="Layer 1"><rect class="cls-1" width="1920" height="1080"/><rect class="cls-2" width="360.93" height="877.81"/><polygon class="cls-3" points="1920 461.61 1701.89 461.61 1332.18 461.61 1331.72 461.61 962.47 461.61 962 461.61 731.11 461.61 360.93 461.61 360.93 877.81 731.11 877.81 962 877.81 962.47 877.81 1331.72 877.81 1332.18 877.81 1701.89 877.81 1920 877.81 1920 461.61"/><polygon class="cls-3" points="1920 0 1332.07 0 1332.07 163.2 1702.03 163.2 1920 163.2 1920 0"/><rect class="cls-4" x="1336.69" width="221.97" height="158.58"/><polygon class="cls-3" points="360.93 0 360.93 163.2 730.89 163.2 962.11 163.2 962.11 0 360.93 0"/><rect class="cls-4" x="365.56" width="177.58" height="158.58"/><rect class="cls-4" x="548.69" width="177.58" height="158.58"/><rect class="cls-4" x="735.51" width="221.97" height="158.58"/><path class="cls-5" d="M690.89,434.68H591.62a2.05,2.05,0,0,0,.32-1.1v-6.76a2.1,2.1,0,0,0-2.1-2.1h-6.67v-5.48h6.94a1.83,1.83,0,0,0,1.83-1.83v-1.83a1.83,1.83,0,0,0-1.83-1.82H571.84a1.83,1.83,0,0,0-1.83,1.82v1.83a1.83,1.83,0,0,0,1.83,1.83h6.94v5.48h-6.67a2.1,2.1,0,0,0-2.1,2.1v6.76a2.05,2.05,0,0,0,.32,1.1H551.41c0-.39,0-.79,0-1.19V367.71a21.93,21.93,0,0,1,43.86,0v1.15a2.74,2.74,0,0,0-2.19,2.69V377a2.74,2.74,0,0,0,2.74,2.74h9.87a2.74,2.74,0,0,0,2.74-2.74v-5.48a2.74,2.74,0,0,0-2.19-2.69v-1.15a32.9,32.9,0,0,0-65.79,0v65.78c0,.4,0,.8,0,1.19H520.36a2.14,2.14,0,0,0,.31-1.1v-6.76a2.1,2.1,0,0,0-2.1-2.1H511.9v-5.48h7a1.82,1.82,0,0,0,1.82-1.83v-1.83a1.82,1.82,0,0,0-1.82-1.82H500.57a1.82,1.82,0,0,0-1.82,1.82v1.83a1.82,1.82,0,0,0,1.82,1.83h6.95v5.48h-6.67a2.1,2.1,0,0,0-2.1,2.1v6.76a2.14,2.14,0,0,0,.31,1.1H400.93a5,5,0,0,0-5,5v11.57h300V439.7A5,5,0,0,0,690.89,434.68Z"/><rect class="cls-6" x="754.01" y="29.09" width="9.25" height="83.24" rx="2.5"/><rect class="cls-6" x="567.18" y="29.09" width="9.25" height="83.24" rx="2.5"/><rect class="cls-6" x="515.39" y="29.09" width="9.25" height="83.24" rx="2.5"/><path class="cls-2" d="M1139.23,375.85h-11.1v-9.48c0-.55,0-1.08-.08-1.62H989.48c-.05.54-.08,1.07-.08,1.62v9.48H979.22a4.63,4.63,0,0,0,0,9.25H989.4v35.38a19.19,19.19,0,0,0,19.19,19.19h100.35a19.19,19.19,0,0,0,19.19-19.19V385.1h11.1a4.63,4.63,0,0,0,0-9.25Z"/><path class="cls-7" d="M1078,358.85c-.42-.26,16-10,12.14-15.4-1.95-2.73-7.42-2-10.41-4.74-4.27-4,.66-11.45,5.78-17.38-2.57,3.42-4.89,8-2.31,11.85,3,4.51,10.16,4.23,12.14,7.9C1099.08,348.08,1078.42,359.14,1078,358.85Z"/><path class="cls-7" d="M1047.22,359c-.56-.36,21.57-13.57,16.4-20.82-2.62-3.68-10-2.64-14-6.4-5.77-5.39.88-15.47,7.81-23.49-3.47,4.63-6.61,10.8-3.13,16,4.07,6.09,13.72,5.72,16.4,10.67C1075.76,344.41,1047.84,359.36,1047.22,359Z"/><path class="cls-7" d="M1022,358.85c-.42-.26,16-10,12.14-15.4-1.94-2.73-7.42-2-10.4-4.74-4.27-4,.65-11.45,5.78-17.38-2.57,3.42-4.89,8-2.32,11.85,3,4.51,10.16,4.23,12.14,7.9C1043.16,348.08,1022.49,359.14,1022,358.85Z"/><rect class="cls-8" x="997.72" y="375.85" width="9.25" height="46.24" rx="4.37"/><rect class="cls-4" x="365.56" y="466.23" width="177.58" height="406.95"/><rect class="cls-4" x="548.69" y="466.23" width="177.58" height="406.95"/><rect class="cls-4" x="735.51" y="466.23" width="221.97" height="83.24"/><rect class="cls-4" x="735.51" y="743.7" width="221.97" height="129.49"/><rect class="cls-4" x="735.51" y="641.96" width="221.97" height="97.11"/><rect class="cls-4" x="735.51" y="554.1" width="221.97" height="83.24"/><rect class="cls-6" x="567.18" y="512.48" width="9.25" height="83.24" rx="2.5"/><rect class="cls-6" x="515.39" y="512.48" width="9.25" height="83.24" rx="2.5"/><rect class="cls-6" x="841.88" y="452.36" width="9.25" height="83.24" rx="2.5" transform="translate(352.52 1340.48) rotate(-90)"/><rect class="cls-6" x="842.8" y="540.23" width="9.25" height="83.24" rx="2.5" transform="translate(265.58 1429.27) rotate(-90)"/><rect class="cls-6" x="841.88" y="628.09" width="9.25" height="83.24" rx="2.5" transform="translate(176.79 1516.21) rotate(-90)"/><rect class="cls-6" x="842.8" y="729.83" width="9.25" height="83.24" rx="2.5" transform="translate(75.98 1618.87) rotate(-90)"/><rect class="cls-4" x="1336.69" y="466.23" width="221.97" height="83.24"/><rect class="cls-4" x="1336.69" y="554.1" width="221.97" height="319.09"/><rect class="cls-2" x="360.93" y="448.2" width="601.18" height="13.87"/><rect class="cls-9" x="962.11" y="448.2" width="369.96" height="356.08"/><rect class="cls-5" x="980.61" y="546.7" width="332.96" height="13.87"/><rect class="cls-10" x="980.61" y="480.11" width="332.96" height="46.24"/><rect class="cls-11" x="980.61" y="580.92" width="332.96" height="203.48" rx="11.5"/><rect class="cls-10" x="1096.68" y="590.17" width="9.25" height="175.73" rx="4.37" transform="translate(802.01 -580.15) rotate(45)"/><rect class="cls-10" x="1233.72" y="650.9" width="9.25" height="110.99" rx="4.37" transform="translate(862.2 -668.74) rotate(45)"/><rect class="cls-10" x="1178.23" y="593.56" width="9.25" height="175.73" rx="4.37" transform="translate(828.29 -636.82) rotate(45)"/><rect class="cls-10" x="1047.82" y="598.19" width="9.25" height="110.99" rx="4.37" transform="translate(770.47 -552.73) rotate(45)"/><circle class="cls-12" cx="1290.45" cy="503.23" r="13.87"/><circle class="cls-12" cx="1207.21" cy="503.23" r="13.87"/><circle class="cls-12" cx="1248.83" cy="503.23" r="13.87"/><circle class="cls-12" cx="1165.59" cy="503.23" r="13.87"/><circle class="cls-12" cx="1045.35" cy="503.23" r="13.87"/><circle class="cls-12" cx="1003.73" cy="503.23" r="13.87"/><rect class="cls-4" x="966.74" y="808.44" width="360.71" height="64.74"/><rect class="cls-6" x="1105.47" y="826.94" width="83.24" height="9.25" rx="2.5"/><rect class="cls-5" x="1339.3" y="218.53" width="300" height="6.26"/><rect class="cls-2" x="1629.13" y="215.4" width="4.18" height="12.53"/><rect class="cls-2" x="1345.3" y="215.4" width="4.18" height="12.53"/><rect class="cls-2" x="1505.17" y="215.4" width="4.18" height="20.88"/><ellipse class="cls-2" cx="1507.21" cy="352.41" rx="19.58" ry="27.84"/><rect class="cls-2" x="1503.09" y="253.15" width="8.35" height="73.07"/><path class="cls-13" d="M1507.26,231.23a5.22,5.22,0,0,0-5.22,5.22V284a2.61,2.61,0,0,0,2.61,2.61h5.22a2.61,2.61,0,0,0,2.61-2.61v-47.5A5.22,5.22,0,0,0,1507.26,231.23Z"/><path class="cls-2" d="M1507.26,233.32a3.13,3.13,0,0,0-3.13,3.13v4.18h.1a1.56,1.56,0,0,0,1.47,1h3.13a1.57,1.57,0,0,0,1.47-1h.09v-4.18A3.13,3.13,0,0,0,1507.26,233.32Z"/><rect class="cls-2" x="1591.95" y="215.4" width="4.18" height="20.88"/><rect class="cls-2" x="1588.81" y="271.94" width="10.44" height="36.54"/><path class="cls-13" d="M1594,231.23a6.27,6.27,0,0,0-6.26,6.26v40.72a3.13,3.13,0,0,0,3.13,3.13h6.27a3.13,3.13,0,0,0,3.13-3.13V237.49A6.27,6.27,0,0,0,1594,231.23Z"/><circle class="cls-2" cx="1594.03" cy="361.72" r="57.42"/><path class="cls-2" d="M1594,234a4.17,4.17,0,0,0-4.17,4.17v5.57h.13a2.07,2.07,0,0,0,2,1.39h4.17a2.08,2.08,0,0,0,2-1.39h.13v-5.57A4.17,4.17,0,0,0,1594,234Z"/><circle class="cls-3" cx="1594.56" cy="362.24" r="44.37"/><circle class="cls-2" cx="1594.56" cy="362.24" r="41.76"/><rect class="cls-14" x="443.01" y="218.62" width="89.69" height="119.58" rx="6"/><rect class="cls-15" x="443.01" y="305.2" width="89.69" height="14.95"/><rect class="cls-5" x="415.42" y="218.62" width="260.98" height="6.26"/><rect class="cls-2" x="666.22" y="215.31" width="4.18" height="12.53"/><rect class="cls-2" x="421.09" y="215.49" width="4.18" height="12.53"/><path class="cls-13" d="M516.67,209.58H442.93a8,8,0,0,0-8,8v99.76a6,6,0,0,0,6,6h77.73a6,6,0,0,0,6-6V217.55A8,8,0,0,0,516.67,209.58Z"/><rect class="cls-16" x="434.95" y="290.29" width="89.69" height="14.95"/><rect class="cls-2" x="1380.65" y="215.4" width="4.18" height="20.88"/><rect class="cls-2" x="1378.56" y="256.29" width="8.35" height="73.07"/><path class="cls-13" d="M1382.74,231.23a5.22,5.22,0,0,0-5.22,5.22V284a2.61,2.61,0,0,0,2.61,2.61h5.22A2.61,2.61,0,0,0,1388,284v-47.5A5.22,5.22,0,0,0,1382.74,231.23Z"/><path class="cls-2" d="M1382.74,233.32a3.13,3.13,0,0,0-3.13,3.13v4.18h.09a1.57,1.57,0,0,0,1.47,1h3.13a1.56,1.56,0,0,0,1.47-1h.1v-4.18A3.13,3.13,0,0,0,1382.74,233.32Z"/><path class="cls-2" d="M1399.23,323.7h-33a5,5,0,0,0-5,5v50a5,5,0,0,0,5,5h33a5,5,0,0,0,5-5v-50A5,5,0,0,0,1399.23,323.7Zm-28,51.73a2.64,2.64,0,1,1-5.27,0V337.7a2.64,2.64,0,1,1,5.27,0Zm9.4,0a2.64,2.64,0,1,1-5.27,0V337.7a2.64,2.64,0,1,1,5.27,0Zm9.41,0a2.64,2.64,0,1,1-5.28,0V337.7a2.64,2.64,0,1,1,5.28,0Zm9.4,0a2.64,2.64,0,0,1-5.28,0V337.7a2.64,2.64,0,0,1,5.28,0Z"/><rect class="cls-2" x="1444.08" y="215.4" width="4.18" height="20.88"/><rect class="cls-2" x="1441.99" y="256.29" width="8.35" height="100.28"/><path class="cls-13" d="M1446.17,231.23a5.22,5.22,0,0,0-5.22,5.22V284a2.61,2.61,0,0,0,2.61,2.61h5.22a2.61,2.61,0,0,0,2.61-2.61v-47.5A5.22,5.22,0,0,0,1446.17,231.23Z"/><path class="cls-2" d="M1446.17,233.32a3.13,3.13,0,0,0-3.13,3.13v4.18h.09a1.57,1.57,0,0,0,1.47,1h3.14a1.57,1.57,0,0,0,1.47-1h.09v-4.18A3.13,3.13,0,0,0,1446.17,233.32Z"/><path class="cls-2" d="M1446.17,388.06a31.5,31.5,0,0,0,31.5-31.5h-63A31.5,31.5,0,0,0,1446.17,388.06Z"/><rect class="cls-2" x="962.11" y="439.67" width="369.86" height="8.71"/><path class="cls-9" d="M1182.88,0h-71.25L962.3,149.33h369.92ZM1014.77,121.23a4.36,4.36,0,0,1-6.18,0l-.36-.35a4.39,4.39,0,0,1,0-6.19l72.29-72.28a4.36,4.36,0,0,1,6.18,0l.36.35a4.38,4.38,0,0,1,0,6.19Z"/><rect class="cls-5" x="1077.9" width="138.72" height="33.73"/><rect class="cls-5" x="962.3" y="130.83" width="369.91" height="32.37"/><rect class="cls-4" x="1567.92" width="352.08" height="158.58"/><rect class="cls-6" x="1355.19" y="33.72" width="9.25" height="83.24" rx="2.5"/><rect class="cls-6" x="1586.42" y="33.72" width="9.25" height="83.24" rx="2.5"/><rect class="cls-2" x="1332.07" y="448.2" width="587.93" height="13.87"/><rect class="cls-4" x="1567.92" y="466.23" width="352.42" height="406.95"/><rect class="cls-6" x="1443.06" y="452.36" width="9.25" height="83.24" rx="2.5" transform="translate(953.7 1941.66) rotate(-90)"/><rect class="cls-6" x="1586.42" y="507.85" width="9.25" height="83.24" rx="2.5"/><rect class="cls-6" x="1355.19" y="595.72" width="9.25" height="83.24" rx="2.5"/><rect class="cls-2" x="112.37" y="877.81" width="121.39" height="121.39"/><rect class="cls-2" x="355.15" y="877.81" width="121.39" height="121.39"/><rect class="cls-2" x="597.94" y="877.81" width="121.39" height="121.39"/><rect class="cls-2" x="840.72" y="877.81" width="121.39" height="121.39"/><rect class="cls-2" x="1083.5" y="877.81" width="121.39" height="121.39"/><rect class="cls-2" x="1326.29" y="877.81" width="121.39" height="121.39"/><rect class="cls-2" x="1569.07" y="877.81" width="121.39" height="121.39"/><rect class="cls-2" x="1811.86" y="877.81" width="108.47" height="121.39"/><rect class="cls-2" x="1690.47" y="999.2" width="121.39" height="80.8"/><rect class="cls-2" x="1447.68" y="999.2" width="121.39" height="80.8"/><rect class="cls-2" x="1204.9" y="999.2" width="121.39" height="80.8"/><rect class="cls-2" x="962.11" y="999.2" width="121.39" height="80.8"/><rect class="cls-2" x="719.33" y="999.2" width="121.39" height="80.8"/><rect class="cls-2" x="476.54" y="999.2" width="121.39" height="80.8"/><rect class="cls-2" x="233.76" y="999.2" width="121.39" height="80.8"/><rect class="cls-2" y="999.2" width="112.37" height="80.8"/><rect class="cls-17" x="233.76" y="877.81" width="121.39" height="121.39"/><rect class="cls-17" x="476.54" y="877.81" width="121.39" height="121.39"/><rect class="cls-17" x="719.33" y="877.81" width="121.39" height="121.39"/><rect class="cls-17" x="962.11" y="877.81" width="121.39" height="121.39"/><rect class="cls-17" x="1204.9" y="877.81" width="121.39" height="121.39"/><rect class="cls-17" x="1447.68" y="877.81" width="121.39" height="121.39"/><rect class="cls-17" x="1690.47" y="877.81" width="121.39" height="121.39"/><rect class="cls-17" x="1811.86" y="999.2" width="108.14" height="80.8"/><rect class="cls-17" x="1569.07" y="999.2" width="121.39" height="80.8"/><rect class="cls-17" x="1326.29" y="999.2" width="121.39" height="80.8"/><rect class="cls-17" x="1083.5" y="999.2" width="121.39" height="80.8"/><rect class="cls-17" x="840.72" y="999.2" width="121.39" height="80.8"/><rect class="cls-17" x="597.94" y="999.2" width="121.39" height="80.8"/><rect class="cls-17" x="355.15" y="999.2" width="121.39" height="80.8"/><rect class="cls-17" x="112.37" y="999.2" width="121.39" height="80.8"/><rect class="cls-17" y="877.81" width="112.37" height="121.39"/><rect class="cls-9" width="356.31" height="507.85"/><rect class="cls-9" y="512.48" width="356.31" height="360.71"/><rect class="cls-5" x="323.94" y="332.12" width="13.87" height="147.98" rx="2.5" transform="translate(661.75 812.23) rotate(-180)"/><rect class="cls-5" x="323.94" y="540.23" width="13.87" height="147.98" rx="2.5" transform="translate(661.75 1228.43) rotate(-180)"/></g></g></svg>