<svg xmlns="http://www.w3.org/2000/svg" viewBox="0 0 113.54 178.68"><defs><style>.cls-1{fill:#e6e6e6;}.cls-2{fill:#b3b3b3;}.cls-3{fill:#915cc7;}.cls-4{fill:#753dae;}.cls-5{fill:#fff;}.cls-6{fill:#4fbeb2;}.cls-7{fill:#179184;}.cls-8{fill:#ffd56b;}.cls-9{fill:#e9b225;}.cls-10{fill:#6371c9;}.cls-11{fill:#2b3ba0;}</style></defs><g id="Layer_2" data-name="Layer 2"><g id="Layer_2-2" data-name="Layer 2"><rect class="cls-1" x="11.62" y="28.66" width="3" height="50" transform="translate(26.87 0.16) rotate(28.15)"/><path class="cls-2" d="M21.94,34c.41.27.84.54,1.28.78s.91.44,1.36.64l1.66-3.1-2.65-1.41Z"/><circle class="cls-3" cx="32.47" cy="17.5" r="17.5"/><path class="cls-4" d="M17,9.25a15.73,15.73,0,0,0-1,2.23L46.58,27.81a16.68,16.68,0,0,0,1.32-2,18.09,18.09,0,0,0,1.4-3.48L19.16,6.15A17.31,17.31,0,0,0,17,9.25Z"/><path class="cls-4" d="M45.9,27.05A16.48,16.48,0,0,1,17.07,11.62l-.9-.48A17.49,17.49,0,0,0,46.8,27.53Z"/><rect class="cls-3" x="13.97" y="14.42" width="37" height="6.16" rx="0.62" transform="translate(12.1 -13.25) rotate(28.15)"/><path class="cls-4" d="M47.11,28.05,15.57,11.17a.61.61,0,0,1-.25-.83L15,11a.61.61,0,0,0,.26.83L46.78,28.66a.62.62,0,0,0,.84-.26l.32-.6A.61.61,0,0,1,47.11,28.05Z"/><path class="cls-5" d="M22.4,5.68A15.37,15.37,0,0,1,40,3.94a1.09,1.09,0,0,1,.61.85,1,1,0,0,1-.5,1A1,1,0,0,1,39,5.71,13.49,13.49,0,0,0,23.7,7.2a1,1,0,0,1-1,.18,1,1,0,0,1-.61-.76A1.11,1.11,0,0,1,22.4,5.68Z"/><rect class="cls-1" x="14.49" y="100.02" width="3" height="50" transform="translate(60.88 7.25) rotate(28.15)"/><path class="cls-2" d="M24.81,105.36c.41.27.84.54,1.28.78s.91.44,1.36.64l1.66-3.1-2.65-1.41Z"/><circle class="cls-6" cx="35.34" cy="88.86" r="17.5"/><path class="cls-7" d="M19.91,80.61a15.73,15.73,0,0,0-1,2.23L49.45,99.17a16.68,16.68,0,0,0,1.32-2,18.09,18.09,0,0,0,1.4-3.48L22,77.51A17,17,0,0,0,19.91,80.61Z"/><path class="cls-7" d="M48.77,98.41A16.48,16.48,0,0,1,19.93,83L19,82.5A17.49,17.49,0,0,0,49.67,98.89Z"/><rect class="cls-6" x="16.84" y="85.78" width="37" height="6.16" rx="0.62" transform="translate(46.11 -6.16) rotate(28.15)"/><path class="cls-7" d="M50,99.41,18.44,82.53a.61.61,0,0,1-.25-.83l-.33.61a.61.61,0,0,0,.26.83L49.65,100a.62.62,0,0,0,.84-.26l.32-.6A.61.61,0,0,1,50,99.41Z"/><path class="cls-5" d="M25.27,77A15.37,15.37,0,0,1,42.83,75.3a1.09,1.09,0,0,1,.61.85,1,1,0,0,1-.5,1,1,1,0,0,1-1.08-.06,13.49,13.49,0,0,0-15.29,1.49,1,1,0,0,1-1,.18A1,1,0,0,1,25,78,1.11,1.11,0,0,1,25.27,77Z"/><rect class="cls-1" x="98.93" y="66.26" width="3" height="50" transform="translate(232.03 124.34) rotate(151.85)"/><path class="cls-2" d="M91.61,71.6c-.42.27-.84.54-1.29.78s-.9.44-1.36.64l-1.65-3.1L90,68.51Z"/><circle class="cls-8" cx="81.08" cy="55.1" r="17.5"/><path class="cls-9" d="M96.51,46.85a17,17,0,0,1,1,2.23L67,65.41a17.88,17.88,0,0,1-1.31-2,16.89,16.89,0,0,1-1.4-3.48L94.39,43.75A18.42,18.42,0,0,1,96.51,46.85Z"/><path class="cls-9" d="M67.64,64.66A16.49,16.49,0,0,0,96.48,49.22l.89-.47A17.49,17.49,0,0,1,66.75,65.13Z"/><rect class="cls-8" x="62.58" y="52.02" width="37" height="6.16" rx="0.62" transform="translate(178.56 65.43) rotate(151.85)"/><path class="cls-9" d="M66.44,65.65,98,48.77a.61.61,0,0,0,.26-.83l.32.61a.61.61,0,0,1-.25.83L66.76,66.26a.61.61,0,0,1-.83-.25l-.33-.61A.63.63,0,0,0,66.44,65.65Z"/><path class="cls-5" d="M91.15,43.28a15.39,15.39,0,0,0-17.57-1.74,1.11,1.11,0,0,0-.6.85,1,1,0,0,0,.5,1,1,1,0,0,0,1.08-.06A13.49,13.49,0,0,1,89.85,44.8a1,1,0,0,0,1,.18,1,1,0,0,0,.61-.76A1.09,1.09,0,0,0,91.15,43.28Z"/><rect class="cls-1" x="97.7" y="130.93" width="3" height="50" transform="translate(260.23 246.6) rotate(151.85)"/><path class="cls-2" d="M90.38,136.27c-.42.27-.84.54-1.29.77s-.9.45-1.36.65l-1.65-3.1,2.64-1.41Z"/><circle class="cls-10" cx="79.85" cy="119.77" r="17.5"/><path class="cls-11" d="M95.28,111.51a18.21,18.21,0,0,1,1,2.23L65.73,130.08A17.88,17.88,0,0,1,64.42,128a16.75,16.75,0,0,1-1.4-3.49l30.14-16.12A17.94,17.94,0,0,1,95.28,111.51Z"/><path class="cls-11" d="M66.41,129.32a16.48,16.48,0,0,0,28.84-15.43l.89-.48A17.49,17.49,0,0,1,65.52,129.8Z"/><rect class="cls-10" x="61.35" y="116.69" width="37" height="6.16" rx="0.62" transform="translate(206.76 187.7) rotate(151.85)"/><path class="cls-11" d="M65.21,130.32l31.53-16.88a.61.61,0,0,0,.26-.83l.32.61a.61.61,0,0,1-.25.83L65.54,130.93a.62.62,0,0,1-.84-.26l-.33-.6A.63.63,0,0,0,65.21,130.32Z"/><path class="cls-5" d="M89.92,108a15.39,15.39,0,0,0-17.57-1.74,1.09,1.09,0,0,0-.6.85,1,1,0,0,0,.5,1,1,1,0,0,0,1.08-.06,13.49,13.49,0,0,1,15.29,1.49,1,1,0,0,0,1,.18,1,1,0,0,0,.61-.76A1.09,1.09,0,0,0,89.92,108Z"/></g></g></svg>