<svg xmlns="http://www.w3.org/2000/svg" viewBox="0 0 192.5 137.08"><defs><style>.cls-1{fill:#04443e;}.cls-2{fill:#116d63;}.cls-3{fill:#30a195;}.cls-4{fill:#78d8cd;}</style></defs><g id="Layer_2" data-name="Layer 2"><g id="Layer_2-2" data-name="Layer 2"><path class="cls-1" d="M142.73,113.24c-3.89,1.43-10.67,1.53-12.64,1.46-7-.26-11.66-3.93-17.4-7.4-9.53-5.75-23.07-9.76-34.24-9.81-12.34-.07-20.14,9.27-31.09,13.23-11.91,4.3-25.08,1.19-37.49,2-1.54-2.7-1.3-6.62-1.54-9.56a34.93,34.93,0,0,1,.83-12.31,62.78,62.78,0,0,1,10.5-21.21C28.19,58.49,42.1,53,54.44,47.27c6.91-3.2,14.5-3.82,22-3a34.77,34.77,0,0,1,10.43,2.37c2.89,1.31,5,3.7,7.32,5.85C99,57.06,103.66,62,108.9,66.09a50.67,50.67,0,0,0,18,8.8c5.32,1.54,10.73,3,16,4.67,3.86,1.25,7.68,2.83,7.68,7.4A4.87,4.87,0,0,0,151,89c-.13.47-.25.94-.38,1.4C148.45,98.17,145.59,105.7,142.73,113.24Z"/><path class="cls-2" d="M14,113.12c16.89,3,34.34,5.88,51.46,6a5.35,5.35,0,0,1,2.08.43,10,10,0,0,1,19.78,2.07,9.89,9.89,0,0,1-.49,3,4.54,4.54,0,0,1,.51.09,3.94,3.94,0,0,1,.86-.38,5.28,5.28,0,0,1,.78-2,4.59,4.59,0,0,1,.33-.62,5.33,5.33,0,0,1,1.16-3.66,27.54,27.54,0,0,1,2.14-6.85c2.31-4.76,6.63-5.39,11.46-4.61,6,1,12,1.94,17.91,3.11a98.37,98.37,0,0,0,11.15,2c.57.05,1.15.08,1.74.1a4.14,4.14,0,0,1,3.42-1c8.65.84,17.28,1.87,25.86,3.21,3.88.61,7.65,1.39,11.47,2.26s7.37.49,11.34.36a4.58,4.58,0,0,1,3.13,1,4.33,4.33,0,0,1,1.77-1,20,20,0,0,1-1.28-33.2h-.12a4.58,4.58,0,0,1-3.74-1.71,6,6,0,0,1-4.28-.31c-4-1.81-8-3.07-11.39-6a5,5,0,0,1-1.33.3,2.85,2.85,0,0,1-.23.26l-1,.78a5,5,0,0,1-2.52.69h-1.17A5.53,5.53,0,0,1,161.22,76a5.66,5.66,0,0,1-1.46-3.21c-2.82-.26-5.49-2.63-4.5-6.15.59-2.06,1.1-4.13,1.59-6.2-.09-.15-.17-.29-.25-.45a34.82,34.82,0,0,0-6-9.11,4.47,4.47,0,0,1-1.05-1c-.4-.35-.81-.67-1.24-1a4.46,4.46,0,0,1-3.14-1.73A16.53,16.53,0,0,0,139.19,46,27,27,0,0,0,118,55.82c-2.24,2.72-5.35,1.82-7.06-.35a5.72,5.72,0,0,1-1.17-.81c-3.87-3.48-1.79-12.17-2-16.69-.12-2.93-1.51-4.42-4.37-6.56-5.77-1.56-11.72-3.7-17.69-3.39-5,.27-9.93,2.38-14.73,4.07a5,5,0,0,1-3.36,4.35c-4.35,1.62-8.56,3.48-12.95,5A17.67,17.67,0,0,0,44.9,48.6C44,50,43.1,51.48,42.24,53.06a4.7,4.7,0,0,1,.83,2.07c.22,1.32.76,1.75,1.57,1.85,4.56-3.2,14-4.82,24.55-3.79,14.6,1.41,26,7.28,25.41,13.12a4.47,4.47,0,0,1-.38,1.42,13,13,0,0,1,2.71,4.76A10,10,0,0,1,93,84.1a24.06,24.06,0,0,1-11.28,3.65,20,20,0,0,1-33.61-4.56c-2.94-1.07-6-1.68-9.1-2.5-8.25-2.23-16.51-4.14-22.68,3.3a5,5,0,0,1-1.39,1.18,28,28,0,0,0-4.28,12.49C10.15,103.34,12,108.22,14,113.12ZM128.29,94a10,10,0,1,1,10,10A10,10,0,0,1,128.29,94Zm-108,5a15,15,0,1,1,15,15A15,15,0,0,1,20.29,99Z"/><path class="cls-3" d="M7.31,66.32A7.51,7.51,0,0,1,0,73.81v41.5l69.3,7.84a10,10,0,1,1,16.82,1.9l60.35,6.82a7.91,7.91,0,0,1-.16-1.55,7.5,7.5,0,0,1,15,0,7.42,7.42,0,0,1-.71,3.15l31.9,3.61V114.64a15.65,15.65,0,0,1-2.19.18,15,15,0,0,1,0-30,14.27,14.27,0,0,1,2.19.18V70.74l-53-40.12c-15.83-2.18-27.2-8.18-27.2-15.25a7.45,7.45,0,0,1,1.43-4.25L99,0,90.38,4.29c1.73,1.2,2.74,2.59,2.74,4.08,0,4.53-9.18,8.2-20.5,8.2a50.57,50.57,0,0,1-6.29-.39L46.86,25.8c5,1.5,8.26,3.88,8.26,6.57,0,4.53-9.18,8.2-20.5,8.2a41.74,41.74,0,0,1-13.5-2L0,49v9.85A7.49,7.49,0,0,1,7.31,66.32Zm116,26.5a10,10,0,1,1,10,10A10,10,0,0,1,123.31,92.82Zm-1.4-37.39c0-3.18,6.44-5.75,14.38-5.75s14.37,2.57,14.37,5.75-6.43,5.75-14.37,5.75S121.91,58.6,121.91,55.43Zm-72.6,3.39a20,20,0,0,1,18.5-19.93c1.77-3.43,9.37-6,18.48-6,10.42,0,18.87,3.38,18.87,7.55,0,3.09-4.66,5.75-11.33,6.92a7.49,7.49,0,0,1-4.54,11.81,20,20,0,0,1-40-.34Zm-35,38a15,15,0,1,1,15,15A15,15,0,0,1,14.31,96.82Z"/><path class="cls-4" d="M89.55,59.1l103,11.64L136.26,28.17h-1.42c-14.66,0-26.55-4.75-26.55-10.62,0-2.42,2-4.65,5.44-6.44L99,0,87.84,5.54c2.4,1,3.89,2.3,3.89,3.78,0,3-6,5.37-13.44,5.37a29.36,29.36,0,0,1-7.24-.85L45.68,26.39c2.86,1.32,4.6,3,4.6,4.93,0,4.17-8.46,7.55-18.88,7.55a42.79,42.79,0,0,1-9.07-.93L0,49l50.21,5.67c1.92-3.73,10.18-6.53,20.08-6.53,11.32,0,20.5,3.67,20.5,8.2A4.16,4.16,0,0,1,89.55,59.1Zm35.74-7.61c0-3,6-5.37,13.44-5.37s13.43,2.4,13.43,5.37-6,5.38-13.43,5.38S125.29,54.46,125.29,51.49ZM89.66,38.64c-7.93,0-14.37-2.58-14.37-5.75s6.44-5.75,14.37-5.75S104,29.71,104,32.89,97.6,38.64,89.66,38.64Z"/></g></g></svg>