<svg xmlns="http://www.w3.org/2000/svg" viewBox="0 0 170.21 145.98"><defs><style>.cls-1{fill:#ffe6a6;}.cls-2{fill:#fff7e1;}.cls-3{fill:#f2d17c;}.cls-4{fill:#9c7309;}</style></defs><g id="Layer_2" data-name="Layer 2"><g id="Layer_2-2" data-name="Layer 2"><path class="cls-1" d="M60.22,60.22a10.44,10.44,0,0,0,5.34-3.48c2.63-3.35,2.83-8.34.56-12.75a8.12,8.12,0,0,1,5.53,0c3.11,1.22,5.69,4.79,4.8,7.38A3.8,3.8,0,0,1,75,53.21c1.64,4.29.2,8.81-3,10.7-2.8,1.69-6.31.89-8.48-.37A9.33,9.33,0,0,1,60.22,60.22Z"/><path class="cls-2" d="M60.22,60.23a3.41,3.41,0,0,1-2.58-1.85A3.24,3.24,0,0,1,58,55.06a3.07,3.07,0,0,1-1.84-1.47c-1.23-2.55,2.31-7.78,5.53-7.38a4.28,4.28,0,0,1,3,2.21A2.84,2.84,0,0,0,66.12,47c.44-1.22-.58-2.08-.13-2.9s2.56-1.08,4-.53a5.55,5.55,0,0,1,2.38,1.95c.82,1,2.5,3.09,1.85,5.17a3.52,3.52,0,0,1-1.48,1.84,7.93,7.93,0,0,1-1.84,9.59,7.4,7.4,0,0,1-7,1.11A7.53,7.53,0,0,1,60.22,60.23Z"/><path class="cls-3" d="M63.62,55.22a2.36,2.36,0,0,0-.77,2c.22.74,1.06.85,1,1.33S62.36,60,61,59.65s-2.16-1.84-1.85-2.59c.23-.53.89-.32,1.66-1.13.55-.59.35-.85.92-1.45s1.14-.54,1.48-1.11a2.05,2.05,0,0,0,0-1.84c-.6-1.25-2.18-1.16-2.21-1.84s1.26-1.41,1.84-1.11c.36.18.21.65.74,1.11a1.45,1.45,0,0,0,1.11.36,1.32,1.32,0,0,0,.73-.36,3.61,3.61,0,0,1,.37,3.68A3.66,3.66,0,0,1,63.62,55.22Z"/><path class="cls-1" d="M94.15,4.52c-1.72,1.15-6.36,4.6-7.79,10.66-.49,2.08-1.35,5.74.78,8.74s6.25,4.18,10.67,3.29c0,.32-.16,2.75,1.26,3.58.84.49,1.86.21,3-.24,4.47-1.69,7.38-2.76,8.86-6,.79-1.71,1.65-5.08.38-6-2.16-1.53-7.43,6-14.33,4.57a6.63,6.63,0,0,1-2.94-1.27C90.72,19.14,90.81,12.26,94.15,4.52Z"/><path class="cls-2" d="M94,4.64c-.44.33-6.74,5.23-5.89,12a9.52,9.52,0,0,0,3.09,6.13c3.52,3,8.14,2,8.67,1.83-.2,1.89.4,2.52.66,2.73.56.46,1.34.39,5-.66,2.61-.75,3.92-1.13,4.37-1.51,2.13-1.78,2.8-5.41,1.53-6.85-.51-.58-1-.4-2.06-1.09a6.91,6.91,0,0,1-2.48-3,6.51,6.51,0,0,0,3-2.12c2.26-3,.73-6.83.49-7.39s-2-4.81-5.2-4.63a5.1,5.1,0,0,0-3.55,2.26,4.48,4.48,0,0,0-5.51-1.2A4.55,4.55,0,0,0,94,4.64Z"/><path class="cls-3" d="M104.67,15.81a5.2,5.2,0,0,1-5.93-4.74,3.94,3.94,0,0,0-4.07-.31c-.14-.33-1.33-3.17.13-5.21a2.63,2.63,0,0,1,1.7-1.21c1.38-.17,2.85,1.33,3.27,2.79.34,1.15-.18,1.57.3,2.67A3.1,3.1,0,0,0,102,11.62a3,3,0,0,0,2.79-1c.52-.6.44-1.06,1-1.34a1.56,1.56,0,0,1,1.81.31c.55.75-.18,2.41-1.27,3.15-.73.49-1.26.33-1.64.85A2.52,2.52,0,0,0,104.67,15.81Z"/><path class="cls-1" d="M59.91,86.78a15.89,15.89,0,0,0-3.42-9.32c-2.92-3.56-8.56-6.93-12.75-5.08-2.28,1-4.63,3.77-3.93,5.85a3.7,3.7,0,0,0,2.26,2c-.21.87-.49,2.12-.8,3.65a33.37,33.37,0,0,0-.83,5c.08,4.66,6.4,9.82,9.51,8.51A3.63,3.63,0,0,0,51.84,95a13.2,13.2,0,0,0,8.07-8.24Z"/><path class="cls-2" d="M59.91,86.78a3.25,3.25,0,0,1-2.67,1.09c-2.39-.56-1.3-6-4.89-9.68a9.63,9.63,0,0,0-9-2.68c-1.32.36-3.6,1.4-3.52,2.72s2,1.94,2.26,2c-.79.94-3.51,4.43-2.89,8.76.92,6.37,8.53,10.9,11.22,9.42a3.44,3.44,0,0,0,1.38-2.61c.34.42,3.34,4,7,3.5,1.09-.16,2.36-1,4.9-2.77a5.58,5.58,0,0,0,2.16-2.23,3.91,3.91,0,0,0,.44-2.21c-.24-1.67-1.89-2.69-4.43-4.27C61,87.36,60.34,87,59.91,86.78Z"/><path class="cls-3" d="M43.53,81c-1.07,2.36-.56,4.39.39,4.8.71.31,1.79-.24,2.67-1.1a10.66,10.66,0,0,0,10.28,5,7.4,7.4,0,0,1-3.72,3.88c-1.18.49-2.6.34-5.45,0-3.09-.33-3.83-.86-4.26-1.42a3.14,3.14,0,0,1-.61-2A3.22,3.22,0,0,1,44,87.91a4.23,4.23,0,0,1-2.25-2.86A4.1,4.1,0,0,1,43.53,81Z"/><path class="cls-1" d="M99.15,68.09a3.76,3.76,0,0,1,1-3c2.12-1.87,7.61,0,13.72,4.83,1.77,1.32,1.94,2.12,1.85,2.58C115.53,73.57,113,74,108,74.73c-3.28.49-4.83.56-5.53-.37a2.15,2.15,0,0,1-.37-1.48,4.3,4.3,0,0,1-3-2.58A3.82,3.82,0,0,1,99.15,68.09Z"/><path class="cls-2" d="M99.15,68.09a11.38,11.38,0,0,1-5.53-5.16,10,10,0,0,1-1.11-4.8,7.4,7.4,0,0,1,.74-3.32c1.33-2.29,5.16-3.2,9.43-2.28a5.43,5.43,0,0,1-.2-3.62,5.74,5.74,0,0,1,2.78-3.15,9.68,9.68,0,0,1,8.39-.43C120,48,120.53,56.94,120.57,58c.07,1.5.32,7.37-3.71,10.49a8.8,8.8,0,0,1-3,1.48c1.27.92,2.09,2,1.85,2.58-.38.93-3.06.58-3.39.54-2.23-.3-2.43-1.18-4.74-1.69s-3.37.15-4-.69.13-1.85-.74-3.32c-.19-.34-.88-1.52-1.84-1.48S99.4,66.81,99.15,68.09Z"/><path class="cls-3" d="M113.26,68.62c1.32-2.26,1.17-4.32.36-4.8s-2.1.23-3.32,1.48a5.24,5.24,0,0,0-9.22-2.21c-.07-.48-.78-5.64,2.58-8.49,2-1.65,4.33-1.74,7.38-1.84,2.24-.08,3.61-.13,4.43.73,1.34,1.41.72,4.7-1.48,8.12a2.65,2.65,0,0,1,1.85,1.11C116.67,64.07,115.81,66.63,113.26,68.62Z"/><path class="cls-1" d="M91,119.59c2,3.57,2.26,6.69,1,7.72s-4.3-.46-4.75-.71a10.64,10.64,0,0,1-4.81-6.27c-.47-1.6-.45-3.76-.41-8.09,0-1.21,0-1.82,0-2,.22-1.22,1.47-4.71,12.63-7.2a8.28,8.28,0,0,1,2.4,3.71C98.33,110.86,95.91,116,91,119.59Z"/><path class="cls-2" d="M93.56,124.78a2.89,2.89,0,0,1-1.88,2.63,2.45,2.45,0,0,1-1.91-.55c-1.43-1-1.26-2.61-2.06-5.72-1-3.93-2-4.15-1.73-6.13a7.27,7.27,0,0,1,2.16-4.3c3-2.69,6.78-1.06,7.86-3,.37-.68.51-2-1.32-4.7a7,7,0,0,1,.95-2.36,7.23,7.23,0,0,1,3.29-2.7,8.19,8.19,0,0,1,11.72,7.91,8.94,8.94,0,0,1-3.08,6.24,5.32,5.32,0,0,1,3.13,1.54c2.15,2.38,1,6.83-.92,9.37-3.23,4.22-9.25,3.7-10.42,3.6A14.46,14.46,0,0,1,93.56,124.78Z"/><path class="cls-3" d="M96,119.34a11.62,11.62,0,0,0,3.22-12.19c1.43.38,4.8,1.51,6.39,4.55.5,1,.68,2.83,1,6.57.31,3.37.17,4-.3,4.48-1.43,1.35-4.94-.42-5.25-.58a4,4,0,0,1-1.61,2.38,4.73,4.73,0,0,1-5.65-.91,8.39,8.39,0,0,0,3.26-.7c.83-.36,1.65-.71,1.73-1.29C99,120.91,97.8,120,96,119.34Z"/><path class="cls-1" d="M151,132.36a10.46,10.46,0,0,0-5.21-3.66c-4.1-1.2-8.8.47-12.05,4.22a8.09,8.09,0,0,1-2.06-5.14c0-3.33,2.33-7.06,5.06-7.19a3.79,3.79,0,0,1,2.26.68c3.37-3.11,8.11-3.46,11-1.24,2.61,2,3.18,5.53,2.82,8A9.33,9.33,0,0,1,151,132.36Z"/><path class="cls-2" d="M151,132.36a3.42,3.42,0,0,1-.75,3.08,3.24,3.24,0,0,1-3.22.89,3.07,3.07,0,0,1-.68,2.26c-1.91,2.09-8.09.75-8.91-2.39a4.26,4.26,0,0,1,.95-3.56,2.82,2.82,0,0,0-1.91-.82c-1.3,0-1.71,1.31-2.65,1.2s-1.95-2-2-3.54a5.53,5.53,0,0,1,.92-2.93c.63-1.14,1.94-3.47,4.11-3.64a3.55,3.55,0,0,1,2.26.69,7.92,7.92,0,0,1,9.59-1.86,7.38,7.38,0,0,1,3.64,6.09A7.59,7.59,0,0,1,151,132.36Z"/><path class="cls-3" d="M145,131.06a2.41,2.41,0,0,0,2.16,0c.6-.48.39-1.3.84-1.47s1.94.89,2.07,2.25-.9,2.69-1.71,2.68c-.57,0-.62-.71-1.67-1.12-.75-.29-.91,0-1.68-.32s-.93-.86-1.58-1a2,2,0,0,0-1.71.69c-.94,1-.27,2.45-.89,2.74s-1.78-.65-1.71-1.3c0-.4.53-.43.75-1.1a1.44,1.44,0,0,0-.07-1.16,1.34,1.34,0,0,0-.62-.55,3.65,3.65,0,0,1,3.29-1.72A3.69,3.69,0,0,1,145,131.06Z"/><path class="cls-1" d="M30,19.74a15.85,15.85,0,0,0,5,8.58c3.49,3,9.64,5.32,13.45,2.76,2.06-1.39,3.89-4.53,2.84-6.45A3.79,3.79,0,0,0,48.67,23c0-.88.12-2.17.15-3.72a34.46,34.46,0,0,0,0-5.05c-.91-4.57-8-8.54-10.87-6.71a3.66,3.66,0,0,0-1.43,2.67A13.15,13.15,0,0,0,30,19.74Z"/><path class="cls-2" d="M30,19.74A3.24,3.24,0,0,1,32.4,18.2c2.45.13,2.32,5.63,6.52,8.67a9.61,9.61,0,0,0,9.34,1.06c1.24-.59,3.31-2,3-3.3S48.93,23.07,48.67,23c.61-1.06,2.68-5,1.31-9.12-2-6.11-10.31-9.24-12.7-7.31a3.45,3.45,0,0,0-.9,2.81c-.41-.35-4-3.35-7.46-2.22-1.05.34-2.15,1.42-4.35,3.58a5.71,5.71,0,0,0-1.73,2.58,3.82,3.82,0,0,0,0,2.25c.52,1.6,2.33,2.32,5.11,3.43C28.78,19.36,29.5,19.6,30,19.74Z"/><path class="cls-3" d="M47.11,22.59c.64-2.51-.22-4.41-1.22-4.65-.76-.18-1.73.55-2.44,1.54a10.7,10.7,0,0,0-11-3.13,7.37,7.37,0,0,1,3-4.47c1.08-.69,2.5-.79,5.36-1,3.1-.22,3.92.18,4.44.65a3.14,3.14,0,0,1,1,1.85,3.26,3.26,0,0,1-.78,2.46,4.26,4.26,0,0,1,2.71,2.42A4.12,4.12,0,0,1,47.11,22.59Z"/><path class="cls-1" d="M158.5,71.75A18.25,18.25,0,0,0,145.36,73c-1.88,1-5.19,2.8-6,6.37s1,7.46,4.62,10.17c-.26.2-2.16,1.71-1.84,3.32.19,1,1.07,1.53,2.19,2.12,4.23,2.22,7,3.69,10.36,2.66,1.81-.55,4.9-2.14,4.73-3.7-.28-2.63-9.43-1.56-12.93-7.69a6.73,6.73,0,0,1-1-3C145.29,78.88,150.5,74.39,158.5,71.75Z"/><path class="cls-2" d="M158.31,71.71c-.54-.11-8.39-1.58-12.86,3.54a9.54,9.54,0,0,0-2.54,6.37c.08,4.65,3.93,7.39,4.38,7.7-1.54,1.11-1.62,2-1.6,2.31,0,.73.6,1.26,3.79,3.29,2.29,1.45,3.45,2.18,4,2.26,2.75.41,5.9-1.5,6.14-3.4.1-.77-.36-1-.55-2.27a6.87,6.87,0,0,1,.63-3.87,6.44,6.44,0,0,0,3.56.82c3.72-.27,5.59-4,5.86-4.53s2.28-4.69,0-7a5.12,5.12,0,0,0-4-1.15,4.48,4.48,0,0,0-2.75-4.93A4.58,4.58,0,0,0,158.31,71.71Z"/><path class="cls-3" d="M157,87.11a5.27,5.27,0,0,1-1.84-3.63,5.39,5.39,0,0,1,1.45-4,4,4,0,0,0-.86-2.07,4,4,0,0,0-1.6-1.18c.15-.33,1.48-3.1,4-3.36a2.65,2.65,0,0,1,2,.47c1,.92.89,3,.08,4.3-.64,1-1.3.9-1.8,2a3.08,3.08,0,0,0-.08,2.66A3,3,0,0,0,161,83.75c.79,0,1.08-.37,1.64-.15a1.56,1.56,0,0,1,1,1.56c-.2.9-1.93,1.46-3.21,1.13-.85-.21-1.08-.71-1.72-.66S157.4,86.47,157,87.11Z"/><path class="cls-1" d="M63.36,136a3.72,3.72,0,0,1-3.16,0c-2.45-1.39-2.49-7.19.09-14.55.67-2.1,1.38-2.52,1.84-2.58,1.07-.13,2.27,2.11,4.62,6.6,1.54,2.94,2.1,4.38,1.46,5.35a2.17,2.17,0,0,1-1.28.83,4.26,4.26,0,0,1-1.48,3.63A3.78,3.78,0,0,1,63.36,136Z"/><path class="cls-2" d="M63.37,136a11.42,11.42,0,0,1-3.08,6.92,9.86,9.86,0,0,1-4.17,2.61,7.51,7.51,0,0,1-3.38.39c-2.6-.51-4.71-3.84-5.24-8.17a5.37,5.37,0,0,1-3.35,1.37,5.74,5.74,0,0,1-3.88-1.6,9.68,9.68,0,0,1-3.15-7.8c.44-6.88,8.74-10.28,9.69-10.66,1.4-.55,6.86-2.7,11.13.08a8.79,8.79,0,0,1,2.36,2.31c.46-1.5,1.17-2.62,1.84-2.58,1,0,1.54,2.7,1.61,3,.45,2.21-.33,2.68,0,5s1.24,3.13.67,4.06-1.79.48-2.9,1.78c-.26.29-1.15,1.33-.8,2.22A2.44,2.44,0,0,0,63.37,136Z"/><path class="cls-3" d="M59.27,122.49c-2.58-.51-4.47.31-4.66,1.22s.9,1.92,2.48,2.66a5.25,5.25,0,0,0,.92,9.44c-.43.22-5.07,2.57-8.87.32-2.2-1.3-3-3.52-4.15-6.37-.81-2.09-1.29-3.37-.75-4.43.9-1.72,4.21-2.21,8.16-1.25a2.64,2.64,0,0,1,.44-2.1C53.85,120.75,56.55,120.72,59.27,122.49Z"/><path class="cls-1" d="M22,50.93c-1.81-3.66-1.95-6.79-.63-7.76s4.27.66,4.71.93a10.71,10.71,0,0,1,4.52,6.48c.39,1.62.28,3.78,0,8.1a19.08,19.08,0,0,1-.15,2c-.27,1.21-1.68,4.63-12.94,6.61a8.3,8.3,0,0,1-2.22-3.81C14.3,59.31,17,54.28,22,50.93Z"/><path class="cls-2" d="M19.7,45.63a2.94,2.94,0,0,1,2-2.55,2.48,2.48,0,0,1,1.88.64c1.38,1.11,1.14,2.67,1.79,5.81.83,4,1.77,4.24,1.45,6.21a7.22,7.22,0,0,1-2.36,4.19c-3.06,2.55-6.82.75-8,2.65-.41.66-.6,2,1.1,4.75a6.85,6.85,0,0,1-1.06,2.31,7.37,7.37,0,0,1-3.4,2.56A8.62,8.62,0,0,1,6.29,72a8.52,8.52,0,0,1-4.52-8.25,9,9,0,0,1,3.37-6.09,5.32,5.32,0,0,1-3-1.68c-2-2.48-.72-6.87,1.34-9.31C6.85,42.6,12.84,43.39,14,43.55A14.14,14.14,0,0,1,19.7,45.63Z"/><path class="cls-3" d="M17,50.94a11.63,11.63,0,0,0-3.78,12C11.8,62.53,8.49,61.25,7,58.14c-.46-1-.55-2.86-.73-6.61-.17-3.38,0-4.05.49-4.46,1.5-1.29,4.92.65,5.22.82a4,4,0,0,1,1.72-2.31,4.74,4.74,0,0,1,5.61,1.17,8.73,8.73,0,0,0-3.3.55c-.84.32-1.67.64-1.78,1.21C14.13,49.24,15.25,50.22,17,50.94Z"/><path class="cls-4" d="M46.59,84.7a10.71,10.71,0,0,0,10.29,5,3.45,3.45,0,0,1-1.69,1.61c-1.06.41-2.09,0-4.11-.92S48,89.06,47.34,88A5.23,5.23,0,0,1,46.59,84.7Z"/><path class="cls-4" d="M110.31,65.3a5.25,5.25,0,0,0-9.22-2.22c0-.1-.52-2.27.73-3.32.78-.64,1.79-.51,3-.37a6.29,6.29,0,0,1,3.68,1.48A6.07,6.07,0,0,1,110.31,65.3Z"/><path class="cls-4" d="M96,119.35a11.6,11.6,0,0,0,3.23-12.19,3.26,3.26,0,0,1,2,.92c1.22,1.31.63,3.54-.11,6.31-.61,2.28-1,3.5-2.17,4.3A4.68,4.68,0,0,1,96,119.35Z"/><path class="cls-4" d="M43.44,19.45a10.7,10.7,0,0,0-11-3.13,3.38,3.38,0,0,1,1.38-1.89c1-.59,2.06-.34,4.2.19s3.25.79,4.1,1.7A5.21,5.21,0,0,1,43.44,19.45Z"/><path class="cls-4" d="M57.09,126.36A5.24,5.24,0,0,0,58,135.8c-.09.06-2,1.23-3.38.39-.86-.52-1.07-1.52-1.31-2.67a6.34,6.34,0,0,1,.19-4A6.08,6.08,0,0,1,57.09,126.36Z"/><path class="cls-4" d="M17.05,50.94a11.58,11.58,0,0,0-3.78,12,3.25,3.25,0,0,1-1.91-1c-1.16-1.38-.46-3.58.4-6.31.71-2.25,1.11-3.45,2.36-4.19A4.64,4.64,0,0,1,17.05,50.94Z"/><path class="cls-1" d="M13.71,114.91a10.39,10.39,0,0,0-1.53-6.18C9.88,105.13,5.24,103.3.32,104a8.16,8.16,0,0,1,1.82-5.23c2.18-2.53,6.4-3.8,8.55-2.1a3.89,3.89,0,0,1,1.26,2c4.58-.14,8.38,2.71,9.13,6.31.67,3.2-1.24,6.25-3.14,7.89A9.47,9.47,0,0,1,13.71,114.91Z"/><path class="cls-2" d="M13.72,114.91a3.43,3.43,0,0,1-2.59,1.84,3.26,3.26,0,0,1-3-1.45,3.05,3.05,0,0,1-2,1.26c-2.81.32-6.58-4.74-5.14-7.65.15-.32.81-1.51,3.06-2.06A2.88,2.88,0,0,0,3.12,105c-1-.82-2.15-.13-2.79-.83s-.16-2.78.84-4a5.48,5.48,0,0,1,2.62-1.61c1.22-.44,3.73-1.34,5.48,0a3.47,3.47,0,0,1,1.26,2,7.93,7.93,0,0,1,8.45,4.9,7.39,7.39,0,0,1-1.26,7A7.47,7.47,0,0,1,13.72,114.91Z"/><path class="cls-3" d="M10.11,110.05c.36.62.92,1.36,1.65,1.39s1.15-.72,1.59-.55c.59.23.88,1.94.09,3.06s-2.45,1.43-3,.89c-.43-.39,0-1-.53-1.94-.37-.71-.68-.61-1.06-1.35s-.13-1.25-.56-1.76a2,2,0,0,0-1.74-.6c-1.38.15-1.81,1.67-2.47,1.48s-.91-1.66-.44-2.1c.3-.28.69,0,1.29-.34a1.41,1.41,0,0,0,.71-.92,1.35,1.35,0,0,0-.1-.82,3.63,3.63,0,0,1,3.6.87A3.65,3.65,0,0,1,10.11,110.05Z"/></g></g></svg>