<svg xmlns="http://www.w3.org/2000/svg" viewBox="0 0 113.32 135.87"><defs><style>.cls-1{fill:#efefef;}.cls-2{fill:#f5f5f5;}.cls-3{fill:#ffcc4c;}.cls-4{fill:#ffd56b;}</style></defs><g id="Layer_2" data-name="Layer 2"><g id="Layer_2-2" data-name="Layer 2"><path class="cls-1" d="M104.82,58.68l0,0h0c11.41-30.65,10.5-50.95,1.94-56.85a0,0,0,0,0,0,0l-.3-.18-.09-.06C96.85-4.56,78.62,7,59.68,37.76l0,0a19.57,19.57,0,0,0-1,1.75,25,25,0,0,0,44.87,22A26.51,26.51,0,0,0,104.82,58.68Z"/><path class="cls-2" d="M102.93,56.91a.08.08,0,0,0,0,0h0C113.76,28.27,113.24,9.4,105.56,4c0,0,0,0,0,0s-.18-.11-.27-.17l-.09-.05C96.63-1.8,79.92,9.2,62.28,38.13h0c-.31.53-.61,1.08-.89,1.64-5.68,11.56-1.24,25.38,9.91,30.86s24.8.55,30.48-11A24.43,24.43,0,0,0,102.93,56.91Z"/><circle class="cls-3" cx="81.46" cy="49.99" r="17.5"/><circle class="cls-4" cx="81.46" cy="49.99" r="15"/><path class="cls-1" d="M8.5,119.09l0,0h0C-2.95,88.49-2,68.18,6.52,62.28v0l.31-.19L6.91,62c9.56-6.16,27.79,5.38,46.73,36.17h0c.34.57.66,1.15,1,1.75A25,25,0,1,1,8.5,119.09Z"/><path class="cls-2" d="M10.39,117.32s0,0,0,0h0C-.45,88.69.08,69.81,7.76,64.45c0,0,0,0,0,0L8,64.26l.08-.05C16.69,58.62,33.4,69.62,51,98.54h0c.32.53.62,1.08.9,1.64,5.68,11.57,1.24,25.38-9.91,30.86s-24.8.55-30.48-11A23.66,23.66,0,0,1,10.39,117.32Z"/><circle class="cls-3" cx="31.86" cy="110.41" r="17.5"/><circle class="cls-4" cx="31.86" cy="110.41" r="15"/></g></g></svg>