<svg xmlns="http://www.w3.org/2000/svg" viewBox="0 0 263.86 329.72"><defs><style>.cls-1{fill:#d69c9a;}.cls-2{fill:#1a1a1a;}.cls-3{fill:#ccc;}.cls-4{fill:#f0afad;}.cls-5{fill:#333;}.cls-6{fill:#3c3c3c;}.cls-7{fill:#fff;}.cls-8{fill:#cf9795;}</style></defs><g id="Layer_2" data-name="Layer 2"><g id="Layer_2-2" data-name="Layer 2"><path class="cls-1" d="M48.53,50.72a7.48,7.48,0,0,0-5.88,0c-.6.25-4,1.68-4.11,4.48a4.68,4.68,0,0,0,1.65,3.35A9.12,9.12,0,0,1,41.4,57a3.82,3.82,0,0,1,1.94-1.36,3.13,3.13,0,0,1,2.12.41,3.92,3.92,0,0,1,1.34,1.14l-3.2.72a16.46,16.46,0,0,0,7.73,3.27l3.37-4.63c-.52-.42-1.27-1-2.14-1.85C50,52.25,49.87,51.42,48.53,50.72Z"/><path class="cls-2" d="M103.63,57.53c-8.29,4.64-17.9,5.41-22.52,5.78A38.6,38.6,0,0,1,63.28,61.2a36,36,0,0,1-9.94-5.83q-2.45,2.55-4.87,5.12c2.67,2.06,6.4,5,10.7,8.77,6.91,6,10.41,9.13,12.18,12.63a22.44,22.44,0,0,1,2.07,12.22l.9-.11a181.72,181.72,0,0,0,26.6-25.13A76.11,76.11,0,0,1,103.63,57.53Z"/><path class="cls-2" d="M142.72,166.93a177,177,0,0,0,4.55-39.73h.08a56.62,56.62,0,0,0-6.06-24.13C135.33,91.51,128,81.92,123,73.74c-18,13-35.49,26.74-53,40.57a35.26,35.26,0,0,1,2.59,6.93c-41.8-6.67-62.54,48.52-55.85,67.51,12.74,36.18,71,43.46,77.89,42.93s10.16-7.87,10.16-7.87,6.79-1.5,15.32-2.61a2,2,0,0,1,.32-.5s0-.08,0-.13A177.52,177.52,0,0,0,142.72,166.93Z"/><path class="cls-1" d="M66.23,200.78s8,21.47,1.25,21.81-16.76-3.92-44.59-10.28C16.73,210.9,11.51,210,7.73,209.4c-4.24,0-7.46-.78-7.71-2.13s2.81-3.31,5.06-4.14a14.33,14.33,0,0,1,7-.57c2.4.29,3.05.84,11.23,2.95h0c3.52.9,6,1.77,9.82,2.82,9.76,2.63,27.46,9,25.73,3.5-.8-2.55-5.09-10.43-5.09-10.43Z"/><path class="cls-3" d="M178.12,36c-2.87-.51-7.16-1.21-12.38-1.81-7.25-.84-64.85-7.06-97.89,11.48C19.05,73.07-6.09,171.24,40.4,221.59c28.07,30.39,71,31.16,83.48,30.95,32-60.74,52.71-123.62,69-188.59C187.51,54.83,181.2,46.07,178.12,36Z"/><path class="cls-4" d="M88.34,133.31a7.42,7.42,0,0,0-4.09,4.23c-.24.61-1.61,4.08.37,6.06a4.71,4.71,0,0,0,3.55,1.15,9,9,0,0,1-.27-1.95,3.9,3.9,0,0,1,.36-2.35A3.21,3.21,0,0,1,90,139.21a3.87,3.87,0,0,1,1.75-.17l-1.7,2.8a16.51,16.51,0,0,0,7.72-3.29l-1-5.65c-.65.09-1.63.2-2.81.26C90.43,133.34,89.76,132.83,88.34,133.31Z"/><path class="cls-3" d="M208.33,178.34a176.94,176.94,0,0,0-5.5-39.6l.08,0A56.58,56.58,0,0,0,191,116.85c-10.3-11.54-21.76-19.91-28.63-27.56-5.17-5.75-11.2-15.12-14-30.73-10.52,2.66-18.25,1.78-23.42.43s-10.6-4-12.21-1.93c-1.22,1.56.26,4.77,1,6.31a137.29,137.29,0,0,1,8.32,25.5c2.55,11.94-4.75,14.75-5.47,31.72a63.68,63.68,0,0,0,3.37,23l.11,8.27c-24.81,26.52-35.3,57.51-25.79,77.75a48.86,48.86,0,0,0,14.45,17.54c9.58,6.69,19.42,7.28,34.8,8A160.52,160.52,0,0,0,178,253l7.88-10.15s6.19-3.15,14.18-6.35a2.25,2.25,0,0,1,.19-.57.5.5,0,0,1,0-.12A177.5,177.5,0,0,0,208.33,178.34Z"/><path class="cls-4" d="M139.66,236.13s13.11,18.79,6.66,20.81-17.21.39-45.75,1.18c-6.31.17-11.59.59-15.4,1-4.11,1.06-7.42,1.1-8-.14s1.9-3.91,3.87-5.28a14.32,14.32,0,0,1,6.65-2.3c2.4-.32,3.16,0,11.61,0h0c3.63,0,6.2.23,10.22.28,10.1.12,28.84,1.89,25.78-3-1.41-2.27-7.53-8.83-7.53-8.83Z"/><path class="cls-4" d="M190.29,251.65A15.27,15.27,0,0,1,201,254.08c6,4.34,7.06,13,4.68,18.76-2.76,6.72-10,9.25-13.1,10.29-17.93,6-32.85-6.29-52.2-12-37-10.86-82.89,4.49-99.54,30.68-7.94,12.5-8.38,27.84-8.23,27.88A71.08,71.08,0,0,1,41.76,309a76.12,76.12,0,0,1,7.11-9c7.39-7.88,35.91-28.57,72.41-24.32,31.92,3.71,40.07,23.08,70.1,19.68,13.4-1.52,19.55-6.37,22.7-9.77,9.11-9.81,7.95-23.35,7.7-26.3-2.1-24.57-28.21-37.14-30-38Z"/><path class="cls-5" d="M220.31,178.34a177.46,177.46,0,0,0-5.51-39.6l.08,0A56.58,56.58,0,0,0,203,116.85c-10.3-11.54-21.76-19.91-28.63-27.56-5.17-5.75-11.2-15.12-14-30.73-10.52,2.66-18.25,1.78-23.42.43s-10.6-4-12.21-1.93c-.72.91-.92,2.54,1,6.31a98.32,98.32,0,0,1,6.52,24.07c1.82,14-8.22,26.25-12.27,31.18A38.5,38.5,0,0,1,106.07,130,36.3,36.3,0,0,1,95,133.1c.1,2.35.21,4.71.31,7.06,3.33-.5,8-1.12,13.74-1.61,9.14-.79,13.79-1.16,17.54,0,2.74.84,9.09,3.48,14.48,13-42.15,4-48.45,62.58-37.24,79.3,21.37,31.86,79.56,24.38,86.14,22.13s7.88-10.15,7.88-10.15,6.19-3.15,14.18-6.35a2.25,2.25,0,0,1,.19-.57.5.5,0,0,1,0-.12A177.74,177.74,0,0,0,220.31,178.34Z"/><path class="cls-5" d="M216.05,42.32c-25.35-12.55-55.07-12.41-84-6.18-1,7.9,2.44,14.65,5.93,21.76a65.58,65.58,0,0,1,7,24.67c.62,7.9,1,15.67,1.6,23.38a4.86,4.86,0,0,1,3.78,3.65c2.52,9.37,8.1,18.76,7,28.75a14.62,14.62,0,0,1-2,6,5.82,5.82,0,0,1,.24,7.79c-4.94,5.77-12.31,7.69-19.34,9.62s-12.73,4-13.12,12.14a5.34,5.34,0,0,1-5.82,5.11q-.16,25.86.83,51.79c19.76,8,38.63,18.67,59.44,23.36C310.9,213.19,261.33,64.72,216.05,42.32Z"/><path class="cls-2" d="M123.21,19.15c2.75,5.31,8.08,7.46,10.11,8.16l12.93-4.7a36.39,36.39,0,0,1-5.31-10.47c-1.5-4.81-1.52-8.58-4.7-10.85-.58-.4-2.27-1.61-4.1-1.21-2.15.47-2.28,2.65-5.39,6.64-2.89,3.72-4.34,3.84-4.88,6.18C121.29,15.45,122.47,17.71,123.21,19.15Z"/><path class="cls-5" d="M174.29,50.39c-7,13.71-31.93,11.39-37.67,10.86C133.59,61,127,59,113.9,55c-11.54-3.51-20.39-6.7-22.55-13a8.8,8.8,0,0,1-.49-2.89C91,33.4,97.05,29.41,100,27.48c24.19-15.84,52.12-8.72,52.12-8.72,8.25,2.1,16,4.22,20.6,11.64C176,35.84,177.57,44,174.29,50.39Z"/><path class="cls-5" d="M120.37,42.59c-1.82,6.1,17.31,22.47-20.19,4.11-9.43-4.61-15.59-7.25-12.91-18.77.64-8.29,10.76-3.49,20.62-5.52C169,9.83,123.93,30.7,120.37,42.59Z"/><path class="cls-6" d="M105.24,33.82a10.17,10.17,0,0,1-1.26,3.3c-.33.52-1.34,2-4.51,3.59-3.39,1.68-5.66,2.81-8,2.1-4.29-1.3-6.89-8.2-4.92-12.63a10.46,10.46,0,0,1,5-5l.42-.17a10.09,10.09,0,0,1,6-.2,9.29,9.29,0,0,1,4.58,1.88,7.23,7.23,0,0,1,2.86,4.71A7.92,7.92,0,0,1,105.24,33.82Z"/><path class="cls-4" d="M132,31.35a6.48,6.48,0,0,1,5.56-5.14c4.74-.54,6.43,5,6.43,5s-1.26,5.47-5.94,5.43C132.7,36.58,132,31.35,132,31.35Z"/><circle cx="138.59" cy="31.41" r="5.68" transform="translate(60.83 150.35) rotate(-69.6)"/><path class="cls-7" d="M142.49,30.6a.81.81,0,0,1-.91.71.84.84,0,0,1-.72-.92.82.82,0,0,1,1.63.21Z"/><path class="cls-7" d="M140.17,28.82a1.47,1.47,0,1,1-1.27-1.64A1.47,1.47,0,0,1,140.17,28.82Z"/><path class="cls-8" d="M92.12,25.8a4,4,0,0,1-.65.88c-.42.39-.67.35-1.36.68a8.56,8.56,0,0,0-1.74,1.19c-.89.7-.94.91-1.15.87-.68-.13-1-2.45-.54-4.36a3.36,3.36,0,0,1,1-2,2.82,2.82,0,0,1,2.15-.51c1.33.11,3,.92,3,1.88C92.78,24.71,92.56,25.07,92.12,25.8Z"/><path class="cls-5" d="M175.86,40.24a16.18,16.18,0,0,1-5.39-.06c-3.89-4.62-7-8.37-9-10.87a4.19,4.19,0,0,1-1.09-2.47c0-.41,0-2.24,3.22-4.63,3.4-2.54,4.81-1.57,8.83-3.62,4.7-2.41,5.64-5.22,8.22-4.75,1.58.29,2.54,1.57,3.58,2.95a15.17,15.17,0,0,1,2.67,9.07c.1,3.35.22,6.37-1.78,9.27C182.26,39.21,177.36,40,175.86,40.24Z"/><path class="cls-4" d="M175.35,40.26a14,14,0,0,1-4.66,0c-3.36-4-6-7.22-7.8-9.39a3.59,3.59,0,0,1-.95-2.13c0-.35,0-1.93,2.78-4,2.93-2.19,4.16-1.34,7.62-3.12,4.06-2.08,4.87-4.51,7.11-4.1,1.35.25,2.18,1.35,3.08,2.55a13,13,0,0,1,2.31,7.83c.09,2.89.19,5.5-1.54,8C180.87,39.37,176.64,40.05,175.35,40.26Z"/><circle class="cls-5" cx="137.25" cy="38.66" r="10"/></g></g></svg>