<svg xmlns="http://www.w3.org/2000/svg" viewBox="0 0 227.11 324.93"><defs><style>.cls-1{fill:#1a1a1a;}.cls-2{fill:#d69c9a;}.cls-3{fill:#ccc;}.cls-4{fill:#f0afad;}.cls-5{fill:#333;}.cls-6{fill:#3c3c3c;}.cls-7{fill:#fff;}.cls-8{fill:#cf9795;}</style></defs><g id="Layer_2" data-name="Layer 2"><g id="Layer_2-2" data-name="Layer 2"><path class="cls-1" d="M136.94,160.78a177.21,177.21,0,0,0-2.27-39.92l.08,0a56.67,56.67,0,0,0-10.08-22.76c-7.84-10.36-16.68-18.57-23-25.78-15.52,15.83-30.42,32.39-45.3,49a35.59,35.59,0,0,1,3.74,6.39c-42.33.53-53.38,58.44-43.56,76,18.7,33.49,77.31,30.77,84.05,29.06s8.68-9.47,8.68-9.47,6.43-2.64,14.65-5.18a2.21,2.21,0,0,1,.23-.55.53.53,0,0,1,0-.13A177.64,177.64,0,0,0,136.94,160.78Z"/><path class="cls-2" d="M66.3,213.42s7.73,21.57,1,21.82-16.7-4.14-44.45-10.86c-6.14-1.48-11.35-2.46-15.12-3.1-4.24-.05-7.45-.88-7.69-2.23s2.86-3.28,5.12-4.08a14.4,14.4,0,0,1,7-.48c2.39.33,3,.88,11.18,3.1h0c3.52.94,5.93,1.84,9.79,2.94,9.72,2.77,27.34,9.39,25.68,3.84-.76-2.56-5-10.49-5-10.49Z"/><path class="cls-2" d="M35.13,59.64a7.43,7.43,0,0,0-5.88-.17c-.61.23-4.09,1.57-4.22,4.36a4.72,4.72,0,0,0,1.55,3.4,9,9,0,0,1,1.25-1.52,3.92,3.92,0,0,1,2-1.31,3.15,3.15,0,0,1,2.11.47A3.88,3.88,0,0,1,33.23,66L30,66.68a16.56,16.56,0,0,0,3.92,2.37,16,16,0,0,0,3.72,1.1l3.5-4.54c-.51-.43-1.25-1.07-2.09-1.91C36.52,61.2,36.45,60.36,35.13,59.64Z"/><path class="cls-1" d="M90,67.91c-8.41,4.42-18,4.93-22.67,5.17A38.38,38.38,0,0,1,49.6,70.5a35.89,35.89,0,0,1-9.79-6.1l-5,5c2.62,2.13,6.26,5.19,10.46,9,6.75,6.22,10.16,9.4,11.84,13a22.38,22.38,0,0,1,1.75,12.27l.9-.09A180.94,180.94,0,0,0,87,79.17,76.52,76.52,0,0,1,90,67.91Z"/><path class="cls-3" d="M159,55c-2.59-.46-6.47-1.09-11.19-1.63-6.56-.76-58.65-6.39-88.54,10.38C15.11,88.47-7.63,177.25,34.42,222.79c25.39,27.49,64.2,28.19,75.5,28,28.92-54.93,47.67-111.8,62.44-170.57C167.47,72,161.76,64.05,159,55Z"/><path class="cls-4" d="M73.57,128.52a7.49,7.49,0,0,0-4.09,4.23c-.24.61-1.6,4.08.38,6.06A4.71,4.71,0,0,0,73.41,140a9.55,9.55,0,0,1-.28-2,3.89,3.89,0,0,1,.37-2.35,3.21,3.21,0,0,1,1.77-1.24,3.86,3.86,0,0,1,1.75-.17l-1.7,2.8A16.41,16.41,0,0,0,83,133.76l-1-5.65c-.66.09-1.63.2-2.82.26C75.67,128.55,75,128,73.57,128.52Z"/><path class="cls-3" d="M193.57,173.55a176.94,176.94,0,0,0-5.5-39.6l.08,0a56.77,56.77,0,0,0-11.9-21.87c-10.3-11.53-21.76-19.9-28.64-27.55-5.16-5.75-11.19-15.13-14-30.73-10.53,2.66-18.25,1.78-23.42.43s-10.6-4-12.21-1.93c-1.23,1.56.26,4.77,1,6.31a137.29,137.29,0,0,1,8.32,25.5c2.55,11.94-4.75,14.75-5.47,31.71a63.7,63.7,0,0,0,3.37,23l.11,8.27C80.51,173.6,70,204.59,79.53,224.83A48.86,48.86,0,0,0,94,242.37c9.58,6.69,19.42,7.28,34.8,8a160.56,160.56,0,0,0,34.43-2.13l7.88-10.15s6.19-3.15,14.18-6.35a2.25,2.25,0,0,1,.19-.57.5.5,0,0,1,0-.12A177.78,177.78,0,0,0,193.57,173.55Z"/><path class="cls-4" d="M124.9,231.34s13.11,18.79,6.66,20.81-17.21.39-45.75,1.18c-6.31.17-11.6.59-15.41,1-4.1,1.06-7.41,1.1-8-.14s1.89-3.91,3.87-5.28a14.32,14.32,0,0,1,6.65-2.3c2.4-.32,3.16,0,11.61,0h0c3.63,0,6.2.23,10.22.28,10.1.12,28.83,1.89,25.78-3-1.41-2.27-7.53-8.83-7.53-8.83Z"/><path class="cls-4" d="M175.52,246.86a15.28,15.28,0,0,1,10.7,2.43c6,4.34,7.05,13,4.68,18.76-2.76,6.72-10,9.25-13.1,10.29-17.93,6-32.85-6.29-52.2-12-37-10.86-82.89,4.49-99.54,30.68-7.95,12.5-8.38,27.84-8.23,27.88A71.08,71.08,0,0,1,27,304.16a74.9,74.9,0,0,1,7.11-9c7.39-7.88,35.91-28.57,72.41-24.32,31.91,3.71,40.07,23.08,70.1,19.68,13.4-1.52,19.54-6.37,22.7-9.77,9.11-9.81,8-23.35,7.7-26.3-2.11-24.57-28.21-37.14-30-38Z"/><path class="cls-5" d="M205.54,173.55A176.94,176.94,0,0,0,200,134l.08,0a56.77,56.77,0,0,0-11.9-21.87c-10.3-11.53-21.76-19.9-28.64-27.55-5.16-5.75-11.19-15.13-14-30.73-10.53,2.66-18.25,1.78-23.42.43s-10.6-4-12.21-1.93c-.72.91-.92,2.54,1,6.31a98.06,98.06,0,0,1,6.51,24.07c1.83,14-8.21,26.25-12.26,31.18a38.59,38.59,0,0,1-13.9,11.37,36.3,36.3,0,0,1-11.1,3.11c.1,2.35.2,4.71.31,7.06,3.33-.5,8-1.12,13.74-1.61,9.14-.79,13.79-1.16,17.54,0,2.74.84,9.09,3.47,14.48,13-42.15,4-48.45,62.59-37.24,79.31,21.37,31.86,79.56,24.38,86.14,22.13s7.88-10.15,7.88-10.15,6.19-3.15,14.18-6.35a2.25,2.25,0,0,1,.19-.57.5.5,0,0,1,0-.12A177.78,177.78,0,0,0,205.54,173.55Z"/><path class="cls-1" d="M104.75,19.15c2.75,5.31,8.08,7.46,10.11,8.16l12.93-4.7a36.39,36.39,0,0,1-5.31-10.47C121,7.33,121,3.56,117.77,1.29a5.47,5.47,0,0,0-4.1-1.21c-2.14.47-2.27,2.65-5.38,6.64-2.89,3.72-4.34,3.84-4.88,6.18C102.83,15.45,104,17.71,104.75,19.15Z"/><path class="cls-5" d="M155.83,50.39c-7,13.71-31.93,11.39-37.67,10.86-3-.29-9.6-2.29-22.73-6.28C83.9,51.46,75,48.27,72.89,42a8.8,8.8,0,0,1-.49-2.89c.09-5.66,6.19-9.65,9.12-11.58,24.2-15.84,52.13-8.72,52.13-8.72,8.25,2.1,16,4.22,20.6,11.64C157.58,35.84,159.11,44,155.83,50.39Z"/><path class="cls-5" d="M101.91,42.59c-1.82,6.1,17.31,22.47-20.2,4.11-9.42-4.61-15.58-7.25-12.9-18.77.63-8.29,10.76-3.49,20.62-5.52C150.55,9.83,105.46,30.7,101.91,42.59Z"/><path class="cls-6" d="M86.77,33.82a9.83,9.83,0,0,1-1.25,3.3c-.33.52-1.34,2-4.51,3.59-3.39,1.68-5.66,2.81-8,2.1-4.29-1.3-6.89-8.2-4.91-12.63a10.46,10.46,0,0,1,5-5l.42-.17a10.09,10.09,0,0,1,6-.2,9.22,9.22,0,0,1,4.57,1.88,7.24,7.24,0,0,1,2.87,4.71A7.57,7.57,0,0,1,86.77,33.82Z"/><path class="cls-4" d="M113.51,31.35a6.47,6.47,0,0,1,5.56-5.14c4.74-.54,6.43,5,6.43,5s-1.26,5.47-5.94,5.43C114.23,36.58,113.51,31.35,113.51,31.35Z"/><circle cx="120.13" cy="31.41" r="5.68" transform="translate(48.81 133.05) rotate(-69.6)"/><path class="cls-7" d="M124,30.6a.81.81,0,0,1-.91.71.84.84,0,0,1-.72-.92.82.82,0,1,1,1.63.21Z"/><path class="cls-7" d="M121.71,28.82a1.47,1.47,0,1,1-1.27-1.64A1.47,1.47,0,0,1,121.71,28.82Z"/><path class="cls-8" d="M73.66,25.8a4,4,0,0,1-.65.88c-.42.39-.67.35-1.36.68a8.56,8.56,0,0,0-1.74,1.19c-.89.7-.94.91-1.16.87-.67-.13-1-2.45-.54-4.36a3.43,3.43,0,0,1,1-2,2.82,2.82,0,0,1,2.15-.51c1.33.11,3,.92,3,1.88C74.32,24.71,74.1,25.07,73.66,25.8Z"/><path class="cls-5" d="M157.4,40.24a16.18,16.18,0,0,1-5.39-.06c-3.89-4.62-7-8.37-9-10.87a4.19,4.19,0,0,1-1.09-2.47c0-.41,0-2.24,3.22-4.63,3.39-2.54,4.81-1.57,8.83-3.62,4.7-2.41,5.64-5.22,8.22-4.75,1.57.29,2.54,1.57,3.57,2.95a15.12,15.12,0,0,1,2.68,9.07c.1,3.35.22,6.37-1.78,9.27C163.8,39.21,158.9,40,157.4,40.24Z"/><path class="cls-4" d="M156.88,40.26a14,14,0,0,1-4.65,0c-3.36-4-6-7.22-7.8-9.39a3.53,3.53,0,0,1-1-2.13c0-.35,0-1.93,2.78-4,2.93-2.19,4.16-1.34,7.62-3.12,4.06-2.08,4.87-4.51,7.1-4.1,1.36.25,2.19,1.35,3.09,2.55a13.12,13.12,0,0,1,2.31,7.83c.08,2.89.19,5.5-1.54,8C162.41,39.37,158.17,40.05,156.88,40.26Z"/><path class="cls-5" d="M181.3,55.24c-19.92-10-42.64-11.75-65.45-8.7a5.58,5.58,0,0,1,.89,1.51q3.47,8.73,6,17.52a47.11,47.11,0,0,1,2,7.46,150.16,150.16,0,0,1,4.19,34.35,4.81,4.81,0,0,1-4.75,4.85c0,.16,0,.33,0,.49-.05,9,4.27,17.43,7.32,25.65,3.45,9.29,5.28,18.45,3.91,28.33a3.94,3.94,0,0,1-2.09,3.19c8.17,14.14,9.25,30.61,16.18,45.41,2.76,5.87,9.7,14.52,17.61,18.82a5.85,5.85,0,0,1,2.69.15,153.9,153.9,0,0,1,16.89-.63c3-1.07,6.05-2.12,9.07-3.2a4.88,4.88,0,0,1,2.77-.15C254.74,172.47,216.66,73.05,181.3,55.24Z"/><circle class="cls-5" cx="118.79" cy="41.02" r="10"/></g></g></svg>