<svg xmlns="http://www.w3.org/2000/svg" viewBox="0 0 330 271"><defs><style>.cls-1{fill:#86536c;}.cls-2{fill:#c28ba6;}.cls-3{fill:#593748;}.cls-4{fill:#899684;}.cls-5{fill:#7877bf;}.cls-6{fill:#d9d8ff;}</style></defs><g id="Layer_2" data-name="Layer 2"><g id="Layer_2-2" data-name="Layer 2"><path class="cls-1" d="M0,209.33V221a50,50,0,0,0,50,50H280a50,50,0,0,0,50-50V209.33Z"/><rect class="cls-2" width="330" height="260" rx="50"/><rect class="cls-3" x="44.5" y="41.28" width="241" height="119" rx="15.88"/><rect class="cls-4" x="46.5" y="43.28" width="237" height="115" rx="15"/><rect class="cls-5" x="56.29" y="185.22" width="100" height="45" rx="22.5"/><rect class="cls-6" x="56.29" y="181.86" width="100" height="45" rx="22.5"/><rect class="cls-5" x="174.57" y="185.22" width="45" height="45" rx="22.5"/><rect class="cls-6" x="174.57" y="181.86" width="45" height="45" rx="22.5"/><rect class="cls-5" x="228.71" y="185.22" width="45" height="45" rx="22.5"/><rect class="cls-6" x="228.71" y="181.86" width="45" height="45" rx="22.5"/></g></g></svg>