<svg xmlns="http://www.w3.org/2000/svg" viewBox="0 0 45 48.36"><defs><style>.cls-1{fill:#7877bf;}.cls-2{fill:#d9d8ff;}.cls-3{fill:#282840;}</style></defs><g id="Layer_2" data-name="Layer 2"><g id="Layer_2-2" data-name="Layer 2"><rect class="cls-1" y="3.36" width="45" height="45" rx="22.5"/><rect class="cls-2" width="45" height="45" rx="22.5"/><path class="cls-3" d="M17.93,12.75v18a5.43,5.43,0,0,0-2.5-.59c-2.48,0-4.5,1.57-4.5,3.5s2,3.5,4.5,3.5,4.5-1.56,4.5-3.5V18.33l12.14-2.64v11.6a5.49,5.49,0,0,0-2.5-.59c-2.49,0-4.5,1.57-4.5,3.5s2,3.5,4.5,3.5,4.5-1.56,4.5-3.5V9.25Z"/><rect class="cls-3" x="21.5" y="5" width="2" height="35" transform="translate(-9.32 22.5) rotate(-45)"/></g></g></svg>