<svg xmlns="http://www.w3.org/2000/svg" xmlns:xlink="http://www.w3.org/1999/xlink" viewBox="0 0 1964.1 1357.24"><defs><style>.cls-1{fill:none;}.cls-2{clip-path:url(#clip-path);}.cls-3{fill:#d9d8ff;}.cls-4{fill:#ececff;}.cls-30,.cls-32,.cls-5{fill:#282840;}.cls-6{fill:#504f80;}.cls-7{fill:#b26f90;}.cls-8{fill:#c28ba6;}.cls-9{fill:#3c426a;}.cls-10{fill:#6e7498;}.cls-11{fill:#f2f2f2;}.cls-12{fill:#cfd1dd;}.cls-13{fill:#0b123f;}.cls-14{fill:#070c2a;}.cls-15{fill:#e9e9f0;}.cls-16{fill:#7877bf;}.cls-17{fill:#daddef;}.cls-18{fill:#d1a8bc;}.cls-19{fill:#e0c5d3;}.cls-20{fill:#999;}.cls-21{fill:#ccc;}.cls-22{fill:#e6e6e6;}.cls-23{fill:#755913;}.cls-24{fill:#af851c;}.cls-25{fill:#ffcc4c;}.cls-26{fill:#86536c;}.cls-27{fill:#593748;}.cls-28{fill:#899684;}.cls-29{font-size:81.1px;font-family:DS-Digital;font-style:italic;letter-spacing:-0.02em;}.cls-30{font-size:16.22px;font-family:Impact;letter-spacing:0.05em;}.cls-31{letter-spacing:0.01em;}.cls-32{font-size:22.12px;font-family:JavaneseText, Javanese Text;letter-spacing:0.05em;}.cls-33{fill:#1a1a1a;}.cls-34{fill:#d69c9a;}.cls-35{fill:#f0afad;}.cls-36{fill:#333;}.cls-37{fill:#3c3c3c;}.cls-38{fill:#fff;}.cls-39{fill:#cf9795;}</style><clipPath id="clip-path" transform="translate(17.87 188.87)"><rect class="cls-1" width="1920" height="1080"/></clipPath></defs><g id="Layer_2" data-name="Layer 2"><g id="Layer_3" data-name="Layer 3"><g class="cls-2"><rect class="cls-3" y="169.19" width="1964.1" height="1119.37"/><rect class="cls-4" x="137.87" y="1237.24" width="120" height="120"/><rect class="cls-4" x="17.87" y="1117.24" width="120" height="120"/><rect class="cls-4" x="377.87" y="1237.24" width="120" height="120"/><rect class="cls-4" x="257.87" y="1117.24" width="120" height="120"/><rect class="cls-4" x="617.87" y="1237.24" width="120" height="120"/><rect class="cls-4" x="497.87" y="1117.24" width="120" height="120"/><rect class="cls-4" x="857.87" y="1237.24" width="120" height="120"/><rect class="cls-4" x="737.87" y="1117.24" width="120" height="120"/><rect class="cls-4" x="1097.87" y="1237.24" width="120" height="120"/><rect class="cls-4" x="977.87" y="1117.24" width="120" height="120"/><rect class="cls-4" x="1337.87" y="1237.24" width="120" height="120"/><rect class="cls-4" x="1217.87" y="1117.24" width="120" height="120"/><rect class="cls-4" x="1577.87" y="1237.24" width="120" height="120"/><rect class="cls-4" x="1457.87" y="1117.24" width="120" height="120"/><rect class="cls-4" x="1817.87" y="1237.24" width="120" height="120"/><rect class="cls-4" x="1697.87" y="1117.24" width="120" height="120"/><rect class="cls-5" x="17.87" y="1237.24" width="120" height="120"/><rect class="cls-5" x="137.87" y="1117.24" width="120" height="120"/><rect class="cls-5" x="257.87" y="1237.24" width="120" height="120"/><rect class="cls-5" x="377.87" y="1117.24" width="120" height="120"/><rect class="cls-5" x="497.87" y="1237.24" width="120" height="120"/><rect class="cls-5" x="617.87" y="1117.24" width="120" height="120"/><rect class="cls-5" x="737.87" y="1237.24" width="120" height="120"/><rect class="cls-5" x="857.87" y="1117.24" width="120" height="120"/><rect class="cls-5" x="977.87" y="1237.24" width="120" height="120"/><rect class="cls-5" x="1097.87" y="1117.24" width="120" height="120"/><rect class="cls-5" x="1217.87" y="1237.24" width="120" height="120"/><rect class="cls-5" x="1337.87" y="1117.24" width="120" height="120"/><rect class="cls-5" x="1457.87" y="1237.24" width="120" height="120"/><rect class="cls-5" x="1577.87" y="1117.24" width="120" height="120"/><rect class="cls-5" x="1697.87" y="1237.24" width="120" height="120"/><rect class="cls-5" x="1817.87" y="1117.24" width="120" height="120"/><rect class="cls-6" x="377.53" y="704.1" width="367.79" height="413.77"/><rect class="cls-6" x="377.53" y="0.69" width="367.79" height="413.77"/><rect class="cls-6" x="744.77" y="704.1" width="229.87" height="413.77"/><rect class="cls-6" x="744.77" y="0.69" width="229.87" height="413.77"/><rect class="cls-6" x="974.46" y="704.1" width="367.79" height="413.77"/><rect class="cls-6" x="1342.44" y="704.1" width="229.87" height="413.77"/><rect class="cls-6" x="1342.44" y="0.69" width="229.87" height="413.77"/><rect class="cls-6" x="1572.31" y="704.1" width="367.79" height="413.77"/><rect class="cls-6" x="1572.31" y="0.69" width="367.79" height="413.77"/><rect class="cls-7" x="458.81" y="479.84" width="82.75" height="110.34" rx="6"/><rect class="cls-8" x="458.81" y="559.74" width="82.75" height="13.79"/><rect class="cls-5" x="10.1" y="156.15" width="367.79" height="961.72"/><rect class="cls-9" x="14.7" y="755.59" width="358.6" height="358.6"/><rect class="cls-9" x="14.7" y="161.17" width="358.6" height="588.9"/><rect class="cls-10" x="345.72" y="575.37" width="13.79" height="147.12"/><rect class="cls-10" x="345.72" y="783.17" width="13.79" height="147.12"/><path class="cls-10" d="M521.8,484H506.47a1.53,1.53,0,0,0-1.53,1.53V487a1.54,1.54,0,0,0,1.53,1.54h5.83v4.59h-5.6a1.76,1.76,0,0,0-1.76,1.77v5.67a1.76,1.76,0,0,0,1.76,1.76h14.87a1.76,1.76,0,0,0,1.76-1.76v-5.67a1.76,1.76,0,0,0-1.76-1.77H516v-4.59h5.83a1.54,1.54,0,0,0,1.53-1.54v-1.53A1.53,1.53,0,0,0,521.8,484Z" transform="translate(17.87 188.87)"/><path class="cls-10" d="M581.56,484H566.24a1.52,1.52,0,0,0-1.53,1.53V487a1.53,1.53,0,0,0,1.53,1.54h5.82v4.59h-5.59a1.76,1.76,0,0,0-1.76,1.77v5.67a1.76,1.76,0,0,0,1.76,1.76h14.86a1.76,1.76,0,0,0,1.77-1.76v-5.67a1.77,1.77,0,0,0-1.77-1.77h-5.59v-4.59h5.82A1.54,1.54,0,0,0,583.1,487v-1.53A1.53,1.53,0,0,0,581.56,484Z" transform="translate(17.87 188.87)"/><path class="cls-10" d="M595.05,446.31v-1a27.59,27.59,0,0,0-55.17,0v55.17c0,.62,0,1.23.07,1.84h9.22c-.06-.61-.1-1.22-.1-1.84V445.34a18.39,18.39,0,1,1,36.78,0v1a2.3,2.3,0,0,0-1.83,2.25v4.6a2.28,2.28,0,0,0,2.29,2.29h8.28a2.29,2.29,0,0,0,2.3-2.29v-4.6A2.3,2.3,0,0,0,595.05,446.31Z" transform="translate(17.87 188.87)"/><polygon class="cls-9" points="1158.4 216.77 974.51 400.67 1342.3 400.67 1158.4 216.77"/><rect class="cls-10" x="1089.44" y="145.05" width="137.92" height="140.68"/><rect class="cls-10" x="974.46" y="382.28" width="367.79" height="32.18"/><rect class="cls-11" x="1036.89" y="89.5" width="9.19" height="110.34" rx="4.37" transform="translate(425.21 -505.2) rotate(45)"/><rect class="cls-9" x="974.46" y="690.3" width="367.79" height="354"/><rect class="cls-10" x="992.85" y="784.09" width="331.01" height="13.79"/><rect class="cls-12" x="992.85" y="715.59" width="331.01" height="45.97"/><rect class="cls-13" x="992.85" y="824.55" width="331.01" height="202.29" rx="11.5"/><rect class="cls-12" x="1090.38" y="644.87" width="9.19" height="174.7" rx="4.37" transform="translate(856.34 -370.93) rotate(45)"/><rect class="cls-12" x="1226.61" y="705.25" width="9.19" height="110.34" rx="4.37" transform="translate(916.18 -459) rotate(45)"/><rect class="cls-12" x="1171.44" y="648.24" width="9.19" height="174.7" rx="4.37" transform="translate(882.47 -427.26) rotate(45)"/><rect class="cls-12" x="1041.8" y="652.84" width="9.19" height="110.34" rx="4.37" transform="translate(824.99 -343.67) rotate(45)"/><circle class="cls-14" cx="1299.96" cy="739.04" r="13.79"/><circle class="cls-14" cx="1217.2" cy="739.04" r="13.79"/><circle class="cls-14" cx="1258.58" cy="739.04" r="13.79"/><circle class="cls-14" cx="1175.83" cy="739.04" r="13.79"/><circle class="cls-14" cx="1059.05" cy="739.04" r="13.79"/><circle class="cls-14" cx="1017.68" cy="739.04" r="13.79"/><path class="cls-5" d="M1134.51,438.05h-11v-9.42c0-.55,0-1.08-.08-1.61H985.64c0,.53-.09,1.06-.09,1.61v9.42H975.44a4.6,4.6,0,0,0,0,9.2h10.11v35.17a19.09,19.09,0,0,0,19.08,19.08h99.77a19.08,19.08,0,0,0,19.08-19.08V447.25h11a4.6,4.6,0,0,0,0-9.2Z" transform="translate(17.87 188.87)"/><path class="cls-11" d="M1073.6,421.16c-.42-.26,15.87-10,12.06-15.32-1.93-2.71-7.37-1.94-10.34-4.71-4.24-4,.65-11.38,5.75-17.28-2.55,3.4-4.86,7.94-2.3,11.78,3,4.48,10.1,4.21,12.07,7.85C1094.6,410.45,1074.06,421.44,1073.6,421.16Z" transform="translate(17.87 188.87)"/><path class="cls-11" d="M1043,421.27c-.56-.35,21.44-13.49,16.3-20.69-2.61-3.66-10-2.63-14-6.37-5.73-5.36.88-15.38,7.77-23.35-3.45,4.6-6.57,10.73-3.11,15.92,4,6.06,13.64,5.69,16.3,10.61C1071.42,406.8,1043.66,421.66,1043,421.27Z" transform="translate(17.87 188.87)"/><path class="cls-11" d="M1018,421.16c-.42-.26,15.87-10,12.06-15.32-1.93-2.71-7.37-1.94-10.34-4.71-4.24-4,.65-11.38,5.75-17.28-2.55,3.4-4.86,7.94-2.3,11.78,3,4.48,10.1,4.21,12.06,7.85C1039,410.45,1018.46,421.44,1018,421.16Z" transform="translate(17.87 188.87)"/><rect class="cls-15" x="1011.7" y="626.93" width="9.19" height="45.97" rx="4.37"/><path class="cls-10" d="M704.84,283.51a7.34,7.34,0,0,0-5.74,2.76H388.75a7.36,7.36,0,1,0,0,9.19H699.1a7.35,7.35,0,1,0,5.74-11.95Z" transform="translate(17.87 188.87)"/><rect class="cls-5" x="377.53" y="690.3" width="367.79" height="13.79"/><rect class="cls-5" x="744.77" y="690.3" width="229.87" height="13.79"/><rect class="cls-5" x="1342.44" y="690.3" width="229.87" height="13.79"/><rect class="cls-5" x="1572.31" y="690.3" width="367.79" height="13.79"/><rect class="cls-16" x="381.67" y="708.78" width="358.6" height="404.57"/><rect class="cls-16" x="381.67" y="5.37" width="358.6" height="404.57"/><rect class="cls-16" x="748.91" y="708.78" width="220.68" height="82.75"/><rect class="cls-16" x="748.91" y="796.13" width="220.68" height="82.75"/><rect class="cls-16" x="748.91" y="984.62" width="220.68" height="128.73"/><rect class="cls-16" x="748.91" y="883.48" width="220.68" height="96.55"/><rect class="cls-16" x="748.91" y="5.37" width="220.68" height="404.57"/><rect class="cls-16" x="978.6" y="1048.99" width="358.6" height="64.36"/><rect class="cls-16" x="1346.58" y="796.13" width="220.68" height="317.22"/><rect class="cls-16" x="1346.58" y="708.78" width="220.68" height="82.75"/><rect class="cls-16" x="1346.58" y="5.37" width="220.68" height="404.57"/><rect class="cls-16" x="1576.45" y="708.78" width="358.6" height="404.57"/><rect class="cls-16" x="1576.45" y="5.37" width="358.6" height="404.57"/><rect class="cls-17" x="536.6" y="754.67" width="9.19" height="82.75"/><rect class="cls-17" x="577.98" y="754.67" width="9.19" height="82.75"/><rect class="cls-17" x="536.6" y="281.13" width="9.19" height="82.75"/><rect class="cls-17" x="577.98" y="281.13" width="9.19" height="82.75"/><rect class="cls-17" x="818.33" y="732.6" width="82.75" height="9.19"/><rect class="cls-17" x="818.33" y="819.03" width="82.75" height="9.19"/><rect class="cls-17" x="818.33" y="906.38" width="82.75" height="9.19"/><rect class="cls-17" x="818.33" y="1007.53" width="82.75" height="9.19"/><rect class="cls-17" x="763.16" y="281.13" width="9.19" height="82.75"/><rect class="cls-17" x="1116.98" y="1071.89" width="82.75" height="9.19"/><rect class="cls-17" x="1416" y="732.6" width="82.75" height="9.19"/><rect class="cls-17" x="1360.83" y="842.02" width="9.19" height="82.75"/><rect class="cls-17" x="1359.91" y="281.13" width="9.19" height="82.75"/><rect class="cls-17" x="1590.7" y="754.67" width="9.19" height="82.75"/><rect class="cls-17" x="1590.7" y="281.13" width="9.19" height="82.75"/><path class="cls-18" d="M509.9,279.83h-68a7.36,7.36,0,0,0-7.35,7.36v92.05a5.52,5.52,0,0,0,5.51,5.52h71.72a5.52,5.52,0,0,0,5.52-5.52V287.19A7.36,7.36,0,0,0,509.9,279.83Z" transform="translate(17.87 188.87)"/><rect class="cls-19" x="452.38" y="543.19" width="82.75" height="13.79"/><rect class="cls-10" x="1342.44" y="471.47" width="229.87" height="5.52"/><rect class="cls-5" x="1561.28" y="468.55" width="3.68" height="11.03"/><rect class="cls-5" x="1349.79" y="468.55" width="3.68" height="11.03"/><rect class="cls-5" x="1524.5" y="469.47" width="3.68" height="18.39"/><rect class="cls-5" x="1439.9" y="469.47" width="3.68" height="18.39"/><rect class="cls-5" x="1381.06" y="469.47" width="3.68" height="18.39"/><ellipse class="cls-5" cx="1441.74" cy="589.16" rx="18.39" ry="24.52"/><rect class="cls-5" x="1438.07" y="502.73" width="7.36" height="64.36"/><path class="cls-18" d="M1423.87,294.54a4.59,4.59,0,0,0-4.59,4.6V341a2.3,2.3,0,0,0,2.29,2.3h4.6a2.3,2.3,0,0,0,2.3-2.3V299.14A4.6,4.6,0,0,0,1423.87,294.54Z" transform="translate(17.87 188.87)"/><path class="cls-5" d="M1423.87,296.38a2.77,2.77,0,0,0-2.76,2.76v3.68h.09a1.38,1.38,0,0,0,1.29.92h2.76a1.39,1.39,0,0,0,1.3-.92h.08v-3.68A2.76,2.76,0,0,0,1423.87,296.38Z" transform="translate(17.87 188.87)"/><path class="cls-5" d="M1386.54,413.16h0l-.09-.37a.85.85,0,0,1,0-.17l-6.13-24.4a10.35,10.35,0,0,0-10.15-8.33h-10.34a10.34,10.34,0,0,0-10.15,8.34l-6.12,24.4,0,.09-.11.44h0a6.28,6.28,0,0,0-.15,1.38,6.73,6.73,0,0,0,6.21,6.7v0h31v0a6.73,6.73,0,0,0,6.21-6.7A6.94,6.94,0,0,0,1386.54,413.16Zm-26.87-21.94-4.3,20.24a2.59,2.59,0,1,1-5.06-1.08l4.3-20.23a2.59,2.59,0,0,1,5.06,1.07Zm7.88,19.7a2.59,2.59,0,1,1-5.17,0V390.23a2.59,2.59,0,0,1,5.17,0Zm10.07,2.53a2.58,2.58,0,0,1-3.07-2l-4.3-20.24a2.59,2.59,0,0,1,5.06-1.07l4.3,20.23A2.58,2.58,0,0,1,1377.62,413.45Z" transform="translate(17.87 188.87)"/><rect class="cls-5" x="1379.22" y="505.49" width="7.36" height="64.36"/><path class="cls-18" d="M1365,294.54a4.6,4.6,0,0,0-4.6,4.6V341a2.3,2.3,0,0,0,2.3,2.3h4.59a2.3,2.3,0,0,0,2.3-2.3V299.14A4.59,4.59,0,0,0,1365,294.54Z" transform="translate(17.87 188.87)"/><path class="cls-5" d="M1365,296.38a2.76,2.76,0,0,0-2.76,2.76v3.68h.08a1.39,1.39,0,0,0,1.3.92h2.76a1.39,1.39,0,0,0,1.29-.92h.08v-3.68A2.76,2.76,0,0,0,1365,296.38Z" transform="translate(17.87 188.87)"/><rect class="cls-5" x="1521.74" y="519.28" width="9.19" height="32.18"/><path class="cls-18" d="M1508.47,294.54a5.52,5.52,0,0,0-5.52,5.52v35.86a2.75,2.75,0,0,0,2.76,2.76h5.51a2.75,2.75,0,0,0,2.76-2.76V300.06A5.52,5.52,0,0,0,1508.47,294.54Z" transform="translate(17.87 188.87)"/><circle class="cls-5" cx="1526.34" cy="598.36" r="50.57"/><path class="cls-5" d="M1508.47,297a3.67,3.67,0,0,0-3.68,3.67v4.91h.11a1.83,1.83,0,0,0,1.73,1.22h3.67a1.83,1.83,0,0,0,1.73-1.22h.11v-4.91A3.67,3.67,0,0,0,1508.47,297Z" transform="translate(17.87 188.87)"/><circle class="cls-6" cx="1526.8" cy="598.81" r="39.08"/><circle class="cls-5" cx="1526.8" cy="598.81" r="36.78"/><rect class="cls-6" x="560.05" y="706.62" width="4.6" height="409.17"/><rect class="cls-6" x="560.05" width="4.6" height="413.77"/><path class="cls-20" d="M1670.18,48.73c-1.28-2.1-3.32-3.22-5.38-4.46a22.72,22.72,0,0,0-5.13-2.21c-3.44,0-6.87.25-10.32.53a3.63,3.63,0,0,1-2.8.23h-.15c-4.6.35-9.08.43-13.47,1.59-2.47,1.95-4.38,4.95-6.33,7.28s-6.44,1.13-7-1.85c-1.43-7.39-3.67-14.78-11-18.25-3.53-1.66-6.79-1.23-10.52-.77-1.71.21-3.89.13-5.52.78a4.37,4.37,0,0,1-1,2,15.5,15.5,0,0,0-3.11,6,4.24,4.24,0,0,1,.27,1c.4,2.37.76,4.76,1.11,7.15a116.35,116.35,0,0,0,4,11.6,117.83,117.83,0,0,0,6.88,15.6c4.53,8.16,9.65,19.94,19.46,22.72,5.62,1.59,9.67-1.12,14.22-4.1s9-6.2,13.61-9.1c4.27-2.67,6.9-5.67,10.32-9.27a19,19,0,0,1,8.42-5.45c1.53-2,3.6-3.68,4.5-6a28.54,28.54,0,0,0,1.46-9A38.24,38.24,0,0,0,1670.18,48.73Z" transform="translate(17.87 188.87)"/><path class="cls-21" d="M1643.45,74.6c0-.15,0-.31,0-.46a4.4,4.4,0,0,1-2,.08c-.11,2.2-.45,4.44.25,6.45.86,2.48,4.79,3.06,7.73,3a4.56,4.56,0,0,1,.76-2.77l-.45,0A6.3,6.3,0,0,1,1643.45,74.6Z" transform="translate(17.87 188.87)"/><path class="cls-21" d="M1641.46,45.82c-1.13-.32-2.26-.62-3.4-.83a3.87,3.87,0,0,1-3,1.32,4.13,4.13,0,0,1-2.21-.6,4,4,0,0,1-3.29,4.27,4.69,4.69,0,0,1-.39,4.54,4,4,0,0,1,1.82,2.65,3.94,3.94,0,0,1,1.29.79,8.07,8.07,0,0,1-.16-1.64,8.39,8.39,0,0,1,8.39-8.39,8,8,0,0,1,1.71.18A3.76,3.76,0,0,1,1641.46,45.82Z" transform="translate(17.87 188.87)"/><path class="cls-21" d="M1671.23,54.22c-1.6-2.44-4-3.54-6.51-4.54a2.58,2.58,0,0,1-.42.12c-.47.1-.94.22-1.4.34a10.49,10.49,0,0,1-.07,18.56,3.65,3.65,0,0,1,1.74,1.66c.52-.47,1.06-.93,1.63-1.37a3.28,3.28,0,0,1,2.51-.57c2.45-1.11,3-4.39,3.67-6.71A8.18,8.18,0,0,0,1671.23,54.22Z" transform="translate(17.87 188.87)"/><path class="cls-21" d="M1638.29,98.81a6.07,6.07,0,0,1-.27-.59c-2.28,0-4.51.23-6.37,1.7-2.38,1.89-2.6,4.69-2.56,7.5.18.14,1.35,1,.58.48a5.19,5.19,0,0,1,1.62,1.86l.24-.24c0-.14,0-.27,0-.41a8.39,8.39,0,0,1,8.39-8.39l.41,0,.14-.14A4.38,4.38,0,0,1,1638.29,98.81Z" transform="translate(17.87 188.87)"/><path class="cls-21" d="M1609.75,66.32a4,4,0,0,1,1.65-1c.4-.7.71-1.44,1.14-2.12a4.43,4.43,0,0,1,2-1.68,18.55,18.55,0,0,0-1.44-3.13,12.34,12.34,0,0,1-.92-1.61,1.33,1.33,0,0,0-.43-.73,3.76,3.76,0,0,1-3.07-1l-.43.19a6.28,6.28,0,0,1-3.92,10.32,3.82,3.82,0,0,1,2.75,1.26,4.09,4.09,0,0,1,2.23-.62A3.69,3.69,0,0,1,1609.75,66.32Z" transform="translate(17.87 188.87)"/><path class="cls-21" d="M1592.64,68c-1.18-1.59-4.6-2.76-6.47-3.17-3-.64-4.46,1-6.41,3-.06.07-.12.12-.18.18s0,.19,0,0h0a3.79,3.79,0,0,1-.15,2.51c.25,0,.49,0,.75,0a8.39,8.39,0,0,1,8.39,8.39,6.12,6.12,0,0,1,0,.74,3.63,3.63,0,0,1,1.39.08c.11-.13.22-.25.35-.38a20.67,20.67,0,0,1,2.94-2.36C1593.69,73.78,1594.17,70.06,1592.64,68Z" transform="translate(17.87 188.87)"/><path class="cls-21" d="M1580.68,48.82a14.7,14.7,0,0,0-2.36-4.38h-.12a4.29,4.29,0,0,1-1.74-.34,8.08,8.08,0,0,1,.48,2.71,8.35,8.35,0,0,1-2.5,5.94h.12a4,4,0,0,1,2.38.72,3.73,3.73,0,0,1,2-1A4.22,4.22,0,0,1,1580.68,48.82Z" transform="translate(17.87 188.87)"/><path class="cls-21" d="M1611.77,35.63a4,4,0,0,1-2.92-4.12,22.24,22.24,0,0,0-6.34-2.57,34.39,34.39,0,0,0-6.44.76,3.78,3.78,0,0,1-2.82,2.52,30.37,30.37,0,0,1-.5,3.29,10.48,10.48,0,0,1,17.09,7.65L1610,43a4.19,4.19,0,0,1,1.7-3.38A4.77,4.77,0,0,1,1611.77,35.63Z" transform="translate(17.87 188.87)"/><path class="cls-21" d="M1618.33,102a3.56,3.56,0,0,1-.58.06,3.82,3.82,0,0,1-3.69-2.37,4.29,4.29,0,0,1-1.35.22,3.87,3.87,0,0,1-2.73-1,3.72,3.72,0,0,1-1.69,1.51,2.71,2.71,0,0,1-.17.39c.21,0,.41,0,.62,0A6.3,6.3,0,0,1,1615,107c0,.1,0,.19,0,.28a3.7,3.7,0,0,1,1.72-1.09,4.16,4.16,0,0,1,.55-2.21c.36-.66.77-1.3,1.19-1.92Z" transform="translate(17.87 188.87)"/><path class="cls-21" d="M1631.88,32.76c0,.08.08.16.13.24a5.89,5.89,0,0,1,1.68.92c2,1.56,5.51-.42,7.41-1.89a3.86,3.86,0,0,1,.63-1.21c-.21-1.15-.38-2.25-.6-3.17,0-.16-.06-.3-.08-.45a3.65,3.65,0,0,1-1.51-1,6.24,6.24,0,0,1-8.85,3.54s0,.09,0,.14A20.93,20.93,0,0,0,1631.88,32.76Z" transform="translate(17.87 188.87)"/><path class="cls-21" d="M1633.84,79.73l-3.66,3.66c0-.27,0-.56,0-.88v-.1a51.18,51.18,0,0,0-3.28-5.36,10.37,10.37,0,0,1,.58,3.4,10.44,10.44,0,0,1-14.3,9.76,4.17,4.17,0,0,1,.71,1.41,3.7,3.7,0,0,1,2.52,2.19,4.46,4.46,0,0,1,1.36-.2,4.06,4.06,0,0,1,1.81.4l-.43.43,5.28,5.28L1639.12,85Z" transform="translate(17.87 188.87)"/><path class="cls-22" d="M1665.57,33.91c-.35-.34-.7-.68-1.06-1a6.58,6.58,0,0,1-1.19.11,6.3,6.3,0,0,1-6.16-5,29.43,29.43,0,0,0-18.33-2.11,4.14,4.14,0,0,1,1,2.72,4.2,4.2,0,1,1-8.4,0c0-.05,0-.1,0-.15a29.1,29.1,0,0,0-5.38,3.55h0l-.09.08-.3.24a2.94,2.94,0,0,1-3.65-.24,29.38,29.38,0,0,0-46.3,12.19,4.19,4.19,0,0,1-1.33,8.16c-.16,0-.32,0-.48,0a29.34,29.34,0,0,0,5.45,19.43,6.29,6.29,0,1,1,7.08,7.63l22.16,22.15a4.18,4.18,0,1,1,5.88,5.89l5.35,5.34,0,0,1.16,1.16a4.2,4.2,0,0,0,5.94,0l1.16-1.16.07-.09,3.32-3.32a6.23,6.23,0,0,1-1.44-4,6.3,6.3,0,0,1,10.3-4.86l25.18-25.18A29.38,29.38,0,0,0,1665.57,33.91Zm-72.5,5.41a8.4,8.4,0,1,1,8.4,8.4A8.4,8.4,0,0,1,1593.07,39.32Zm14.55,25.4a4.2,4.2,0,1,1,4.2-4.2A4.2,4.2,0,0,1,1607.62,64.72Zm13.48,28.87a8.4,8.4,0,1,1,8.4-8.39A8.39,8.39,0,0,1,1621.1,93.59Zm16.05-34.19a6.3,6.3,0,1,1,6.3-6.3A6.3,6.3,0,0,1,1637.15,59.4Zm9.74,22.26a4.2,4.2,0,1,1,4.2-4.19A4.2,4.2,0,0,1,1646.89,81.66Zm16.43-13.86a8.4,8.4,0,1,1,8.4-8.4A8.4,8.4,0,0,1,1663.32,67.8Z" transform="translate(17.87 188.87)"/><path class="cls-23" d="M1782.9,48.73c-1.28-2.1-3.31-3.22-5.37-4.46a22.72,22.72,0,0,0-5.13-2.21c-3.45,0-6.88.25-10.32.53a3.63,3.63,0,0,1-2.8.23h-.15c-4.6.35-9.08.43-13.48,1.59-2.47,1.95-4.37,4.95-6.33,7.28s-6.44,1.13-7-1.85c-1.44-7.39-3.68-14.78-11-18.25-3.53-1.66-6.79-1.23-10.53-.77-1.7.21-3.88.13-5.52.78a4.25,4.25,0,0,1-1,2,15.37,15.37,0,0,0-3.11,6,4.24,4.24,0,0,1,.27,1c.4,2.37.75,4.76,1.11,7.15a116.35,116.35,0,0,0,4,11.6,119.1,119.1,0,0,0,6.87,15.6c4.53,8.16,9.66,19.94,19.47,22.72,5.62,1.59,9.67-1.12,14.22-4.1s9-6.2,13.61-9.1c4.27-2.67,6.9-5.67,10.32-9.27a19,19,0,0,1,8.42-5.45c1.52-2,3.59-3.68,4.5-6a29.11,29.11,0,0,0,1.46-9A39.3,39.3,0,0,0,1782.9,48.73Z" transform="translate(17.87 188.87)"/><path class="cls-24" d="M1756.18,74.6c0-.15,0-.31,0-.46a4.4,4.4,0,0,1-2,.08c-.11,2.2-.45,4.44.25,6.45.86,2.48,4.79,3.06,7.72,3a4.56,4.56,0,0,1,.76-2.77l-.45,0A6.3,6.3,0,0,1,1756.18,74.6Z" transform="translate(17.87 188.87)"/><path class="cls-24" d="M1754.19,45.82c-1.13-.32-2.26-.62-3.41-.83a3.85,3.85,0,0,1-3,1.32,4.1,4.1,0,0,1-2.21-.6,4,4,0,0,1-3.3,4.27,4.68,4.68,0,0,1-.38,4.54,3.94,3.94,0,0,1,1.81,2.65A3.84,3.84,0,0,1,1745,58a8.85,8.85,0,0,1-.16-1.64,8.4,8.4,0,0,1,8.4-8.39,8,8,0,0,1,1.71.18A3.76,3.76,0,0,1,1754.19,45.82Z" transform="translate(17.87 188.87)"/><path class="cls-24" d="M1784,54.22c-1.61-2.44-4-3.54-6.51-4.54a2.9,2.9,0,0,1-.42.12c-.47.1-.94.22-1.41.34a10.49,10.49,0,0,1-.06,18.56,3.69,3.69,0,0,1,1.74,1.66c.52-.47,1-.93,1.63-1.37a3.28,3.28,0,0,1,2.51-.57c2.44-1.11,3-4.39,3.66-6.71A8.17,8.17,0,0,0,1784,54.22Z" transform="translate(17.87 188.87)"/><path class="cls-24" d="M1751,98.81a4.47,4.47,0,0,1-.28-.59c-2.28,0-4.51.23-6.36,1.7-2.38,1.89-2.6,4.69-2.56,7.5.18.14,1.34,1,.57.48a5.09,5.09,0,0,1,1.62,1.86l.24-.24c0-.14,0-.27,0-.41a8.4,8.4,0,0,1,8.4-8.39l.41,0,.14-.14A4.38,4.38,0,0,1,1751,98.81Z" transform="translate(17.87 188.87)"/><path class="cls-24" d="M1722.48,66.32a4,4,0,0,1,1.65-1c.39-.7.7-1.44,1.14-2.12a4.46,4.46,0,0,1,1.94-1.68,17.79,17.79,0,0,0-1.44-3.13,12.26,12.26,0,0,1-.91-1.61,1.39,1.39,0,0,0-.43-.73,3.74,3.74,0,0,1-3.07-1l-.43.19A6.28,6.28,0,0,1,1717,65.63a3.8,3.8,0,0,1,2.74,1.26,4.1,4.1,0,0,1,2.24-.62A3.87,3.87,0,0,1,1722.48,66.32Z" transform="translate(17.87 188.87)"/><path class="cls-24" d="M1705.37,68c-1.19-1.59-4.6-2.76-6.48-3.17-3-.64-4.45,1-6.4,3-.06.07-.13.12-.19.18s0,.19,0,0h0a3.79,3.79,0,0,1-.14,2.51c.24,0,.49,0,.74,0a8.39,8.39,0,0,1,8.4,8.39c0,.25,0,.49,0,.74a3.65,3.65,0,0,1,1.39.08c.1-.13.22-.25.34-.38a20.67,20.67,0,0,1,2.94-2.36C1706.42,73.78,1706.9,70.06,1705.37,68Z" transform="translate(17.87 188.87)"/><path class="cls-24" d="M1693.41,48.82a14.93,14.93,0,0,0-2.36-4.38h-.13a4.24,4.24,0,0,1-1.73-.34,8.23,8.23,0,0,1-2,8.65h.12a4.06,4.06,0,0,1,2.39.72,3.73,3.73,0,0,1,2-1A4.2,4.2,0,0,1,1693.41,48.82Z" transform="translate(17.87 188.87)"/><path class="cls-24" d="M1724.5,35.63a4,4,0,0,1-2.93-4.12,22.07,22.07,0,0,0-6.33-2.57,34.59,34.59,0,0,0-6.45.76,3.78,3.78,0,0,1-2.82,2.52,28.06,28.06,0,0,1-.49,3.29,10.47,10.47,0,0,1,17.08,7.65l.14-.14a4.19,4.19,0,0,1,1.7-3.38A4.73,4.73,0,0,1,1724.5,35.63Z" transform="translate(17.87 188.87)"/><path class="cls-24" d="M1731.06,102a3.68,3.68,0,0,1-.58.06,3.81,3.81,0,0,1-3.69-2.37,4.39,4.39,0,0,1-1.35.22,3.89,3.89,0,0,1-2.74-1,3.62,3.62,0,0,1-1.69,1.51c0,.13-.1.27-.16.39.2,0,.41,0,.62,0a6.3,6.3,0,0,1,6.3,6.29,2.46,2.46,0,0,1,0,.28,3.75,3.75,0,0,1,1.72-1.09A4.18,4.18,0,0,1,1730,104c.36-.66.77-1.3,1.19-1.92Z" transform="translate(17.87 188.87)"/><path class="cls-24" d="M1744.6,32.76c.05.08.09.16.13.24a5.94,5.94,0,0,1,1.69.92c2,1.56,5.5-.42,7.4-1.89a3.88,3.88,0,0,1,.64-1.21c-.21-1.15-.39-2.25-.6-3.17,0-.16-.06-.3-.09-.45a3.72,3.72,0,0,1-1.51-1,6.24,6.24,0,0,1-8.85,3.54s0,.09,0,.14A20.93,20.93,0,0,0,1744.6,32.76Z" transform="translate(17.87 188.87)"/><path class="cls-24" d="M1746.57,79.73l-3.66,3.66c0-.27,0-.56,0-.88v-.1a53,53,0,0,0-3.29-5.36,10.37,10.37,0,0,1,.58,3.4,10.43,10.43,0,0,1-14.29,9.76,4.36,4.36,0,0,1,.71,1.41,3.74,3.74,0,0,1,2.52,2.19,4.42,4.42,0,0,1,1.36-.2,4.09,4.09,0,0,1,1.81.4l-.44.43,5.28,5.28L1751.84,85Z" transform="translate(17.87 188.87)"/><path class="cls-25" d="M1778.29,33.91c-.34-.34-.69-.68-1-1a6.75,6.75,0,0,1-1.19.11,6.3,6.3,0,0,1-6.17-5,29.39,29.39,0,0,0-18.32-2.11,4.14,4.14,0,0,1,1,2.72,4.2,4.2,0,1,1-8.39,0c0-.05,0-.1,0-.15a29.17,29.17,0,0,0-5.39,3.55h0l-.1.08-.3.24a2.93,2.93,0,0,1-3.64-.24,29.38,29.38,0,0,0-46.31,12.19,4.19,4.19,0,0,1-1.32,8.16c-.17,0-.32,0-.48,0a29.33,29.33,0,0,0,5.44,19.43,6.3,6.3,0,1,1,7.09,7.63l22.15,22.15a4.18,4.18,0,1,1,5.89,5.89l5.34,5.34,0,0,1.16,1.16a4.2,4.2,0,0,0,5.94,0l1.16-1.16.07-.09,3.31-3.32a6.3,6.3,0,0,1,8.87-8.86l25.17-25.18A29.38,29.38,0,0,0,1778.29,33.91Zm-72.5,5.41a8.4,8.4,0,1,1,8.4,8.4A8.4,8.4,0,0,1,1705.79,39.32Zm14.56,25.4a4.2,4.2,0,1,1,4.2-4.2A4.2,4.2,0,0,1,1720.35,64.72Zm13.48,28.87a8.4,8.4,0,1,1,8.4-8.39A8.39,8.39,0,0,1,1733.83,93.59Zm16.05-34.19a6.3,6.3,0,1,1,6.29-6.3A6.3,6.3,0,0,1,1749.88,59.4Zm9.73,22.26a4.2,4.2,0,1,1,4.2-4.19A4.2,4.2,0,0,1,1759.61,81.66Zm16.44-13.86a8.4,8.4,0,1,1,8.39-8.4A8.4,8.4,0,0,1,1776.05,67.8Z" transform="translate(17.87 188.87)"/><path class="cls-23" d="M1895.63,48.73c-1.28-2.1-3.32-3.22-5.38-4.46a22.46,22.46,0,0,0-5.12-2.21c-3.45,0-6.88.25-10.32.53a3.63,3.63,0,0,1-2.8.23h-.16c-4.6.35-9.08.43-13.47,1.59-2.47,1.95-4.38,4.95-6.33,7.28s-6.44,1.13-7-1.85c-1.43-7.39-3.67-14.78-11-18.25-3.52-1.66-6.79-1.23-10.52-.77-1.71.21-3.89.13-5.52.78a4.27,4.27,0,0,1-1,2,15.5,15.5,0,0,0-3.11,6,4.24,4.24,0,0,1,.27,1c.4,2.37.76,4.76,1.11,7.15a119,119,0,0,0,4,11.6,119.15,119.15,0,0,0,6.88,15.6c4.53,8.16,9.65,19.94,19.46,22.72,5.62,1.59,9.67-1.12,14.23-4.1s9-6.2,13.61-9.1c4.26-2.67,6.9-5.67,10.32-9.27a18.94,18.94,0,0,1,8.41-5.45c1.53-2,3.6-3.68,4.51-6a28.82,28.82,0,0,0,1.45-9A38.24,38.24,0,0,0,1895.63,48.73Z" transform="translate(17.87 188.87)"/><path class="cls-24" d="M1868.9,74.6c0-.15,0-.31,0-.46a4.37,4.37,0,0,1-1.18.16,4.49,4.49,0,0,1-.83-.08c-.11,2.2-.45,4.44.25,6.45.86,2.48,4.79,3.06,7.73,3a4.56,4.56,0,0,1,.76-2.77l-.45,0A6.3,6.3,0,0,1,1868.9,74.6Z" transform="translate(17.87 188.87)"/><path class="cls-24" d="M1866.91,45.82c-1.13-.32-2.26-.62-3.4-.83a3.87,3.87,0,0,1-3,1.32,4.07,4.07,0,0,1-2.2-.6A4,4,0,0,1,1855,50a4.69,4.69,0,0,1-.39,4.54,4,4,0,0,1,1.82,2.65,3.84,3.84,0,0,1,1.29.79,8.85,8.85,0,0,1-.16-1.64,8.4,8.4,0,0,1,8.4-8.39,8.14,8.14,0,0,1,1.71.18A3.78,3.78,0,0,1,1866.91,45.82Z" transform="translate(17.87 188.87)"/><path class="cls-24" d="M1896.69,54.22c-1.61-2.44-4-3.54-6.52-4.54a2.77,2.77,0,0,1-.41.12c-.48.1-.94.22-1.41.34a10.49,10.49,0,0,1-.07,18.56,3.65,3.65,0,0,1,1.74,1.66c.52-.47,1.06-.93,1.63-1.37a3.3,3.3,0,0,1,2.51-.57c2.45-1.11,2.95-4.39,3.67-6.71A8.17,8.17,0,0,0,1896.69,54.22Z" transform="translate(17.87 188.87)"/><path class="cls-24" d="M1863.74,98.81a6.07,6.07,0,0,1-.27-.59c-2.28,0-4.51.23-6.37,1.7-2.38,1.89-2.59,4.69-2.56,7.5.18.14,1.35,1,.58.48a5.09,5.09,0,0,1,1.62,1.86l.24-.24c0-.14,0-.27,0-.41a8.4,8.4,0,0,1,8.4-8.39l.4,0,.14-.14A4.43,4.43,0,0,1,1863.74,98.81Z" transform="translate(17.87 188.87)"/><path class="cls-24" d="M1835.21,66.32a4,4,0,0,1,1.65-1c.39-.7.7-1.44,1.13-2.12a4.54,4.54,0,0,1,2-1.68,17.79,17.79,0,0,0-1.44-3.13,11.22,11.22,0,0,1-.91-1.61,1.38,1.38,0,0,0-.44-.73,3.76,3.76,0,0,1-3.07-1l-.43.19a6.27,6.27,0,0,1-3.91,10.32,3.8,3.8,0,0,1,2.74,1.26,4.09,4.09,0,0,1,2.23-.62A4,4,0,0,1,1835.21,66.32Z" transform="translate(17.87 188.87)"/><path class="cls-24" d="M1818.09,68c-1.18-1.59-4.59-2.76-6.47-3.17-3-.64-4.46,1-6.4,3L1805,68c0,.11,0,.19,0,0h0a3.79,3.79,0,0,1-.15,2.51q.38,0,.75,0a8.39,8.39,0,0,1,8.39,8.39,6.12,6.12,0,0,1,0,.74,3.63,3.63,0,0,1,1.39.08c.11-.13.22-.25.35-.38a20.67,20.67,0,0,1,2.94-2.36C1819.15,73.78,1819.62,70.06,1818.09,68Z" transform="translate(17.87 188.87)"/><path class="cls-24" d="M1806.13,48.82a14.7,14.7,0,0,0-2.36-4.38h-.12a4.29,4.29,0,0,1-1.74-.34,8.08,8.08,0,0,1,.48,2.71,8.35,8.35,0,0,1-2.5,5.94h.12a4,4,0,0,1,2.38.72,3.76,3.76,0,0,1,2-1A4.22,4.22,0,0,1,1806.13,48.82Z" transform="translate(17.87 188.87)"/><path class="cls-24" d="M1837.22,35.63a4,4,0,0,1-2.92-4.12,22.13,22.13,0,0,0-6.34-2.57,34.48,34.48,0,0,0-6.44.76,3.78,3.78,0,0,1-2.82,2.52,30.37,30.37,0,0,1-.5,3.29,10.48,10.48,0,0,1,17.09,7.65l.13-.14a4.2,4.2,0,0,1,1.71-3.38A4.73,4.73,0,0,1,1837.22,35.63Z" transform="translate(17.87 188.87)"/><path class="cls-24" d="M1843.78,102a3.56,3.56,0,0,1-.58.06,3.79,3.79,0,0,1-3.68-2.37,4.39,4.39,0,0,1-1.35.22,3.88,3.88,0,0,1-2.74-1,3.72,3.72,0,0,1-1.69,1.51c0,.13-.1.27-.16.39.2,0,.41,0,.62,0a6.29,6.29,0,0,1,6.29,6.29,2.53,2.53,0,0,1,0,.28,3.7,3.7,0,0,1,1.72-1.09,4.16,4.16,0,0,1,.55-2.21c.37-.66.77-1.3,1.19-1.92Z" transform="translate(17.87 188.87)"/><path class="cls-24" d="M1857.33,32.76l.13.24a5.89,5.89,0,0,1,1.68.92c2,1.56,5.51-.42,7.41-1.89a3.68,3.68,0,0,1,.64-1.21c-.22-1.15-.39-2.25-.61-3.17,0-.16-.06-.3-.08-.45a3.72,3.72,0,0,1-1.51-1,6.24,6.24,0,0,1-8.85,3.54s0,.09,0,.14A20.93,20.93,0,0,0,1857.33,32.76Z" transform="translate(17.87 188.87)"/><path class="cls-24" d="M1859.29,79.73l-3.66,3.66c0-.27,0-.56,0-.88,0,0,0-.07,0-.1a53,53,0,0,0-3.29-5.36,10.37,10.37,0,0,1,.58,3.4,10.44,10.44,0,0,1-14.3,9.76,4.17,4.17,0,0,1,.71,1.41,3.7,3.7,0,0,1,2.52,2.19,4.46,4.46,0,0,1,1.36-.2,4.06,4.06,0,0,1,1.81.4l-.43.43,5.28,5.28L1864.57,85Z" transform="translate(17.87 188.87)"/><path class="cls-25" d="M1891,33.91c-.35-.34-.7-.68-1.06-1a6.58,6.58,0,0,1-1.19.11,6.3,6.3,0,0,1-6.16-5,29.42,29.42,0,0,0-18.33-2.11,4.14,4.14,0,0,1,1,2.72,4.2,4.2,0,0,1-8.4,0,.77.77,0,0,1,0-.15,28.84,28.84,0,0,0-5.39,3.55h0l-.09.08-.3.24a2.92,2.92,0,0,1-3.64-.24,29.38,29.38,0,0,0-46.31,12.19,4.19,4.19,0,0,1-1.33,8.16c-.16,0-.32,0-.47,0a29.33,29.33,0,0,0,5.44,19.43,6.29,6.29,0,1,1,7.08,7.63l22.16,22.15a4.18,4.18,0,1,1,5.88,5.89l5.35,5.34,0,0,1.16,1.16a4.2,4.2,0,0,0,5.94,0l1.16-1.16.08-.09,3.31-3.32a6.23,6.23,0,0,1-1.43-4,6.29,6.29,0,0,1,6.29-6.29,6.23,6.23,0,0,1,4,1.43L1891,75.47A29.38,29.38,0,0,0,1891,33.91Zm-72.5,5.41a8.4,8.4,0,1,1,8.4,8.4A8.4,8.4,0,0,1,1818.52,39.32Zm14.55,25.4a4.2,4.2,0,1,1,4.2-4.2A4.2,4.2,0,0,1,1833.07,64.72Zm13.49,28.87A8.4,8.4,0,1,1,1855,85.2,8.39,8.39,0,0,1,1846.56,93.59Zm16-34.19a6.3,6.3,0,1,1,6.3-6.3A6.29,6.29,0,0,1,1862.6,59.4Zm9.74,22.26a4.2,4.2,0,1,1,4.2-4.19A4.2,4.2,0,0,1,1872.34,81.66Zm16.43-13.86a8.4,8.4,0,1,1,8.4-8.4A8.39,8.39,0,0,1,1888.77,67.8Z" transform="translate(17.87 188.87)"/><path class="cls-26" d="M49.21,210.42V219a36.86,36.86,0,0,0,36.86,36.86H255.65A36.86,36.86,0,0,0,292.51,219v-8.6Z" transform="translate(17.87 188.87)"/><rect class="cls-8" x="67.08" y="244.95" width="243.3" height="191.69" rx="50"/><rect class="cls-27" x="99.89" y="275.39" width="177.69" height="87.74" rx="15.88"/><rect class="cls-28" x="101.36" y="276.86" width="174.74" height="84.79" rx="15"/><rect class="cls-16" x="108.58" y="381.51" width="73.73" height="33.18" rx="16.59"/><rect class="cls-3" x="108.58" y="379.04" width="73.73" height="33.18" rx="16.59"/><rect class="cls-16" x="195.78" y="381.51" width="33.18" height="33.18" rx="16.59"/><rect class="cls-3" x="195.78" y="379.04" width="33.18" height="33.18" rx="16.59"/><rect class="cls-16" x="235.7" y="381.51" width="33.18" height="33.18" rx="16.59"/><rect class="cls-3" x="235.7" y="379.04" width="33.18" height="33.18" rx="16.59"/><rect class="cls-27" x="99.89" y="275.39" width="177.69" height="87.74" rx="15.88"/><rect class="cls-28" x="101.36" y="276.86" width="174.74" height="84.79" rx="15"/><text class="cls-29" transform="translate(104.57 344.23)">02:00</text><rect class="cls-16" x="108.58" y="381.51" width="73.73" height="33.18" rx="16.59"/><rect class="cls-3" x="108.58" y="379.04" width="73.73" height="33.18" rx="16.59"/><text class="cls-30" transform="translate(123.58 401.44)">S<tspan class="cls-31" x="9.2" y="0">T</tspan><tspan x="16.84" y="0">ART</tspan></text><rect class="cls-16" x="195.78" y="381.51" width="33.18" height="33.18" rx="16.59"/><rect class="cls-3" x="195.78" y="379.04" width="33.18" height="33.18" rx="16.59"/><path class="cls-5" d="M190.54,199v13.31a4.07,4.07,0,0,0-1.85-.43c-1.83,0-3.31,1.15-3.31,2.58s1.48,2.58,3.31,2.58,3.32-1.16,3.32-2.58V203.14l9-1.94v8.55a4.06,4.06,0,0,0-1.84-.43c-1.84,0-3.32,1.15-3.32,2.58s1.48,2.58,3.32,2.58,3.31-1.16,3.31-2.58V196.44Z" transform="translate(17.87 188.87)"/><rect class="cls-16" x="235.7" y="381.68" width="33.18" height="33.18" rx="16.59"/><rect class="cls-3" x="235.7" y="379.04" width="33.18" height="33.18" rx="16.59"/><text class="cls-32" transform="translate(247.21 403.72)">?</text><path class="cls-33" d="M1764,779.53c3.2,4.65,8.45,6,10.44,6.45l11.56-5.92a34.25,34.25,0,0,1-6.21-9.19c-2-4.32-2.44-7.86-5.69-9.61a5.17,5.17,0,0,0-4-.65c-2,.69-1.82,2.75-4.26,6.86-2.28,3.82-3.62,4.1-3.85,6.36C1761.77,776.29,1763.13,778.27,1764,779.53Z" transform="translate(17.87 188.87)"/><path class="cls-34" d="M1741.67,860a7.07,7.07,0,0,0-5.13,2.13c-.44.44-2.92,2.94-2,5.39a4.43,4.43,0,0,0,2.65,2.33,7.92,7.92,0,0,1,.49-1.79,3.71,3.71,0,0,1,1.19-1.9,3,3,0,0,1,2-.41,3.67,3.67,0,0,1,1.58.51l-2.54,1.79a15.45,15.45,0,0,0,4.3.53,15.61,15.61,0,0,0,3.63-.49l1.26-5.26c-.6-.17-1.49-.44-2.54-.84C1743.47,860.86,1743.08,860.16,1741.67,860Z" transform="translate(17.87 188.87)"/><path class="cls-33" d="M1792.16,846c-5.54,7.06-13.63,11.21-17.52,13.21a36.39,36.39,0,0,1-16.31,4.64,34.33,34.33,0,0,1-10.79-1.47c-.79,2.07-1.59,4.15-2.38,6.23,3.08.82,7.4,2,12.51,3.76,8.22,2.75,12.39,4.17,15.2,6.58a21.09,21.09,0,0,1,6.25,9.9l.75-.42a171.17,171.17,0,0,0,14.05-31.57A73.34,73.34,0,0,1,1792.16,846Z" transform="translate(17.87 188.87)"/><path class="cls-33" d="M1857.88,916.57a166.46,166.46,0,0,0-5.2-37.4l.08,0a53.46,53.46,0,0,0-11.24-20.64c-8.17-9.15-17.12-16.2-23.62-22.5-13.4,16.09-26.15,32.82-38.87,49.59a33.79,33.79,0,0,1,4,5.72c-39.8,3.75-45.75,59.1-35.16,74.89,20.18,30.08,75.13,23,81.34,20.9s7.44-9.59,7.44-9.59,5.85-3,13.39-6a1.75,1.75,0,0,1,.18-.53.5.5,0,0,1,0-.12A167.48,167.48,0,0,0,1857.88,916.57Z" transform="translate(17.87 188.87)"/><path class="cls-35" d="M1745,878a7,7,0,0,0-3.86,4c-.23.58-1.51,3.86.35,5.73a4.46,4.46,0,0,0,3.36,1.08,8.63,8.63,0,0,1-.27-1.84,3.72,3.72,0,0,1,.35-2.22,3,3,0,0,1,1.67-1.17,3.88,3.88,0,0,1,1.66-.16l-1.62,2.65a15.4,15.4,0,0,0,7.29-3.12l-.93-5.32c-.63.08-1.55.18-2.66.24C1747,878,1746.35,877.56,1745,878Z" transform="translate(17.87 188.87)"/><path class="cls-34" d="M1779.49,966.27s12.39,17.74,6.29,19.65-16.25.36-43.2,1.11c-5.95.16-10.95.56-14.54.92-3.88,1-7,1-7.56-.14s1.8-3.69,3.66-5a13.58,13.58,0,0,1,6.28-2.17c2.26-.3,3,0,11,0h0c3.44,0,5.86.22,9.65.27,9.54.11,27.23,1.78,24.35-2.86-1.33-2.15-7.11-8.34-7.11-8.34Z" transform="translate(17.87 188.87)"/><path class="cls-21" d="M1858.31,920.53a166.63,166.63,0,0,0-5.2-37.4l.08,0A53.44,53.44,0,0,0,1842,862.46c-9.73-10.89-20.55-18.8-27-26-4.87-5.42-10.57-14.28-13.18-29-9.94,2.51-17.23,1.69-22.12.41s-10-3.75-11.53-1.82c-1.15,1.47.25,4.5.92,6a129.9,129.9,0,0,1,7.86,24.08c2.4,11.27-4.49,13.92-5.17,29.94a60.3,60.3,0,0,0,3.18,21.73l.11,7.81c-23.43,25.05-33.34,54.31-24.36,73.42a46.1,46.1,0,0,0,13.65,16.57c9,6.31,18.33,6.87,32.86,7.55a151.89,151.89,0,0,0,32.51-2l7.44-9.59s5.85-3,13.39-6a1.72,1.72,0,0,1,.18-.54.5.5,0,0,1,0-.12A167.48,167.48,0,0,0,1858.31,920.53Z" transform="translate(17.87 188.87)"/><path class="cls-35" d="M1793.46,975.1s12.39,17.75,6.29,19.65-16.25.37-43.2,1.11c-6,.17-11,.56-14.54.92-3.88,1-7,1-7.56-.13s1.8-3.7,3.66-5a13.49,13.49,0,0,1,6.28-2.18c2.26-.3,3,0,11,0h0c3.44,0,5.86.21,9.65.26,9.54.11,27.23,1.79,24.35-2.86-1.33-2.15-7.11-8.34-7.11-8.34Z" transform="translate(17.87 188.87)"/><path class="cls-35" d="M1841.27,989.76a14.37,14.37,0,0,1,10.1,2.29c5.69,4.1,6.66,12.25,4.42,17.71-2.61,6.35-9.41,8.74-12.37,9.72-16.94,5.66-31-5.94-49.29-11.31-34.9-10.25-78.28,4.25-94,29-7.5,11.8-7.91,26.28-7.77,26.32a67.23,67.23,0,0,1,8.66-19.61,71,71,0,0,1,6.71-8.48c7-7.43,33.92-27,68.38-23,30.14,3.5,37.84,21.79,66.19,18.58,12.65-1.43,18.46-6,21.44-9.22,8.6-9.27,7.51-22,7.27-24.84-2-23.2-26.64-35.07-28.36-35.87Z" transform="translate(17.87 188.87)"/><path class="cls-36" d="M1815.54,802.77c-5,13.68-28.57,14.44-34,14.61-2.88.1-9.26-1-22-3.2-11.22-1.93-19.89-3.87-22.66-9.54a8.24,8.24,0,0,1-.8-2.65c-.58-5.31,4.66-9.77,7.19-11.92,20.8-17.69,47.8-14.31,47.8-14.31,8,1,15.53,2,20.68,8.48C1815.47,788.93,1817.86,796.38,1815.54,802.77Z" transform="translate(17.87 188.87)"/><path class="cls-36" d="M1764.11,801.83c-1,5.92,18.86,19-18.44,6.22-9.37-3.21-15.45-4.95-14.3-16.06-.39-7.84,9.67-4.54,18.66-7.6C1805.82,765.4,1766,790.26,1764.11,801.83Z" transform="translate(17.87 188.87)"/><path class="cls-36" d="M1869.61,920.53a166.63,166.63,0,0,0-5.2-37.4l.08,0a53.45,53.45,0,0,0-11.23-20.65c-9.73-10.89-20.56-18.8-27-26-4.88-5.42-10.58-14.28-13.19-29-9.94,2.51-17.23,1.69-22.12.41s-10-3.75-11.52-1.82c-.68.86-.88,2.4.91,6a92.74,92.74,0,0,1,6.15,22.73c1.73,13.24-7.76,24.78-11.58,29.44a36.36,36.36,0,0,1-13.12,10.73,34.19,34.19,0,0,1-10.49,2.94l.3,6.67c3.15-.47,7.6-1.06,13-1.53,8.64-.74,13-1.09,16.57,0,2.58.8,8.58,3.29,13.67,12.33-39.8,3.74-45.75,59.1-35.16,74.88,20.17,30.08,75.12,23,81.34,20.9s7.43-9.59,7.43-9.59,5.85-3,13.39-6a2.45,2.45,0,0,1,.18-.54s0-.08,0-.12A167.48,167.48,0,0,0,1869.61,920.53Z" transform="translate(17.87 188.87)"/><path class="cls-37" d="M1748.89,795.39a9.51,9.51,0,0,1-.79,3.25c-.24.52-1,2-3.8,3.88-3,2-5,3.31-7.24,2.92-4.17-.72-7.42-6.88-6.09-11.26a9.88,9.88,0,0,1,4-5.25l.37-.21a9.53,9.53,0,0,1,5.62-.89,8.69,8.69,0,0,1,4.5,1.22,6.82,6.82,0,0,1,3.24,4.07A7.15,7.15,0,0,1,1748.89,795.39Z" transform="translate(17.87 188.87)"/><path class="cls-35" d="M1773.65,789.92a6.11,6.11,0,0,1,4.6-5.47c4.38-1.06,6.61,3.92,6.61,3.92s-.53,5.28-4.92,5.79C1774.94,794.74,1773.65,789.92,1773.65,789.92Z" transform="translate(17.87 188.87)"/><circle cx="1779.85" cy="789.2" r="5.37" transform="translate(622.08 2530.04) rotate(-76.77)"/><path class="cls-38" d="M1783.42,788a.77.77,0,0,1-.78.77.76.76,0,0,1-.77-.77.77.77,0,0,1,.77-.78A.78.78,0,0,1,1783.42,788Z" transform="translate(17.87 188.87)"/><path class="cls-38" d="M1781,786.59a1.39,1.39,0,1,1-1.38-1.39A1.38,1.38,0,0,1,1781,786.59Z" transform="translate(17.87 188.87)"/><path class="cls-39" d="M1735.66,789.42a3.61,3.61,0,0,1-.51.9c-.35.42-.59.41-1.19.8a8.17,8.17,0,0,0-1.49,1.32c-.75.76-.78,1-1,.95-.65,0-1.18-2.18-1-4a3.17,3.17,0,0,1,.66-2,2.66,2.66,0,0,1,2-.73c1.26-.05,2.88.51,3,1.41C1736.15,788.32,1736,788.69,1735.66,789.42Z" transform="translate(17.87 188.87)"/><path class="cls-36" d="M1815.82,793.08a15,15,0,0,1-5.06.57c-4.19-3.87-7.51-7-9.75-9.11a4,4,0,0,1-1.32-2.19c-.06-.38-.25-2.09,2.47-4.72,2.89-2.77,4.33-2,7.85-4.43,4.12-2.81,4.67-5.55,7.15-5.42,1.5.09,2.56,1.17,3.69,2.35a14.37,14.37,0,0,1,3.58,8.18c.48,3.12,1,5.94-.58,8.89C1821.69,791.36,1817.19,792.68,1815.82,793.08Z" transform="translate(17.87 188.87)"/><path class="cls-35" d="M1815.33,793.16a13.21,13.21,0,0,1-4.36.5c-3.62-3.34-6.48-6.06-8.42-7.87a3.46,3.46,0,0,1-1.14-1.89c-.05-.33-.21-1.81,2.14-4.07s3.73-1.76,6.77-3.83c3.56-2.42,4-4.79,6.17-4.68,1.3.08,2.21,1,3.19,2a12.43,12.43,0,0,1,3.09,7.06c.42,2.7.82,5.13-.5,7.68C1820.4,791.67,1816.52,792.81,1815.33,793.16Z" transform="translate(17.87 188.87)"/></g></g></g></svg>