<svg xmlns="http://www.w3.org/2000/svg" xmlns:xlink="http://www.w3.org/1999/xlink" viewBox="0 0 1964.1 1357.24"><defs><style>.cls-1{fill:none;}.cls-2{clip-path:url(#clip-path);}.cls-3{fill:#d9d8ff;}.cls-4{fill:#ececff;}.cls-5{fill:#282840;}.cls-6{fill:#504f80;}.cls-7{fill:#b26f90;}.cls-8{fill:#c28ba6;}.cls-9{fill:#3c426a;}.cls-10{fill:#6e7498;}.cls-11{fill:#f2f2f2;}.cls-12{fill:#cfd1dd;}.cls-13{fill:#0b123f;}.cls-14{fill:#070c2a;}.cls-15{fill:#e9e9f0;}.cls-16{fill:#7877bf;}.cls-17{fill:#daddef;}.cls-18{fill:#d1a8bc;}.cls-19{fill:#e0c5d3;}</style><clipPath id="clip-path" transform="translate(22.05 185.87)"><rect class="cls-1" width="1920" height="1080"/></clipPath></defs><g id="Layer_2" data-name="Layer 2"><g id="Layer_3" data-name="Layer 3"><g class="cls-2"><rect class="cls-3" y="169.19" width="1964.1" height="1119.37"/><rect class="cls-4" x="137.87" y="1237.24" width="120" height="120"/><rect class="cls-4" x="17.87" y="1117.24" width="120" height="120"/><rect class="cls-4" x="377.87" y="1237.24" width="120" height="120"/><rect class="cls-4" x="257.87" y="1117.24" width="120" height="120"/><rect class="cls-4" x="617.87" y="1237.24" width="120" height="120"/><rect class="cls-4" x="497.87" y="1117.24" width="120" height="120"/><rect class="cls-4" x="857.87" y="1237.24" width="120" height="120"/><rect class="cls-4" x="737.87" y="1117.24" width="120" height="120"/><rect class="cls-4" x="1097.87" y="1237.24" width="120" height="120"/><rect class="cls-4" x="977.87" y="1117.24" width="120" height="120"/><rect class="cls-4" x="1337.87" y="1237.24" width="120" height="120"/><rect class="cls-4" x="1217.87" y="1117.24" width="120" height="120"/><rect class="cls-4" x="1577.87" y="1237.24" width="120" height="120"/><rect class="cls-4" x="1457.87" y="1117.24" width="120" height="120"/><rect class="cls-4" x="1817.87" y="1237.24" width="120" height="120"/><rect class="cls-4" x="1697.87" y="1117.24" width="120" height="120"/><rect class="cls-5" x="17.87" y="1237.24" width="120" height="120"/><rect class="cls-5" x="137.87" y="1117.24" width="120" height="120"/><rect class="cls-5" x="257.87" y="1237.24" width="120" height="120"/><rect class="cls-5" x="377.87" y="1117.24" width="120" height="120"/><rect class="cls-5" x="497.87" y="1237.24" width="120" height="120"/><rect class="cls-5" x="617.87" y="1117.24" width="120" height="120"/><rect class="cls-5" x="737.87" y="1237.24" width="120" height="120"/><rect class="cls-5" x="857.87" y="1117.24" width="120" height="120"/><rect class="cls-5" x="977.87" y="1237.24" width="120" height="120"/><rect class="cls-5" x="1097.87" y="1117.24" width="120" height="120"/><rect class="cls-5" x="1217.87" y="1237.24" width="120" height="120"/><rect class="cls-5" x="1337.87" y="1117.24" width="120" height="120"/><rect class="cls-5" x="1457.87" y="1237.24" width="120" height="120"/><rect class="cls-5" x="1577.87" y="1117.24" width="120" height="120"/><rect class="cls-5" x="1697.87" y="1237.24" width="120" height="120"/><rect class="cls-5" x="1817.87" y="1117.24" width="120" height="120"/><rect class="cls-6" x="377.53" y="704.1" width="367.79" height="413.77"/><rect class="cls-6" x="377.53" y="0.69" width="367.79" height="413.77"/><rect class="cls-6" x="744.77" y="704.1" width="229.87" height="413.77"/><rect class="cls-6" x="744.77" y="0.69" width="229.87" height="413.77"/><rect class="cls-6" x="974.46" y="704.1" width="367.79" height="413.77"/><rect class="cls-6" x="1342.44" y="704.1" width="229.87" height="413.77"/><rect class="cls-6" x="1342.44" y="0.69" width="229.87" height="413.77"/><rect class="cls-6" x="1572.31" y="704.1" width="367.79" height="413.77"/><rect class="cls-6" x="1572.31" y="0.69" width="367.79" height="413.77"/><rect class="cls-7" x="458.81" y="479.84" width="82.75" height="110.34" rx="6"/><rect class="cls-8" x="458.81" y="559.74" width="82.75" height="13.79"/><rect class="cls-5" x="10.1" y="156.15" width="367.79" height="961.72"/><rect class="cls-9" x="14.7" y="755.59" width="358.6" height="358.6"/><rect class="cls-9" x="14.7" y="161.17" width="358.6" height="588.9"/><rect class="cls-10" x="345.72" y="575.37" width="13.79" height="147.12"/><rect class="cls-10" x="345.72" y="783.17" width="13.79" height="147.12"/><path class="cls-10" d="M517.61,487H502.29a1.52,1.52,0,0,0-1.53,1.53V490a1.53,1.53,0,0,0,1.53,1.54h5.82v4.59h-5.59a1.76,1.76,0,0,0-1.76,1.77v5.67a1.76,1.76,0,0,0,1.76,1.76h14.86a1.76,1.76,0,0,0,1.77-1.76v-5.67a1.77,1.77,0,0,0-1.77-1.77h-5.59v-4.59h5.82a1.54,1.54,0,0,0,1.54-1.54v-1.53A1.53,1.53,0,0,0,517.61,487Z" transform="translate(22.05 185.87)"/><path class="cls-10" d="M577.38,487H562.06a1.53,1.53,0,0,0-1.54,1.53V490a1.54,1.54,0,0,0,1.54,1.54h5.82v4.59h-5.59a1.77,1.77,0,0,0-1.77,1.77v5.67a1.76,1.76,0,0,0,1.77,1.76h14.86a1.76,1.76,0,0,0,1.76-1.76v-5.67a1.76,1.76,0,0,0-1.76-1.77h-5.59v-4.59h5.82a1.53,1.53,0,0,0,1.53-1.54v-1.53A1.52,1.52,0,0,0,577.38,487Z" transform="translate(22.05 185.87)"/><path class="cls-10" d="M590.87,449.31v-1a27.59,27.59,0,0,0-55.17,0v55.17c0,.62,0,1.23.07,1.84H545c-.06-.61-.1-1.22-.1-1.84V448.34a18.39,18.39,0,1,1,36.78,0v1a2.3,2.3,0,0,0-1.84,2.25v4.6a2.29,2.29,0,0,0,2.3,2.29h8.28a2.29,2.29,0,0,0,2.3-2.29v-4.6A2.3,2.3,0,0,0,590.87,449.31Z" transform="translate(22.05 185.87)"/><polygon class="cls-9" points="1158.4 216.77 974.51 400.67 1342.3 400.67 1158.4 216.77"/><rect class="cls-10" x="1089.44" y="145.05" width="137.92" height="140.68"/><rect class="cls-10" x="974.46" y="382.28" width="367.79" height="32.18"/><rect class="cls-11" x="1032.71" y="92.5" width="9.19" height="110.34" rx="4.37" transform="translate(430.29 -504.36) rotate(45)"/><rect class="cls-9" x="974.46" y="690.3" width="367.79" height="354"/><rect class="cls-10" x="992.85" y="784.09" width="331.01" height="13.79"/><rect class="cls-12" x="992.85" y="715.59" width="331.01" height="45.97"/><rect class="cls-13" x="992.85" y="824.55" width="331.01" height="202.29" rx="11.5"/><rect class="cls-12" x="1086.19" y="647.87" width="9.19" height="174.7" rx="4.37" transform="translate(861.42 -370.09) rotate(45)"/><rect class="cls-12" x="1222.43" y="708.25" width="9.19" height="110.34" rx="4.37" transform="translate(921.26 -458.17) rotate(45)"/><rect class="cls-12" x="1167.26" y="651.24" width="9.19" height="174.7" rx="4.37" transform="translate(887.54 -426.43) rotate(45)"/><rect class="cls-12" x="1037.61" y="655.84" width="9.19" height="110.34" rx="4.37" transform="translate(830.07 -342.83) rotate(45)"/><circle class="cls-14" cx="1299.96" cy="739.04" r="13.79"/><circle class="cls-14" cx="1217.2" cy="739.04" r="13.79"/><circle class="cls-14" cx="1258.58" cy="739.04" r="13.79"/><circle class="cls-14" cx="1175.83" cy="739.04" r="13.79"/><circle class="cls-14" cx="1059.05" cy="739.04" r="13.79"/><circle class="cls-14" cx="1017.68" cy="739.04" r="13.79"/><path class="cls-5" d="M1130.33,441.05h-11v-9.42c0-.55,0-1.08-.09-1.61H981.45c0,.53-.08,1.06-.08,1.61v9.42H971.26a4.6,4.6,0,0,0,0,9.2h10.11v35.17a19.08,19.08,0,0,0,19.08,19.08h99.77a19.09,19.09,0,0,0,19.08-19.08V450.25h11a4.6,4.6,0,1,0,0-9.2Z" transform="translate(22.05 185.87)"/><path class="cls-11" d="M1069.42,424.16c-.42-.26,15.87-10,12.06-15.32-1.93-2.71-7.37-1.94-10.34-4.71-4.24-4,.65-11.38,5.75-17.28-2.56,3.4-4.86,7.94-2.3,11.78,3,4.48,10.09,4.21,12.06,7.85C1090.42,413.45,1069.87,424.44,1069.42,424.16Z" transform="translate(22.05 185.87)"/><path class="cls-11" d="M1038.86,424.27c-.56-.35,21.44-13.49,16.3-20.69-2.61-3.66-10-2.63-14-6.37-5.74-5.36.88-15.38,7.76-23.35-3.45,4.6-6.56,10.73-3.1,15.92,4,6.06,13.64,5.69,16.3,10.61C1067.23,409.8,1039.48,424.66,1038.86,424.27Z" transform="translate(22.05 185.87)"/><path class="cls-11" d="M1013.82,424.16c-.42-.26,15.86-10,12.06-15.32-1.93-2.71-7.37-1.94-10.34-4.71-4.24-4,.65-11.38,5.75-17.28-2.56,3.4-4.86,7.94-2.3,11.78,3,4.48,10.09,4.21,12.06,7.85C1034.82,413.45,1014.27,424.44,1013.82,424.16Z" transform="translate(22.05 185.87)"/><rect class="cls-15" x="1011.7" y="626.93" width="9.19" height="45.97" rx="4.37"/><path class="cls-10" d="M700.65,286.51a7.32,7.32,0,0,0-5.73,2.76H384.57a7.36,7.36,0,1,0,0,9.19H694.92a7.35,7.35,0,1,0,5.73-11.95Z" transform="translate(22.05 185.87)"/><rect class="cls-5" x="377.53" y="690.3" width="367.79" height="13.79"/><rect class="cls-5" x="744.77" y="690.3" width="229.87" height="13.79"/><rect class="cls-5" x="1342.44" y="690.3" width="229.87" height="13.79"/><rect class="cls-5" x="1572.31" y="690.3" width="367.79" height="13.79"/><rect class="cls-16" x="381.67" y="708.78" width="358.6" height="404.57"/><rect class="cls-16" x="381.67" y="5.37" width="358.6" height="404.57"/><rect class="cls-16" x="748.91" y="708.78" width="220.68" height="82.75"/><rect class="cls-16" x="748.91" y="796.13" width="220.68" height="82.75"/><rect class="cls-16" x="748.91" y="984.62" width="220.68" height="128.73"/><rect class="cls-16" x="748.91" y="883.48" width="220.68" height="96.55"/><rect class="cls-16" x="748.91" y="5.37" width="220.68" height="404.57"/><rect class="cls-16" x="978.6" y="1048.99" width="358.6" height="64.36"/><rect class="cls-16" x="1346.58" y="796.13" width="220.68" height="317.22"/><rect class="cls-16" x="1346.58" y="708.78" width="220.68" height="82.75"/><rect class="cls-16" x="1346.58" y="5.37" width="220.68" height="404.57"/><rect class="cls-16" x="1576.45" y="708.78" width="358.6" height="404.57"/><rect class="cls-16" x="1576.45" y="5.37" width="358.6" height="404.57"/><rect class="cls-17" x="536.6" y="754.67" width="9.19" height="82.75"/><rect class="cls-17" x="577.98" y="754.67" width="9.19" height="82.75"/><rect class="cls-17" x="536.6" y="281.13" width="9.19" height="82.75"/><rect class="cls-17" x="577.98" y="281.13" width="9.19" height="82.75"/><rect class="cls-17" x="818.33" y="732.6" width="82.75" height="9.19"/><rect class="cls-17" x="818.33" y="819.03" width="82.75" height="9.19"/><rect class="cls-17" x="818.33" y="906.38" width="82.75" height="9.19"/><rect class="cls-17" x="818.33" y="1007.53" width="82.75" height="9.19"/><rect class="cls-17" x="763.16" y="281.13" width="9.19" height="82.75"/><rect class="cls-17" x="1116.98" y="1071.89" width="82.75" height="9.19"/><rect class="cls-17" x="1416" y="732.6" width="82.75" height="9.19"/><rect class="cls-17" x="1360.83" y="842.02" width="9.19" height="82.75"/><rect class="cls-17" x="1359.91" y="281.13" width="9.19" height="82.75"/><rect class="cls-17" x="1590.7" y="754.67" width="9.19" height="82.75"/><rect class="cls-17" x="1590.7" y="281.13" width="9.19" height="82.75"/><path class="cls-18" d="M505.72,282.83h-68a7.37,7.37,0,0,0-7.36,7.36v92.05a5.52,5.52,0,0,0,5.52,5.52h71.72a5.52,5.52,0,0,0,5.52-5.52V290.19A7.37,7.37,0,0,0,505.72,282.83Z" transform="translate(22.05 185.87)"/><rect class="cls-19" x="452.38" y="543.19" width="82.75" height="13.79"/><rect class="cls-10" x="1342.44" y="471.47" width="229.87" height="5.52"/><rect class="cls-5" x="1561.28" y="468.55" width="3.68" height="11.03"/><rect class="cls-5" x="1349.79" y="468.55" width="3.68" height="11.03"/><rect class="cls-5" x="1524.5" y="469.47" width="3.68" height="18.39"/><rect class="cls-5" x="1439.9" y="469.47" width="3.68" height="18.39"/><rect class="cls-5" x="1381.06" y="469.47" width="3.68" height="18.39"/><ellipse class="cls-5" cx="1441.74" cy="589.16" rx="18.39" ry="24.52"/><rect class="cls-5" x="1438.07" y="502.73" width="7.36" height="64.36"/><path class="cls-18" d="M1419.69,297.54a4.6,4.6,0,0,0-4.6,4.6V344a2.3,2.3,0,0,0,2.3,2.3h4.6a2.3,2.3,0,0,0,2.3-2.3V302.14A4.6,4.6,0,0,0,1419.69,297.54Z" transform="translate(22.05 185.87)"/><path class="cls-5" d="M1419.69,299.38a2.77,2.77,0,0,0-2.76,2.76v3.68h.09a1.38,1.38,0,0,0,1.29.92h2.76a1.39,1.39,0,0,0,1.3-.92h.08v-3.68A2.77,2.77,0,0,0,1419.69,299.38Z" transform="translate(22.05 185.87)"/><path class="cls-5" d="M1382.36,416.16h0l-.09-.37c0-.05,0-.11,0-.17l-6.12-24.4a10.35,10.35,0,0,0-10.15-8.33h-10.34a10.34,10.34,0,0,0-10.15,8.34l-6.13,24.4a.29.29,0,0,1,0,.09l-.11.44h0a6.94,6.94,0,0,0-.14,1.38,6.72,6.72,0,0,0,6.2,6.7v0h31v0a6.72,6.72,0,0,0,6.2-6.7A6.94,6.94,0,0,0,1382.36,416.16Zm-26.87-21.94-4.3,20.24a2.59,2.59,0,0,1-5.06-1.08l4.3-20.23a2.59,2.59,0,0,1,5.06,1.07Zm7.88,19.7a2.59,2.59,0,1,1-5.18,0V393.23a2.59,2.59,0,0,1,5.18,0Zm10.07,2.53a2.58,2.58,0,0,1-3.07-2l-4.3-20.24a2.59,2.59,0,0,1,5.06-1.07l4.3,20.23A2.58,2.58,0,0,1,1373.44,416.45Z" transform="translate(22.05 185.87)"/><rect class="cls-5" x="1379.22" y="505.49" width="7.36" height="64.36"/><path class="cls-18" d="M1360.84,297.54a4.59,4.59,0,0,0-4.59,4.6V344a2.3,2.3,0,0,0,2.3,2.3h4.59a2.3,2.3,0,0,0,2.3-2.3V302.14A4.6,4.6,0,0,0,1360.84,297.54Z" transform="translate(22.05 185.87)"/><path class="cls-5" d="M1360.84,299.38a2.76,2.76,0,0,0-2.75,2.76v3.68h.08a1.39,1.39,0,0,0,1.29.92h2.76a1.39,1.39,0,0,0,1.3-.92h.08v-3.68A2.76,2.76,0,0,0,1360.84,299.38Z" transform="translate(22.05 185.87)"/><rect class="cls-5" x="1521.74" y="519.28" width="9.19" height="32.18"/><path class="cls-18" d="M1504.28,297.54a5.52,5.52,0,0,0-5.51,5.52v35.86a2.75,2.75,0,0,0,2.76,2.76H1507a2.75,2.75,0,0,0,2.76-2.76V303.06A5.52,5.52,0,0,0,1504.28,297.54Z" transform="translate(22.05 185.87)"/><circle class="cls-5" cx="1526.34" cy="598.36" r="50.57"/><path class="cls-5" d="M1504.28,300a3.67,3.67,0,0,0-3.67,3.67v4.91h.11a1.83,1.83,0,0,0,1.72,1.22h3.68a1.83,1.83,0,0,0,1.73-1.22h.11v-4.91A3.67,3.67,0,0,0,1504.28,300Z" transform="translate(22.05 185.87)"/><circle class="cls-6" cx="1526.8" cy="598.81" r="39.08"/><circle class="cls-5" cx="1526.8" cy="598.81" r="36.78"/><rect class="cls-6" x="560.05" y="706.62" width="4.6" height="409.17"/><rect class="cls-6" x="560.05" width="4.6" height="413.77"/></g></g></g></svg>