<svg xmlns="http://www.w3.org/2000/svg" viewBox="0 0 100.33 90"><defs><style>.cls-1{fill:#999;}.cls-2{fill:#ccc;}.cls-3{fill:#e6e6e6;}</style></defs><g id="Layer_2" data-name="Layer 2"><g id="Layer_2-2" data-name="Layer 2"><path class="cls-1" d="M96.33,23.43C95.05,21.33,93,20.2,91,19a23.66,23.66,0,0,0-5.13-2.21c-3.45,0-6.88.26-10.32.54a3.68,3.68,0,0,1-2.8.22h-.15c-4.6.35-9.09.43-13.48,1.59-2.47,1.95-4.38,4.95-6.33,7.29s-6.44,1.12-7-1.86c-1.43-7.39-3.67-14.77-11-18.25-3.53-1.66-6.79-1.23-10.53-.77-1.71.21-3.89.14-5.52.78a4.35,4.35,0,0,1-1,2,15.51,15.51,0,0,0-3.1,6,5.05,5.05,0,0,1,.26,1c.41,2.37.76,4.76,1.11,7.16,1,3.94,2.61,7.92,4,11.6a119.74,119.74,0,0,0,6.88,15.6c4.53,8.16,9.65,19.94,19.47,22.71,5.61,1.59,9.66-1.12,14.22-4.1s9-6.2,13.61-9.09c4.27-2.67,6.9-5.68,10.32-9.27a18.77,18.77,0,0,1,8.41-5.45c1.53-2,3.6-3.69,4.51-6a28.82,28.82,0,0,0,1.45-9A37.72,37.72,0,0,0,96.33,23.43Z"/><path class="cls-2" d="M69.6,49.29c0-.15,0-.3,0-.46a4.5,4.5,0,0,1-1.19.16,5.33,5.33,0,0,1-.82-.07c-.12,2.19-.45,4.44.24,6.45.86,2.48,4.8,3.05,7.73,3a4.58,4.58,0,0,1,.76-2.77l-.45,0A6.3,6.3,0,0,1,69.6,49.29Z"/><path class="cls-2" d="M67.61,20.51c-1.13-.32-2.26-.62-3.4-.83a3.85,3.85,0,0,1-3,1.32A4.08,4.08,0,0,1,59,20.41a4,4,0,0,1-3.3,4.26,4.71,4.71,0,0,1-.38,4.54,4,4,0,0,1,1.81,2.65,4,4,0,0,1,1.29.79A8.75,8.75,0,0,1,58.22,31a8.4,8.4,0,0,1,8.4-8.4,8.86,8.86,0,0,1,1.71.18A3.78,3.78,0,0,1,67.61,20.51Z"/><path class="cls-2" d="M97.39,28.92c-1.61-2.45-4-3.54-6.51-4.54l-.42.11-1.41.34A10.5,10.5,0,0,1,89,43.39a3.67,3.67,0,0,1,1.73,1.66c.52-.47,1.06-.92,1.63-1.36a3.22,3.22,0,0,1,2.51-.57c2.45-1.12,3-4.4,3.67-6.72A8.15,8.15,0,0,0,97.39,28.92Z"/><path class="cls-2" d="M64.44,73.5a5.15,5.15,0,0,1-.27-.59c-2.28,0-4.51.23-6.36,1.7-2.38,1.89-2.6,4.69-2.57,7.5.19.15,1.35,1,.58.48a5.17,5.17,0,0,1,1.62,1.86l.24-.24c0-.13,0-.27,0-.4a8.4,8.4,0,0,1,8.4-8.4l.4,0,.14-.14A4.43,4.43,0,0,1,64.44,73.5Z"/><path class="cls-2" d="M35.91,41a4,4,0,0,1,1.65-1c.39-.7.7-1.44,1.13-2.11a4.47,4.47,0,0,1,2-1.68A17.9,17.9,0,0,0,39.2,33.1a12.26,12.26,0,0,1-.91-1.61,1.28,1.28,0,0,0-.44-.72,3.8,3.8,0,0,1-3.07-1,2.8,2.8,0,0,1-.43.19,6.28,6.28,0,0,1-3.91,10.33,3.83,3.83,0,0,1,2.74,1.25A3.88,3.88,0,0,1,35.91,41Z"/><path class="cls-2" d="M18.79,42.69c-1.18-1.59-4.59-2.76-6.47-3.16-3-.65-4.46,1-6.4,3l-.19.17c0,.11,0,.19,0,0h0a3.83,3.83,0,0,1-.15,2.52,6.28,6.28,0,0,1,.75,0,8.39,8.39,0,0,1,8.39,8.4,6,6,0,0,1,0,.73,3.84,3.84,0,0,1,1.39.08c.11-.12.22-.25.35-.37a19.36,19.36,0,0,1,2.94-2.36C19.85,48.47,20.32,44.76,18.79,42.69Z"/><path class="cls-2" d="M6.83,23.51a15,15,0,0,0-2.35-4.38H4.35a4.2,4.2,0,0,1-1.73-.35,8.38,8.38,0,0,1,.47,2.71,8.37,8.37,0,0,1-2.5,5.95H.71a4,4,0,0,1,2.38.73,3.7,3.7,0,0,1,2-1A4.26,4.26,0,0,1,6.83,23.51Z"/><path class="cls-2" d="M37.92,10.32A4,4,0,0,1,35,6.2a22.47,22.47,0,0,0-6.33-2.57,34.63,34.63,0,0,0-6.45.77A3.79,3.79,0,0,1,19.4,6.91a30,30,0,0,1-.5,3.29A10.49,10.49,0,0,1,36,17.85l.13-.13a4.19,4.19,0,0,1,1.71-3.38A4.75,4.75,0,0,1,37.92,10.32Z"/><path class="cls-2" d="M44.48,76.65a5.25,5.25,0,0,1-.57,0,3.8,3.8,0,0,1-3.69-2.37,4.39,4.39,0,0,1-1.35.22,3.92,3.92,0,0,1-2.74-1,3.75,3.75,0,0,1-1.69,1.5c0,.13-.1.27-.16.4.2,0,.41,0,.62,0a6.3,6.3,0,0,1,6.29,6.3,2.72,2.72,0,0,1,0,.28,3.71,3.71,0,0,1,1.72-1.1,4.13,4.13,0,0,1,.55-2.2c.37-.67.78-1.3,1.19-1.93Z"/><path class="cls-2" d="M58,7.45l.13.25a5.62,5.62,0,0,1,1.68.91c2,1.56,5.51-.41,7.41-1.89a3.68,3.68,0,0,1,.64-1.21c-.22-1.15-.39-2.25-.6-3.17a3.58,3.58,0,0,1-.09-.45,3.6,3.6,0,0,1-1.51-1,6.28,6.28,0,0,1-5.93,4.26,6.22,6.22,0,0,1-2.92-.73c0,.05,0,.09,0,.14A20.93,20.93,0,0,0,58,7.45Z"/><path class="cls-2" d="M60,54.42l-3.66,3.66c0-.27,0-.56,0-.88,0,0,0-.06,0-.1A54.15,54.15,0,0,0,53,51.74a10.37,10.37,0,0,1,.58,3.4,10.5,10.5,0,0,1-10.5,10.5,10.25,10.25,0,0,1-3.8-.74A4,4,0,0,1,40,66.31a3.74,3.74,0,0,1,2.52,2.2,4.48,4.48,0,0,1,1.37-.21,4.19,4.19,0,0,1,1.8.4l-.43.44,5.28,5.27L65.27,59.7Z"/><path class="cls-3" d="M91.72,8.6c-.34-.34-.7-.68-1.06-1a6.58,6.58,0,0,1-1.19.12,6.31,6.31,0,0,1-6.16-5A29.49,29.49,0,0,0,65,.61a4.19,4.19,0,1,1-7.37,2.72c0-.05,0-.1,0-.15a29.87,29.87,0,0,0-5.39,3.55h0l-.1.08-.3.24a2.91,2.91,0,0,1-3.64-.23A29.37,29.37,0,0,0,1.89,19a4.18,4.18,0,0,1,2.87,4,4.2,4.2,0,0,1-4.2,4.2,3.75,3.75,0,0,1-.47-.05A29.33,29.33,0,0,0,5.53,46.55a6.29,6.29,0,1,1,7.08,7.63L34.77,76.33a4.18,4.18,0,1,1,5.89,5.89L46,87.56a.1.1,0,0,0,0,0l1.16,1.16a4.19,4.19,0,0,0,5.93,0l1.16-1.16.08-.09,3.31-3.31a6.3,6.3,0,0,1,8.86-8.87L91.72,50.17A29.39,29.39,0,0,0,91.72,8.6ZM19.22,14a8.4,8.4,0,1,1,8.4,8.4A8.4,8.4,0,0,1,19.22,14Zm14.56,25.4A4.2,4.2,0,1,1,38,35.21,4.2,4.2,0,0,1,33.78,39.41ZM47.26,68.29a8.4,8.4,0,1,1,8.39-8.4A8.4,8.4,0,0,1,47.26,68.29Zm16-34.2a6.3,6.3,0,1,1,6.3-6.29A6.29,6.29,0,0,1,63.3,34.09ZM73,56.36a4.2,4.2,0,1,1,4.2-4.2A4.2,4.2,0,0,1,73,56.36ZM89.47,42.49a8.4,8.4,0,1,1,8.4-8.4A8.4,8.4,0,0,1,89.47,42.49Z"/></g></g></svg>