<svg xmlns="http://www.w3.org/2000/svg" viewBox="0 0 192.5 137.08"><defs><style>.cls-1{fill:#755913;}.cls-2{fill:#af851c;}.cls-3{fill:#ffcc4c;}.cls-4{fill:#ffd56b;}</style></defs><g id="Layer_2" data-name="Layer 2"><g id="Layer_2-2" data-name="Layer 2"><path class="cls-1" d="M49.78,113.24c3.88,1.43,10.66,1.53,12.64,1.46,7-.26,11.66-3.93,17.4-7.4,9.52-5.75,23.06-9.76,34.23-9.81,12.34-.07,20.14,9.27,31.09,13.23,11.91,4.3,25.09,1.19,37.49,2,1.55-2.7,1.31-6.62,1.54-9.56a34.93,34.93,0,0,0-.83-12.31,62.78,62.78,0,0,0-10.5-21.21C164.31,58.49,150.4,53,138.06,47.27c-6.9-3.2-14.5-3.82-22-3a34.78,34.78,0,0,0-10.42,2.37c-2.89,1.31-5,3.7-7.32,5.85C93.48,57.06,88.84,62,83.61,66.09a50.71,50.71,0,0,1-18,8.8c-5.32,1.54-10.72,3-16,4.67-3.85,1.25-7.67,2.83-7.67,7.4A5,5,0,0,1,41.51,89c.13.47.25.94.38,1.4C44.06,98.17,46.92,105.7,49.78,113.24Z"/><path class="cls-2" d="M181.88,97.66a28,28,0,0,0-4.27-12.49A4.71,4.71,0,0,1,176.22,84c-6.18-7.44-14.43-5.53-22.69-3.3-3,.82-6.16,1.43-9.1,2.5a20,20,0,0,1-33.6,4.56A24.07,24.07,0,0,1,99.54,84.1a10,10,0,0,1-4-11.61,13,13,0,0,1,2.72-4.76,4.49,4.49,0,0,1-.39-1.42c-.56-5.84,10.81-11.71,25.41-13.12,10.61-1,20,.59,24.55,3.79.81-.1,1.35-.53,1.57-1.85a4.7,4.7,0,0,1,.84-2.07c-.87-1.58-1.74-3.1-2.67-4.46a17.68,17.68,0,0,0-9.72-7.17c-4.39-1.51-8.61-3.37-13-5a5,5,0,0,1-3.36-4.35c-4.8-1.69-9.68-3.8-14.72-4.07-6-.31-11.93,1.83-17.7,3.39C86.28,33.55,84.9,35,84.77,38c-.2,4.52,1.88,13.21-2,16.69a5.78,5.78,0,0,1-1.18.81c-1.7,2.17-4.82,3.07-7.06.35A27,27,0,0,0,53.31,46a16.43,16.43,0,0,0-5.93,1.16,4.5,4.5,0,0,1-3.14,1.73,14.83,14.83,0,0,0-1.24,1,4.67,4.67,0,0,1-1,1A34.6,34.6,0,0,0,35.9,60c-.08.16-.16.3-.25.45.49,2.07,1,4.14,1.59,6.2,1,3.52-1.68,5.89-4.5,6.15a3.7,3.7,0,0,1-.42,1.6,3.78,3.78,0,0,1-1,1.61,3.86,3.86,0,0,1-1.61,1,3.88,3.88,0,0,1-1.93.43H26.59a5,5,0,0,1-2.53-.69l-1-.78c-.08-.08-.15-.17-.23-.26a5,5,0,0,1-1.33-.3c-3.37,2.94-7.35,4.2-11.38,6a6,6,0,0,1-4.29.31,4.56,4.56,0,0,1-3.73,1.71H2a20,20,0,0,1,8.26,16.17,20,20,0,0,1-9.54,17,4.33,4.33,0,0,1,1.77,1,4.59,4.59,0,0,1,3.14-1c4,.13,7.43.52,11.33-.36s7.59-1.65,11.47-2.26c8.59-1.34,17.22-2.37,25.86-3.21a4.15,4.15,0,0,1,3.43,1c.58,0,1.16,0,1.74-.1a98.78,98.78,0,0,0,11.15-2c5.94-1.17,11.93-2.16,17.91-3.11,4.83-.78,9.14-.15,11.46,4.61a28,28,0,0,1,2.13,6.85,5.33,5.33,0,0,1,1.17,3.66,6.08,6.08,0,0,1,.33.62,5.11,5.11,0,0,1,.77,2,4.24,4.24,0,0,1,.87.38,3.86,3.86,0,0,1,.51-.09,9.9,9.9,0,0,1-.5-3A10,10,0,0,1,125,119.55a5.31,5.31,0,0,1,2.08-.43c17.11-.12,34.57-3,51.45-6C180.49,108.22,182.36,103.34,181.88,97.66ZM54.21,104a10,10,0,1,1,10-10A10,10,0,0,1,54.21,104Zm103,10a15,15,0,1,1,15-15A15,15,0,0,1,157.21,114Z"/><path class="cls-3" d="M192.5,58.83V49L171.38,38.53a41.74,41.74,0,0,1-13.5,2c-11.32,0-20.5-3.67-20.5-8.2,0-2.69,3.26-5.07,8.26-6.57l-19.47-9.62a50.33,50.33,0,0,1-6.29.39c-11.32,0-20.5-3.67-20.5-8.2,0-1.49,1-2.88,2.75-4.08L93.46,0,78.78,11.12a7.51,7.51,0,0,1,1.42,4.25c0,7.07-11.37,13.07-27.19,15.25L0,70.74V85a14.51,14.51,0,0,1,2.2-.18,15,15,0,0,1,0,30,15.92,15.92,0,0,1-2.2-.18v22.44l31.9-3.61a7.41,7.41,0,0,1-.7-3.15,7.5,7.5,0,0,1,15,0,7.22,7.22,0,0,1-.17,1.55l60.35-6.82a10,10,0,1,1,16.82-1.9l69.3-7.84V73.81a7.49,7.49,0,0,1,0-15Zm-133.3,44a10,10,0,1,1,10-10A10,10,0,0,1,59.2,102.82Zm-3-41.64c-7.93,0-14.37-2.58-14.37-5.75s6.44-5.75,14.37-5.75,14.38,2.57,14.38,5.75S64.15,61.18,56.21,61.18Zm67,17.64a20,20,0,0,1-20-19.66,7.49,7.49,0,0,1-4.54-11.81C92,46.18,87.34,43.52,87.34,40.43c0-4.17,8.45-7.55,18.87-7.55,9.11,0,16.71,2.58,18.49,6a20,20,0,0,1-1.5,39.93Zm40,33a15,15,0,1,1,15-15A15,15,0,0,1,163.2,111.82Z"/><path class="cls-4" d="M101.71,56.32c0-4.53,9.18-8.2,20.5-8.2,9.9,0,18.16,2.8,20.08,6.53L192.5,49l-22.32-11a43,43,0,0,1-9.08.93c-10.42,0-18.87-3.38-18.87-7.55,0-1.89,1.74-3.61,4.59-4.93L121.45,13.84a29.36,29.36,0,0,1-7.24.85c-7.42,0-13.43-2.4-13.43-5.37,0-1.48,1.48-2.81,3.88-3.78L93.46,0,78.77,11.12c3.41,1.79,5.44,4,5.44,6.44,0,5.87-11.88,10.62-26.55,10.62H56.25L0,70.74,103,59.1A4.21,4.21,0,0,1,101.71,56.32Zm-47.93.55c-7.42,0-13.44-2.41-13.44-5.38s6-5.37,13.44-5.37,13.43,2.4,13.43,5.37S61.2,56.87,53.78,56.87Zm34.68-24c0-3.18,6.44-5.75,14.38-5.75s14.37,2.57,14.37,5.75-6.43,5.75-14.37,5.75S88.46,36.06,88.46,32.89Z"/></g></g></svg>