<svg xmlns="http://www.w3.org/2000/svg" viewBox="0 0 100 109.8"><defs><style>.cls-1{fill:#6371c9;}.cls-2{fill:#8995de;}.cls-3{fill:#603813;}.cls-4{fill:#4554b1;}.cls-5{fill:#fcfcfe;}</style></defs><g id="Layer_2" data-name="Layer 2"><g id="Layer_2-2" data-name="Layer 2"><path class="cls-1" d="M40.32,13C18.05,13,0,20.25,0,29.16V93.67c0,8.91,18.05,16.13,40.32,16.13s40.33-7.22,40.33-16.13V29.16C80.65,20.25,62.59,13,40.32,13Z"/><path class="cls-2" d="M40.32,13C18.05,13,0,20.25,0,29.16S18.05,45.28,40.32,45.28s40.33-7.22,40.33-16.12S62.59,13,40.32,13Zm0,29c-20.48,0-37.09-5.78-37.09-12.9S19.84,16.25,40.32,16.25,77.42,22,77.42,29.16,60.81,42.06,40.32,42.06Z"/><path class="cls-3" d="M74.91,33.8c-7-4.71-19.88-7.87-34.59-7.87S12.78,29.09,5.74,33.8c5.36,4.83,18.8,8.26,34.58,8.26S69.54,38.63,74.91,33.8Z"/><path class="cls-4" d="M90.32,42.06H80.65v6.45h9.67a3.23,3.23,0,0,1,3.23,3.23V71.09a3.23,3.23,0,0,1-3.23,3.23H80.65v6.45h9.67A9.68,9.68,0,0,0,100,71.09V51.74A9.68,9.68,0,0,0,90.32,42.06Z"/><path class="cls-5" d="M6.5,43.41a3,3,0,0,0-3,3v46a3,3,0,0,0,6,0v-46A3,3,0,0,0,6.5,43.41Z"/><path class="cls-5" d="M41.29,35.46C35,30.71,33.91,27.2,34.15,24.81c.46-4.66,6.12-6,7.66-11.3C43.2,8.69,40.35,3.6,37.65,0c8.25,7.15,9.41,11.73,8.71,14.68-1.12,4.68-7.08,5.94-8.06,11.43C37.66,29.73,39.56,33.13,41.29,35.46Z"/><path class="cls-5" d="M54.92,31.53c-4.89-3.69-5.75-6.43-5.56-8.29.36-3.62,4.76-4.64,6-8.8,1.08-3.75-1.14-7.71-3.23-10.51,6.41,5.56,7.31,9.13,6.77,11.42C58,19,53.35,20,52.59,24.25,52.09,27.07,53.57,29.71,54.92,31.53Z"/><path class="cls-5" d="M27.24,31.53c-4.89-3.69-5.75-6.43-5.56-8.29.36-3.62,4.76-4.64,6-8.8,1.08-3.75-1.14-7.71-3.24-10.51,6.42,5.56,7.32,9.13,6.78,11.42-.87,3.65-5.51,4.63-6.27,8.9C24.41,27.07,25.89,29.71,27.24,31.53Z"/></g></g></svg>