<svg xmlns="http://www.w3.org/2000/svg" viewBox="0 0 189.4 320.94"><defs><style>.cls-1{fill:#d69c9a;}.cls-2{fill:#1a1a1a;}.cls-3{fill:#ccc;}.cls-4{fill:#f0afad;}.cls-5{fill:#333;}.cls-6{fill:#3c3c3c;}.cls-7{fill:#fff;}.cls-8{fill:#cf9795;}</style></defs><g id="Layer_2" data-name="Layer 2"><g id="Layer_2-2" data-name="Layer 2"><path class="cls-1" d="M74.75,215.48s13.11,18.79,6.66,20.81-17.21.39-45.75,1.17c-6.31.18-11.6.6-15.41,1-4.1,1.06-7.41,1.1-8-.14s1.9-3.91,3.88-5.28a14.32,14.32,0,0,1,6.65-2.3c2.39-.32,3.16.05,11.61.05h0c3.63,0,6.2.23,10.22.27,10.1.13,28.83,1.9,25.78-3-1.41-2.28-7.53-8.83-7.53-8.83Z"/><path class="cls-2" d="M144.06,164.4a177,177,0,0,0-2.71-39.89l.08,0a56.54,56.54,0,0,0-10.34-22.65c-8-10.27-16.88-18.38-23.28-25.52-15.35,16-30.07,32.73-44.75,49.5a35.83,35.83,0,0,1,3.81,6.34c-42.33,1-52.73,59-42.71,76.5,19.08,33.28,77.65,29.9,84.37,28.12s8.57-9.57,8.57-9.57,6.4-2.71,14.59-5.34a2.28,2.28,0,0,1,.23-.56s0-.08,0-.12A177.82,177.82,0,0,0,144.06,164.4Z"/><path class="cls-1" d="M39.73,100.08a7.47,7.47,0,0,0-5.67,1.57c-.51.41-3.45,2.71-2.75,5.42a4.71,4.71,0,0,0,2.49,2.79,8.42,8.42,0,0,1,.74-1.82A4,4,0,0,1,36,106.2,3.12,3.12,0,0,1,38.2,106a3.91,3.91,0,0,1,1.6.74l-2.89,1.55a16.45,16.45,0,0,0,4.45,1.12,16.74,16.74,0,0,0,3.87,0l2-5.37c-.62-.26-1.51-.66-2.56-1.21C41.52,101.17,41.2,100.39,39.73,100.08Z"/><path class="cls-2" d="M94.62,91.81c-6.73,6.7-15.77,10-20.13,11.63a38.52,38.52,0,0,1-17.73,2.76,36.1,36.1,0,0,1-11.16-2.94l-3.3,6.25c3.12,1.26,7.51,3.11,12.66,5.57,8.28,3.94,12.48,6,15.13,8.88a22.33,22.33,0,0,1,5.28,11.21l.84-.35a181.29,181.29,0,0,0,18.85-31.36A77.1,77.1,0,0,1,94.62,91.81Z"/><path class="cls-2" d="M175.31,165.36a176.39,176.39,0,0,0-5.51-39.6l.08,0A56.67,56.67,0,0,0,158,103.87c-8.66-9.69-18.14-17.15-25-23.83-14.19,17-27.7,34.76-41.17,52.52A34.68,34.68,0,0,1,96,138.62c-42.14,4-48.45,62.59-37.23,79.31,21.37,31.85,79.56,24.37,86.14,22.13s7.88-10.15,7.88-10.15,6.19-3.16,14.17-6.36a2.31,2.31,0,0,1,.19-.56.69.69,0,0,0,0-.13A177.37,177.37,0,0,0,175.31,165.36Z"/><path class="cls-3" d="M131.77,94.18c-107-30.59-119.38,91.5-96.85,121.11,12.18,16,30.64,24.83,50.19,29.37,29-44.9,49.37-93,67.06-143.33A181.31,181.31,0,0,0,131.77,94.18Z"/><path class="cls-2" d="M75.89,20.24c3.39,4.93,9,6.39,11,6.83L99.18,20.8a36.49,36.49,0,0,1-6.57-9.73C90.51,6.49,90,2.75,86.58.9A5.44,5.44,0,0,0,82.36.2c-2.06.73-1.92,2.92-4.51,7.27-2.4,4-3.83,4.34-4.07,6.73C73.53,16.8,75,18.9,75.89,20.24Z"/><path class="cls-4" d="M55.77,124.53a7.42,7.42,0,0,0-4.09,4.23c-.24.61-1.6,4.08.37,6.06A4.73,4.73,0,0,0,55.6,136a9,9,0,0,1-.27-1.95,3.85,3.85,0,0,1,.36-2.34,3.18,3.18,0,0,1,1.77-1.25,3.9,3.9,0,0,1,1.76-.17l-1.71,2.81a16.65,16.65,0,0,0,7.72-3.3l-1-5.64c-.66.08-1.64.19-2.82.25C57.86,124.57,57.19,124.05,55.77,124.53Z"/><path class="cls-3" d="M175.77,169.56a176.88,176.88,0,0,0-5.51-39.6l.08,0a56.66,56.66,0,0,0-11.9-21.86c-10.3-11.53-21.76-19.91-28.63-27.56-5.17-5.74-11.2-15.12-14-30.73-10.52,2.66-18.24,1.78-23.42.44s-10.6-4-12.21-1.94c-1.22,1.56.26,4.77,1,6.31a137.29,137.29,0,0,1,8.32,25.5c2.55,12-4.75,14.75-5.47,31.72a63.64,63.64,0,0,0,3.37,23l.11,8.27c-24.81,26.52-35.3,57.51-25.79,77.75a48.86,48.86,0,0,0,14.45,17.54c9.58,6.69,19.42,7.28,34.8,8a160,160,0,0,0,34.44-2.13q3.93-5.07,7.87-10.15s6.19-3.15,14.18-6.35a2.18,2.18,0,0,1,.19-.56c0-.05,0-.09,0-.13A177.69,177.69,0,0,0,175.77,169.56Z"/><path class="cls-4" d="M107.09,227.36s13.12,18.79,6.66,20.8-17.21.39-45.75,1.18c-6.31.17-11.59.59-15.4,1-4.11,1.06-7.42,1.11-8-.14s1.9-3.91,3.87-5.27a14.35,14.35,0,0,1,6.65-2.31c2.4-.31,3.16,0,11.61,0h0c3.64,0,6.21.23,10.22.28,10.1.12,28.84,1.89,25.78-3-1.4-2.27-7.53-8.83-7.53-8.83Z"/><path class="cls-4" d="M157.72,242.88a15.16,15.16,0,0,1,10.69,2.43c6,4.33,7.06,13,4.68,18.75-2.76,6.72-10,9.25-13.1,10.29-17.93,6-32.85-6.28-52.2-12-37-10.86-82.89,4.49-99.54,30.68C.31,305.57-.13,320.9,0,320.94a71.53,71.53,0,0,1,9.17-20.77,76.12,76.12,0,0,1,7.11-9c7.39-7.87,35.91-28.57,72.41-24.32,31.92,3.71,40.08,23.08,70.1,19.68,13.4-1.52,19.55-6.36,22.7-9.76,9.11-9.82,8-23.35,7.7-26.31-2.1-24.56-28.21-37.14-30-38Z"/><path class="cls-5" d="M130.47,44.85c-5.25,14.49-30.25,15.29-36,15.48-3,.1-9.81-1.07-23.33-3.39-11.88-2-21.07-4.1-24-10.11a8.76,8.76,0,0,1-.84-2.8c-.62-5.63,4.94-10.35,7.61-12.62,22-18.74,50.63-15.17,50.63-15.17,8.44,1.06,16.44,2.18,21.89,9C130.39,30.2,132.92,38.09,130.47,44.85Z"/><path class="cls-5" d="M76,43.85C75,50.12,96,64,56.48,50.45c-9.93-3.4-16.37-5.25-15.15-17-.41-8.3,10.24-4.8,19.77-8C120.17,5.27,78,31.6,76,43.85Z"/><path class="cls-5" d="M187.74,169.56a176.88,176.88,0,0,0-5.51-39.6l.08,0a56.66,56.66,0,0,0-11.9-21.86c-10.3-11.53-21.76-19.91-28.63-27.56-5.17-5.74-11.2-15.12-14-30.73-10.52,2.66-18.24,1.78-23.42.44s-10.6-4-12.21-1.94c-.71.91-.92,2.54,1,6.31a98.32,98.32,0,0,1,6.52,24.07c1.83,14-8.22,26.25-12.27,31.18a38.54,38.54,0,0,1-13.89,11.37,36.13,36.13,0,0,1-11.11,3.11c.1,2.35.21,4.71.31,7.06,3.34-.49,8.05-1.12,13.74-1.61,9.14-.79,13.79-1.16,17.54,0,2.74.85,9.09,3.48,14.48,13-42.15,4-48.45,62.59-37.23,79.31C92.6,254,150.79,246.5,157.38,244.25s7.87-10.15,7.87-10.15,6.19-3.15,14.18-6.35a2.18,2.18,0,0,1,.19-.56c0-.05,0-.09,0-.13A177.69,177.69,0,0,0,187.74,169.56Z"/><path class="cls-6" d="M59.89,37a10.29,10.29,0,0,1-.84,3.43c-.26.56-1.08,2.16-4,4.12-3.15,2.1-5.26,3.5-7.67,3.09-4.42-.76-7.86-7.28-6.45-11.92A10.37,10.37,0,0,1,45.2,30.2c.17-.1.3-.18.39-.22A10.12,10.12,0,0,1,51.54,29a9.28,9.28,0,0,1,4.77,1.29,7.23,7.23,0,0,1,3.43,4.31A7.48,7.48,0,0,1,59.89,37Z"/><path class="cls-4" d="M86.1,31.24A6.47,6.47,0,0,1,91,25.46c4.64-1.13,7,4.14,7,4.14s-.56,5.59-5.21,6.13C87.48,36.35,86.1,31.24,86.1,31.24Z"/><circle cx="92.68" cy="30.48" r="5.68" transform="translate(41.79 113.72) rotate(-76.77)"/><path class="cls-7" d="M96.45,29.19a.82.82,0,1,1-.82-.82A.82.82,0,0,1,96.45,29.19Z"/><path class="cls-7" d="M93.93,27.72a1.47,1.47,0,1,1-1.47-1.47A1.47,1.47,0,0,1,93.93,27.72Z"/><path class="cls-8" d="M45.87,30.71a3.6,3.6,0,0,1-.53,1c-.37.44-.62.43-1.27.85a9.43,9.43,0,0,0-1.58,1.39c-.79.81-.81,1-1,1-.69,0-1.25-2.31-1.08-4.26a3.38,3.38,0,0,1,.7-2.15,2.79,2.79,0,0,1,2.07-.77c1.33-.06,3.05.54,3.2,1.49C46.4,29.55,46.22,29.94,45.87,30.71Z"/><path class="cls-5" d="M130.76,34.59a15.88,15.88,0,0,1-5.35.61c-4.44-4.1-8-7.43-10.33-9.66a4.08,4.08,0,0,1-1.39-2.31c-.06-.4-.27-2.22,2.61-5,3.06-2.94,4.59-2.15,8.31-4.69,4.37-3,5-5.88,7.57-5.74,1.6.09,2.71,1.24,3.91,2.48A15.1,15.1,0,0,1,139.88,19c.52,3.31,1,6.29-.61,9.41C137,32.77,132.22,34.16,130.76,34.59Z"/><path class="cls-4" d="M130.25,34.67a13.59,13.59,0,0,1-4.62.53c-3.83-3.54-6.87-6.41-8.92-8.33a3.59,3.59,0,0,1-1.2-2c-.05-.35-.23-1.92,2.26-4.31s4-1.86,7.17-4c3.77-2.57,4.27-5.09,6.54-5,1.37.08,2.34,1.07,3.37,2.14a13.12,13.12,0,0,1,3.28,7.48c.44,2.86.87,5.44-.53,8.13C135.62,33.1,131.51,34.31,130.25,34.67Z"/></g></g></svg>