<svg xmlns="http://www.w3.org/2000/svg" viewBox="0 0 195.93 320.94"><defs><style>.cls-1{fill:#1a1a1a;}.cls-2{fill:#d69c9a;}.cls-3{fill:#ccc;}.cls-4{fill:#f0afad;}.cls-5{fill:#333;}.cls-6{fill:#3c3c3c;}.cls-7{fill:#fff;}.cls-8{fill:#cf9795;}</style></defs><g id="Layer_2" data-name="Layer 2"><g id="Layer_2-2" data-name="Layer 2"><path class="cls-1" d="M130.92,162.93A176.69,176.69,0,0,0,128.66,123l.08,0a56.74,56.74,0,0,0-10.08-22.76c-7.84-10.36-16.68-18.57-23-25.78-15.52,15.83-30.43,32.39-45.3,49a36.19,36.19,0,0,1,3.74,6.39c-42.33.53-53.38,58.44-43.57,76,18.71,33.49,77.32,30.76,84.06,29.06s8.68-9.48,8.68-9.48,6.42-2.64,14.64-5.18a2.61,2.61,0,0,1,.24-.54.62.62,0,0,1,0-.13A177.54,177.54,0,0,0,130.92,162.93Z"/><path class="cls-2" d="M64.2,213.56s11.55,19.79,5,21.28-17.18-1-45.69-2.55C17.15,232,11.85,231.94,8,232c-4.18.73-7.48.5-8-.79s2.21-3.74,4.29-4.94a14.29,14.29,0,0,1,6.82-1.75c2.41-.13,3.14.3,11.56,1h0c3.63.29,6.17.73,10.17,1.11,10.06.94,28.58,4.23,25.94-.92-1.22-2.38-6.79-9.42-6.79-9.42Z"/><path class="cls-2" d="M13.87,93.65a7.48,7.48,0,0,0-5.44,2.26C8,96.37,5.34,99,6.37,101.62a4.7,4.7,0,0,0,2.8,2.46,9,9,0,0,1,.52-1.89,3.81,3.81,0,0,1,1.27-2,3.21,3.21,0,0,1,2.12-.44,4.06,4.06,0,0,1,1.68.54l-2.69,1.9a16.54,16.54,0,0,0,8.4,0l1.33-5.57c-.64-.19-1.58-.47-2.69-.89C15.78,94.52,15.37,93.78,13.87,93.65Z"/><path class="cls-1" d="M67.34,78.75c-5.86,7.47-14.43,11.87-18.56,14a38.38,38.38,0,0,1-17.26,4.91,36.07,36.07,0,0,1-11.43-1.56l-2.52,6.61c3.25.87,7.83,2.17,13.25,4,8.7,2.91,13.11,4.41,16.09,7a22.26,22.26,0,0,1,6.62,10.48l.79-.45A180.84,180.84,0,0,0,69.2,90.25,78,78,0,0,1,67.34,78.75Z"/><path class="cls-3" d="M131.71,74c-3-.54-6.06-1-9.2-1.45C-5,55.32-1,193.18,29.35,222.59c16.37,15.88,38.91,22.81,62.05,24.78,23.76-48.64,39.18-99,51.31-151C138.69,89,134,82,131.71,74Z"/><path class="cls-1" d="M82,20.24c3.39,4.93,9,6.39,11,6.83l12.25-6.27a36.33,36.33,0,0,1-6.58-9.73c-2.09-4.58-2.58-8.32-6-10.17A5.45,5.45,0,0,0,88.5.2C86.43.93,86.57,3.12,84,7.47c-2.41,4-3.84,4.34-4.07,6.73C79.66,16.8,81.1,18.9,82,20.24Z"/><path class="cls-4" d="M61.9,124.53a7.42,7.42,0,0,0-4.09,4.23c-.24.61-1.6,4.08.37,6.06A4.74,4.74,0,0,0,61.74,136a8.32,8.32,0,0,1-.28-1.95,3.85,3.85,0,0,1,.36-2.34,3.2,3.2,0,0,1,1.78-1.25,3.85,3.85,0,0,1,1.75-.17l-1.71,2.81a16.65,16.65,0,0,0,7.72-3.3l-1-5.64c-.66.08-1.64.19-2.82.25C64,124.57,63.33,124.05,61.9,124.53Z"/><path class="cls-3" d="M181.9,169.56a176.3,176.3,0,0,0-5.51-39.6l.08,0a56.53,56.53,0,0,0-11.9-21.86c-10.3-11.53-21.76-19.91-28.63-27.56-5.17-5.74-11.2-15.12-14-30.73-10.52,2.66-18.24,1.78-23.42.44s-10.6-4-12.2-1.94c-1.23,1.56.25,4.77,1,6.31a137.74,137.74,0,0,1,8.33,25.5c2.55,12-4.76,14.75-5.48,31.72a63.86,63.86,0,0,0,3.37,23l.12,8.27c-24.81,26.52-35.31,57.51-25.8,77.75A49,49,0,0,0,82.3,238.38c9.59,6.69,19.42,7.28,34.81,8a159.94,159.94,0,0,0,34.43-2.13q3.93-5.07,7.87-10.15s6.2-3.15,14.18-6.35a2.18,2.18,0,0,1,.19-.56c0-.05,0-.09,0-.13A177.42,177.42,0,0,0,181.9,169.56Z"/><path class="cls-4" d="M113.22,227.36s13.12,18.79,6.66,20.8-17.21.39-45.74,1.18c-6.32.17-11.6.59-15.41,1-4.11,1.06-7.42,1.11-8-.14s1.9-3.91,3.87-5.27a14.35,14.35,0,0,1,6.65-2.31c2.4-.31,3.17,0,11.61,0h0c3.64,0,6.21.23,10.22.28,10.11.12,28.84,1.89,25.79-3-1.41-2.27-7.54-8.83-7.54-8.83Z"/><path class="cls-4" d="M163.85,242.88a15.19,15.19,0,0,1,10.7,2.43c6,4.33,7,13,4.67,18.75-2.76,6.72-10,9.25-13.09,10.29-17.94,6-32.85-6.28-52.21-12C77,251.52,31,266.87,14.39,293.06,6.44,305.57,6,320.9,6.15,320.94a71.53,71.53,0,0,1,9.17-20.77,76.12,76.12,0,0,1,7.11-9c7.39-7.87,35.92-28.57,72.41-24.32,31.92,3.71,40.08,23.08,70.1,19.68,13.4-1.52,19.55-6.36,22.7-9.76,9.11-9.82,8-23.35,7.7-26.31-2.1-24.56-28.21-37.14-30-38Z"/><path class="cls-5" d="M136.6,44.85c-5.24,14.49-30.25,15.29-36,15.48-3,.1-9.8-1.07-23.33-3.39-11.88-2-21.06-4.1-24-10.11a8.62,8.62,0,0,1-.85-2.8C51.8,38.4,57.35,33.68,60,31.41c22-18.74,50.63-15.17,50.63-15.17,8.45,1.06,16.44,2.18,21.89,9C136.53,30.2,139.05,38.09,136.6,44.85Z"/><path class="cls-5" d="M82.13,43.85c-1,6.27,20,20.13-19.52,6.6-9.93-3.4-16.37-5.25-15.15-17-.4-8.3,10.24-4.8,19.77-8C126.31,5.27,84.17,31.6,82.13,43.85Z"/><path class="cls-5" d="M193.87,169.56a176.3,176.3,0,0,0-5.51-39.6l.08,0a56.53,56.53,0,0,0-11.9-21.86c-10.3-11.53-21.76-19.91-28.63-27.56-5.17-5.74-11.2-15.12-14-30.73-10.53,2.66-18.25,1.78-23.43.44s-10.6-4-12.2-1.94c-.72.91-.93,2.54,1,6.31a98.32,98.32,0,0,1,6.52,24.07c1.83,14-8.22,26.25-12.27,31.18a38.45,38.45,0,0,1-13.89,11.37,36,36,0,0,1-11.11,3.11c.11,2.35.21,4.71.31,7.06,3.34-.49,8.06-1.12,13.74-1.61,9.15-.79,13.79-1.16,17.55,0,2.74.85,9.09,3.48,14.47,13-42.15,4-48.45,62.59-37.23,79.31,21.37,31.85,79.55,24.37,86.14,22.12s7.87-10.15,7.87-10.15,6.2-3.15,14.18-6.35a2.18,2.18,0,0,1,.19-.56c0-.05,0-.09,0-.13A177.42,177.42,0,0,0,193.87,169.56Z"/><path class="cls-6" d="M66,37a10,10,0,0,1-.84,3.43c-.25.56-1.07,2.16-4,4.12-3.15,2.1-5.26,3.5-7.67,3.09-4.42-.76-7.86-7.28-6.45-11.92a10.46,10.46,0,0,1,4.29-5.56l.39-.22a10.13,10.13,0,0,1,6-.95,9.28,9.28,0,0,1,4.77,1.29,7.23,7.23,0,0,1,3.43,4.31A7.48,7.48,0,0,1,66,37Z"/><path class="cls-4" d="M92.24,31.24a6.45,6.45,0,0,1,4.87-5.78c4.64-1.13,7,4.14,7,4.14s-.57,5.59-5.22,6.13C93.61,36.35,92.24,31.24,92.24,31.24Z"/><circle cx="98.81" cy="30.48" r="5.68" transform="translate(46.52 119.69) rotate(-76.77)"/><path class="cls-7" d="M102.58,29.19a.82.82,0,1,1-.82-.82A.82.82,0,0,1,102.58,29.19Z"/><path class="cls-7" d="M100.06,27.72a1.47,1.47,0,1,1-1.47-1.47A1.47,1.47,0,0,1,100.06,27.72Z"/><path class="cls-8" d="M52,30.71a3.91,3.91,0,0,1-.54,1c-.37.44-.62.43-1.26.85a8.7,8.7,0,0,0-1.58,1.39c-.8.81-.82,1-1,1-.69,0-1.25-2.31-1.08-4.26a3.38,3.38,0,0,1,.7-2.15,2.79,2.79,0,0,1,2.07-.77c1.34-.06,3.06.54,3.2,1.49C52.53,29.55,52.35,29.94,52,30.71Z"/><path class="cls-5" d="M136.9,34.59a16,16,0,0,1-5.36.61c-4.44-4.1-7.95-7.43-10.33-9.66a4.14,4.14,0,0,1-1.39-2.31c-.06-.4-.27-2.22,2.62-5,3-2.94,4.58-2.15,8.3-4.69,4.37-3,4.95-5.88,7.57-5.74,1.6.09,2.71,1.24,3.92,2.48A15.24,15.24,0,0,1,146,19c.51,3.31,1,6.29-.62,9.41C143.12,32.77,138.35,34.16,136.9,34.59Z"/><path class="cls-4" d="M136.39,34.67a13.62,13.62,0,0,1-4.63.53c-3.83-3.54-6.86-6.41-8.91-8.33a3.54,3.54,0,0,1-1.21-2c0-.35-.23-1.92,2.26-4.31s4-1.86,7.17-4c3.77-2.57,4.27-5.09,6.54-5,1.38.08,2.34,1.07,3.38,2.14a13.1,13.1,0,0,1,3.27,7.48c.44,2.86.87,5.44-.53,8.13C141.75,33.1,137.64,34.31,136.39,34.67Z"/><path class="cls-5" d="M128.53,179.56c8.29,14.57,8.47,32.78,13.94,48.89.07.21.15.42.23.63,9-.35,17.92-.19,26.85-1.05,5.32-.52,10.66-1.18,16-1.91,24.46-55.62.87-134.55-21.18-149.88-14.64-10.18-31.5-11.36-48.27-7.62a5.56,5.56,0,0,1-.93,2.35c-1.07,1.49.76,10.27,1.14,12.53.89,5.18,2.08,10.29,2.82,15.5,1.09,7.63.62,15.56,1.21,23.26a136.73,136.73,0,0,0,4.1,22.93C127.07,155.63,130.86,168.42,128.53,179.56Z"/><circle class="cls-5" cx="94.97" cy="44.77" r="10"/></g></g></svg>