<svg xmlns="http://www.w3.org/2000/svg" viewBox="0 0 195.32 316.42"><defs><style>.cls-1{fill:#1a1a1a;}.cls-2{fill:#d69c9a;}.cls-3{fill:#ccc;}.cls-4{fill:#f0afad;}.cls-5{fill:#333;}.cls-6{fill:#3c3c3c;}.cls-7{fill:#fff;}.cls-8{fill:#cf9795;}</style></defs><g id="Layer_2" data-name="Layer 2"><g id="Layer_2-2" data-name="Layer 2"><path class="cls-1" d="M129.89,154.82A177,177,0,0,0,126.33,115l.08,0A56.58,56.58,0,0,0,115.6,92.55c-8.17-10.1-17.27-18-23.82-25-15,16.33-29.36,33.36-43.69,50.44A36.09,36.09,0,0,1,52,124.22C9.74,126.12.57,184.36,11,201.61c19.78,32.86,78.26,28.24,85,26.32s8.36-9.75,8.36-9.75,6.34-2.84,14.48-5.65A2.6,2.6,0,0,1,119,212s0-.09,0-.13A177.63,177.63,0,0,0,129.89,154.82Z"/><path class="cls-2" d="M64.2,205.76s11.55,19.79,5,21.28S52,226,23.46,224.49c-6.31-.34-11.61-.35-15.44-.29-4.18.73-7.48.5-8-.79s2.21-3.74,4.29-4.94a14.29,14.29,0,0,1,6.82-1.75c2.41-.13,3.14.3,11.56,1h0c3.63.29,6.17.73,10.17,1.11,10.06.94,28.58,4.23,25.94-.92-1.22-2.38-6.79-9.41-6.79-9.41Z"/><path class="cls-2" d="M10.37,77A7.42,7.42,0,0,0,4.7,78.55c-.52.4-3.47,2.69-2.78,5.4a4.71,4.71,0,0,0,2.47,2.81,8.48,8.48,0,0,1,.76-1.82,3.84,3.84,0,0,1,1.51-1.83A3.17,3.17,0,0,1,8.82,83a3.85,3.85,0,0,1,1.59.75l-2.9,1.54A16.43,16.43,0,0,0,12,86.37a17,17,0,0,0,3.88,0l2-5.36c-.61-.26-1.5-.67-2.55-1.22C12.16,78.11,11.84,77.33,10.37,77Z"/><path class="cls-1" d="M65.31,69C58.54,75.71,49.48,79,45.12,80.56a38.58,38.58,0,0,1-17.75,2.66,36,36,0,0,1-11.14-3l-3.34,6.23c3.12,1.28,7.5,3.15,12.64,5.64,8.26,4,12.44,6,15.07,9a22.41,22.41,0,0,1,5.23,11.24l.84-.34a181.8,181.8,0,0,0,19-31.26A77,77,0,0,1,65.31,69Z"/><path class="cls-3" d="M134.05,51.7c-3.19-.59-6.44-1.12-9.79-1.59C-11.32,31.33-7,182,25.19,214.16c17.42,17.37,41.38,24.94,66,27.1C116.45,188.09,132.84,133,145.75,76.15,141.47,68.17,136.48,60.5,134.05,51.7Z"/><path class="cls-4" d="M56.62,120a7.49,7.49,0,0,0-4.09,4.23c-.24.61-1.6,4.08.38,6.06a4.71,4.71,0,0,0,3.55,1.15,9.55,9.55,0,0,1-.28-1.95,3.89,3.89,0,0,1,.37-2.35,3.21,3.21,0,0,1,1.77-1.24,3.86,3.86,0,0,1,1.75-.17l-1.7,2.8a16.41,16.41,0,0,0,7.71-3.29l-1-5.65c-.66.09-1.63.2-2.82.26C58.72,120,58.05,119.53,56.62,120Z"/><path class="cls-3" d="M176.62,165a176.94,176.94,0,0,0-5.5-39.6l.08,0a56.71,56.71,0,0,0-11.9-21.86C149,92,137.54,83.64,130.66,76c-5.16-5.75-11.19-15.12-14-30.73-10.53,2.66-18.25,1.78-23.42.43s-10.6-4-12.21-1.93c-1.23,1.56.26,4.77,1,6.31a137.29,137.29,0,0,1,8.32,25.5c2.55,11.94-4.75,14.75-5.47,31.72a63.68,63.68,0,0,0,3.37,23l.11,8.27c-24.81,26.52-35.3,57.51-25.79,77.75A48.86,48.86,0,0,0,77,233.86c9.58,6.69,19.42,7.28,34.8,8a160.56,160.56,0,0,0,34.43-2.13l7.88-10.15s6.19-3.15,14.18-6.35a2.25,2.25,0,0,1,.19-.57.5.5,0,0,1,0-.12A177.78,177.78,0,0,0,176.62,165Z"/><path class="cls-4" d="M108,222.83s13.11,18.79,6.66,20.81-17.21.39-45.75,1.18c-6.31.17-11.6.59-15.41,1-4.1,1.06-7.41,1.1-8-.14s1.89-3.91,3.87-5.28a14.32,14.32,0,0,1,6.65-2.3c2.4-.32,3.16.05,11.61.05h0c3.63,0,6.2.23,10.22.28,10.1.12,28.83,1.89,25.78-3-1.41-2.27-7.53-8.83-7.53-8.83Z"/><path class="cls-4" d="M158.57,238.35a15.28,15.28,0,0,1,10.7,2.43c6,4.34,7,13,4.68,18.76-2.76,6.72-10,9.25-13.1,10.29-17.93,6-32.85-6.29-52.2-12-37-10.86-82.89,4.49-99.54,30.68C1.16,301,.73,316.38.88,316.42a71.08,71.08,0,0,1,9.17-20.77,74.9,74.9,0,0,1,7.11-9c7.39-7.88,35.91-28.57,72.41-24.32,31.91,3.71,40.07,23.08,70.1,19.68,13.4-1.52,19.54-6.37,22.7-9.77,9.11-9.81,7.95-23.35,7.7-26.3-2.11-24.57-28.21-37.14-30-38Z"/><path class="cls-5" d="M188.59,165a176.94,176.94,0,0,0-5.5-39.6l.08,0a56.71,56.71,0,0,0-11.9-21.86C161,92,149.51,83.64,142.63,76c-5.16-5.75-11.19-15.12-14-30.73-10.53,2.66-18.25,1.78-23.42.43s-10.6-4-12.21-1.93c-.72.91-.92,2.54,1,6.31a98.06,98.06,0,0,1,6.51,24.07c1.83,14-8.21,26.25-12.26,31.18a38.59,38.59,0,0,1-13.9,11.37,36.3,36.3,0,0,1-11.1,3.11c.1,2.35.2,4.71.31,7.06,3.33-.5,8.05-1.12,13.74-1.61,9.14-.79,13.79-1.16,17.54,0,2.74.84,9.09,3.48,14.48,13.05-42.15,4-48.45,62.58-37.24,79.3,21.37,31.86,79.56,24.38,86.14,22.13s7.88-10.15,7.88-10.15,6.19-3.15,14.18-6.35a2.25,2.25,0,0,1,.19-.57.5.5,0,0,1,0-.12A177.78,177.78,0,0,0,188.59,165Z"/><path class="cls-1" d="M96,19.15c2.75,5.31,8.08,7.46,10.11,8.16l12.93-4.7a36.39,36.39,0,0,1-5.31-10.47c-1.51-4.81-1.52-8.58-4.71-10.85A5.46,5.46,0,0,0,105,.08c-2.15.47-2.28,2.65-5.39,6.64-2.89,3.72-4.34,3.84-4.88,6.18C94.12,15.45,95.29,17.71,96,19.15Z"/><path class="cls-5" d="M147.12,50.39c-7,13.71-31.93,11.39-37.67,10.86-3-.29-9.6-2.29-22.73-6.28-11.53-3.51-20.38-6.7-22.54-13a8.8,8.8,0,0,1-.49-2.89c.09-5.66,6.19-9.65,9.13-11.58,24.19-15.84,52.12-8.72,52.12-8.72,8.25,2.1,16,4.22,20.6,11.64C148.87,35.84,150.4,44,147.12,50.39Z"/><path class="cls-5" d="M93.2,42.59C91.38,48.69,110.51,65.06,73,46.7c-9.43-4.61-15.59-7.25-12.91-18.77.64-8.29,10.76-3.49,20.62-5.52C141.84,9.83,96.76,30.7,93.2,42.59Z"/><path class="cls-6" d="M78.06,33.82a9.83,9.83,0,0,1-1.25,3.3c-.33.52-1.34,2-4.51,3.59-3.39,1.68-5.66,2.81-8,2.1-4.28-1.3-6.88-8.2-4.91-12.63a10.46,10.46,0,0,1,5-5l.42-.17a10.09,10.09,0,0,1,6-.2,9.29,9.29,0,0,1,4.58,1.88,7.23,7.23,0,0,1,2.86,4.71A7.57,7.57,0,0,1,78.06,33.82Z"/><path class="cls-4" d="M104.8,31.35a6.48,6.48,0,0,1,5.56-5.14c4.74-.54,6.43,5,6.43,5s-1.26,5.47-5.94,5.43C105.53,36.58,104.8,31.35,104.8,31.35Z"/><circle cx="111.42" cy="31.41" r="5.68" transform="translate(43.13 124.88) rotate(-69.6)"/><path class="cls-7" d="M115.32,30.6a.81.81,0,0,1-.91.71.84.84,0,0,1-.72-.92.82.82,0,1,1,1.63.21Z"/><path class="cls-7" d="M113,28.82a1.47,1.47,0,1,1-1.27-1.64A1.47,1.47,0,0,1,113,28.82Z"/><path class="cls-8" d="M65,25.8a4,4,0,0,1-.65.88c-.42.39-.67.35-1.36.68a8.56,8.56,0,0,0-1.74,1.19c-.89.7-.94.91-1.16.87-.67-.13-.94-2.45-.54-4.36a3.43,3.43,0,0,1,1-2,2.82,2.82,0,0,1,2.15-.51c1.33.11,3,.92,3,1.88C65.61,24.71,65.39,25.07,65,25.8Z"/><path class="cls-5" d="M148.69,40.24a16.18,16.18,0,0,1-5.39-.06c-3.89-4.62-7-8.37-9-10.87a4.19,4.19,0,0,1-1.09-2.47c0-.41,0-2.24,3.22-4.63,3.39-2.54,4.81-1.57,8.83-3.62,4.7-2.41,5.64-5.22,8.22-4.75,1.58.29,2.54,1.57,3.58,2.95a15.17,15.17,0,0,1,2.67,9.07c.1,3.35.22,6.37-1.78,9.27C155.09,39.21,150.19,40,148.69,40.24Z"/><path class="cls-4" d="M148.17,40.26a14,14,0,0,1-4.65,0c-3.36-4-6-7.22-7.8-9.39a3.53,3.53,0,0,1-.95-2.13c0-.35,0-1.93,2.78-4,2.93-2.19,4.16-1.34,7.62-3.12,4.06-2.08,4.87-4.51,7.1-4.1,1.36.25,2.19,1.35,3.09,2.55a13.12,13.12,0,0,1,2.31,7.83c.08,2.89.19,5.5-1.54,8C153.7,39.37,149.46,40.05,148.17,40.26Z"/><path class="cls-5" d="M122.36,166.44c8.19,15.68,7.51,34.78,12.6,51.94l.22.67c9.63.08,19.26.69,28.89.22,5.74-.27,11.51-.7,17.28-1.2,29-57.07,7.46-141-15.49-158.13-15.23-11.4-33.28-13.47-51.48-10.39A6,6,0,0,1,113.26,52c-1.21,1.5.32,10.8.63,13.18.7,5.47,1.73,10.89,2.28,16.39.79,8-.09,16.33.17,24.43a139.59,139.59,0,0,0,3.29,24.24C122,141.29,125.4,154.89,122.36,166.44Z"/><circle class="cls-5" cx="108.89" cy="44.36" r="10"/></g></g></svg>